<?xml version="1.0" encoding="utf-8"?>
<!-- Generator: Adobe Illustrator 16.0.0, SVG Export Plug-In . SVG Version: 6.00 Build 0)  -->
<!DOCTYPE svg PUBLIC "-//W3C//DTD SVG 1.1//EN" "http://www.w3.org/Graphics/SVG/1.1/DTD/svg11.dtd">
<svg version="1.1" xmlns="http://www.w3.org/2000/svg" xmlns:xlink="http://www.w3.org/1999/xlink" x="0px" y="0px" width="550px"
	 height="550px" viewBox="0 0 550 550" enable-background="new 0 0 550 550" xml:space="preserve">
<g id="tech-link" display="none">
	<g display="inline">
		<path d="M208.661,264.419L86.041,385.491c0,0-26.393,49.68,6.206,76.062c32.598,26.381,68.297,3.104,68.297,3.104l130.384-127.281
			v80.713c0,0-79.127,99.164-121.07,117.967c-45.013,20.18-96.239,3.105-127.281-27.941
			C11.534,477.069-3.986,405.663,17.743,376.177c21.729-29.486,107.101-114.861,107.101-114.861L208.661,264.419z"/>
		<path d="M341.34,285.581l122.62-121.072c0,0,26.393-49.68-6.207-76.062c-32.598-26.382-68.297-3.105-68.297-3.105L259.071,212.624
			v-80.712c0,0,79.129-99.166,121.072-117.967c45.012-20.18,96.237-3.104,127.281,27.94
			c31.042,31.046,46.561,102.451,24.831,131.938c-21.728,29.487-107.101,114.861-107.101,114.861L341.34,285.581z"/>
		<path d="M409.998,151.701c10.428,10.887,10.049,28.171-0.842,38.599L190.163,399.886c-10.895,10.422-28.179,10.045-38.602-0.855
			l-6.095-6.369c-10.427-10.887-10.048-28.178,0.846-38.6l218.995-209.586c10.889-10.42,28.173-10.038,38.598,0.856L409.998,151.701
			z"/>
	</g>
</g>
<g id="tech-script" display="none">
	<g display="inline">
		<g>
			<polygon fill="none" stroke="#000000" stroke-width="36.7845" points="361.286,21.317 70.564,21.32 70.564,524.426 
				479.437,524.426 479.437,128.34 			"/>
			<polygon points="479.437,105.972 382.009,18.125 346.862,18.128 346.862,150.693 479.437,150.693 			"/>
		</g>
		<g>
			<path d="M233.209,406.978L127.516,314.55v-58.166l105.693-92.59v69.602l-64.234,52.186l64.234,52.214V406.978z"/>
			<path d="M316.778,337.796l64.234-52.214l-64.234-52.186v-69.602l105.695,92.59v58.166l-105.695,92.428V337.796z"/>
		</g>
	</g>
</g>
<g id="tech-html" display="none">
	<g display="inline">
		<g>
			<polygon fill="none" stroke="#000000" stroke-width="36.7845" points="361.008,22.644 71.225,22.647 71.225,524.128 
				478.775,524.128 478.775,129.321 			"/>
			<polygon points="478.775,107.025 381.664,19.462 346.632,19.466 346.632,151.603 478.775,151.603 			"/>
		</g>
		<g>
			<path d="M189.745,394.184l-89.09-77.908v-49.029l89.09-78.045v58.668l-54.144,43.988l54.144,44.012V394.184z"/>
			<path d="M280.493,166.572h16.286l-28.854,250.406h-16.123L280.493,166.572z"/>
			<path d="M358.29,335.869l54.144-44.012l-54.144-43.988v-58.668l89.09,78.045v49.029l-89.09,77.908V335.869z"/>
		</g>
	</g>
</g>
<g id="tech-css" display="none">
	<g display="inline">
		<g>
			<polygon fill="none" stroke="#000000" stroke-width="36.7845" points="361.051,23.722 71.121,23.726 71.121,525.462 
				478.879,525.462 478.879,130.454 			"/>
			<polygon points="478.879,108.146 381.718,20.539 346.668,20.542 346.668,152.746 478.879,152.746 			"/>
		</g>
		<g>
			<path d="M162.787,165.457v46.475h-3.008c-2.809,0-4.914,1.253-6.318,3.755c-1.404,2.504-2.396,6.354-2.975,11.548
				c-0.315,2.834-0.496,10.605-0.541,23.309c-0.045,12.706-0.675,22.695-1.892,29.968c-0.901,5.574-2.186,10.06-3.853,13.46
				c-1.262,2.551-3.334,5.15-6.217,7.794c3.001,2.929,5.231,5.975,6.688,9.139c1.456,3.166,2.699,7.983,3.73,14.453
				c1.03,6.471,1.546,16.79,1.546,30.96c0,12.752,0.313,21.063,0.941,24.938c0.627,3.872,1.669,6.611,3.125,8.218
				c1.456,1.605,4.38,2.409,8.772,2.409v45.908h-8.469c-8.738,0-14.945-2.008-18.619-6.021c-3.675-4.017-6.296-9.872-7.864-17.57
				c-1.569-7.7-2.353-19.248-2.353-34.644c0-3.4,0.044-6.802,0.135-10.202c0.044-2.076,0.067-4.202,0.067-6.376
				c0-10.957-0.47-18.75-1.412-23.379c-0.941-4.628-2.297-7.981-4.066-10.061c-1.771-2.077-4.335-3.21-7.696-3.4v-48.601
				c3.45,0,6.038-1.134,7.764-3.401c1.725-2.267,3.035-5.738,3.932-10.414c0.896-4.676,1.344-12.586,1.344-23.733v-4.818
				c-0.045-2.172-0.067-4.344-0.067-6.518c0-16.72,0.661-28.81,1.983-36.273c1.321-7.461,3.148-13.177,5.478-17.145
				c1.748-3.022,4.123-5.289,7.125-6.801c3.988-1.983,8.537-2.975,13.645-2.975H162.787z"/>
			<path d="M218.576,318.91h29.239v57.811h-29.239V318.91z"/>
			<path d="M264.417,318.91h29.239v57.811h-29.239V318.91z"/>
			<path d="M310.259,318.91h29.239v57.811h-29.239V318.91z"/>
			<path d="M404.294,165.457c5.108,0,9.656,0.992,13.645,2.975c3.002,1.512,5.378,3.779,7.125,6.801
				c2.33,3.968,4.156,9.684,5.479,17.145c1.321,7.463,1.982,19.554,1.982,36.273c0,2.174-0.022,4.346-0.066,6.518v4.818
				c0,11.147,0.447,19.058,1.344,23.733s2.207,8.147,3.933,10.414c1.725,2.268,4.312,3.401,7.763,3.401v48.601
				c-3.36,0.19-5.926,1.323-7.696,3.4c-1.771,2.079-3.125,5.433-4.066,10.061c-0.94,4.629-1.411,12.422-1.411,23.379
				c0,2.174,0.021,4.3,0.067,6.376c0.089,3.4,0.134,6.802,0.134,10.202c0,15.396-0.784,26.943-2.353,34.644
				c-1.568,7.698-4.19,13.554-7.864,17.57c-3.675,4.014-9.881,6.021-18.618,6.021h-8.47v-45.908c4.392,0,7.315-0.804,8.771-2.409
				c1.456-1.606,2.498-4.346,3.126-8.218c0.627-3.874,0.94-12.186,0.94-24.938c0-14.17,0.515-24.489,1.547-30.96
				c1.03-6.47,2.273-11.287,3.73-14.453c1.455-3.164,3.685-6.21,6.688-9.139c-2.884-2.644-4.956-5.243-6.218-7.794
				c-1.667-3.4-2.951-7.886-3.852-13.46c-1.217-7.273-1.848-17.263-1.893-29.968c-0.046-12.704-0.226-20.475-0.54-23.309
				c-0.58-5.194-1.571-9.044-2.976-11.548c-1.404-2.502-3.51-3.755-6.317-3.755h-3.008v-46.475H404.294z"/>
		</g>
	</g>
</g>
<g id="tech-images" display="none">
	<path display="inline" fill="none" stroke="#000000" stroke-width="39.3025" d="M90.351,335.023c0,0-59.875-131.437-59.872-131.437
		c-10.46-22.964-0.322-50.06,22.639-60.521l241.252-109.9c22.961-10.46,50.059-0.33,60.522,22.639l33.233,72.959"/>
	<path display="inline" fill="none" stroke="#000000" stroke-width="39.3025" d="M523.146,471.474
		c0,27.046-21.925,48.967-48.967,48.967H190.073c-27.041,0-48.966-21.921-48.966-48.967V285.327
		c0-27.046,21.925-48.967,48.966-48.967H474.18c27.042,0,48.967,21.921,48.967,48.967V471.474z"/>
	<polygon display="inline" points="190.089,466.562 469.271,466.562 363.964,368.602 297.845,439.624 251.312,405.339 	"/>
</g>
<g id="tech-bug" display="none">
	<path display="inline" d="M391.607,155.263c-10.687,35.334-49.293,54.915-86.231,43.749c-36.938-11.174-58.219-48.87-47.536-84.205
		c10.684-35.328,49.293-54.915,86.23-43.748C381.008,82.231,402.291,119.928,391.607,155.263z"/>
	<path display="inline" d="M390.587,117.181c0,0,30.078-32.789,17.929-61.442c0,0-13.074,44.016-24.896,44.656L390.587,117.181z"/>
	<path display="inline" d="M279.878,83.697c0,0-6.865-43.956,19.127-61.081c0,0-13.511,43.886-4.026,50.97L279.878,83.697z"/>
	<path display="inline" d="M346.319,443.202c25.95-21.177,47.463-51.254,60.46-87.365c27.646,12.709,75.509,54.002,75.509,54.002
		c-7.577-35.531-46.33-61.918-69.183-74.67c6.645-26.32,8.058-52.493,4.9-76.917c29.873,3.673,88.915,29.753,88.915,29.753
		c-18.893-34.097-69.055-47.66-93.231-52.342c-12.529-48.55-44.224-87.1-88.965-100.629c-44.681-13.517-92.354,0.962-129.668,34.333
		c-23.373-9.577-71.153-24.916-104.971-7.417c0,0,61.184,10.591,88.906,23.733c-16.329,18.727-29.795,41.506-38.889,67.364
		c-26.419-1.856-71.66-0.795-97.023,23.966c0,0,60.217-7.535,90.917-3.37c-9.202,37.502-7.824,74.652,2.252,106.776
		c-26.393,5.098-65.127,17.112-82.59,44.852c0,0,60.235-22.685,90.307-24.755c16.027,34.676,43.289,61.115,78.748,71.839
		c35.667,10.785,73.235,3.731,105.923-16.524c23.806,17.468,62.691,71.553,62.691,71.553
		C392.18,493.966,365.568,461.931,346.319,443.202z"/>
</g>
<g id="tech-cloud-download" display="none">
	<g display="inline">
		<path d="M537.114,213.714c-19.771-69.964-114.072-66.922-114.072-66.922s4.555-117.114-92.783-133.845
			c-97.342-16.73-150.578,33.461-179.475,94.301c0,0-118.637-9.125-139.931,106.466c-14.372,78.015,33.461,127.767,33.461,127.767
			h463.902C508.216,341.481,556.887,283.675,537.114,213.714z M465.68,306.498H86.384c0,0-39.107-39.26-27.359-100.823
			c17.41-91.216,111.534-77.133,111.534-77.133c23.624-48.009,70.031-94.5,149.626-81.297
			c79.579,13.201,73.964,114.757,73.964,114.757s78.998-11.538,95.168,43.672C505.479,260.883,465.68,306.498,465.68,306.498z"/>
		<polygon points="346.991,433.369 346.991,333.876 207.064,333.876 207.064,432.319 176.642,432.09 275.508,538.562 
			378.937,433.611 		"/>
	</g>
</g>
<g id="tech-network">
	<path d="M367.407,13.088H190.222c-11.486,0-20.795,9.312-20.795,20.799v132.009c0,11.486,9.309,20.799,20.795,20.799h177.185
		c11.486,0,20.795-9.312,20.795-20.799V33.887C388.202,22.399,378.894,13.088,367.407,13.088z M343.744,62.489H213.891
		c-5.85,0-10.591-4.74-10.591-10.587c0-5.848,4.741-10.587,10.591-10.587h129.854c5.845,0,10.585,4.739,10.585,10.587
		C354.329,57.749,349.589,62.489,343.744,62.489z"/>
	<path d="M331.395,428.894h-105.16c-6.82,0-12.344,5.525-12.344,12.343v78.351c0,6.817,5.524,12.343,12.344,12.343h105.16
		c6.814,0,12.344-5.525,12.344-12.343v-78.351C343.738,434.419,338.209,428.894,331.395,428.894z M317.352,458.214h-77.068
		c-3.476,0-6.286-2.815-6.286-6.285c0-3.471,2.81-6.282,6.286-6.282h77.068c3.47,0,6.279,2.812,6.279,6.282
		C323.631,455.398,320.821,458.214,317.352,458.214z"/>
	<path d="M147.909,428.894H42.75c-6.821,0-12.345,5.525-12.345,12.343v78.351c0,6.817,5.524,12.343,12.345,12.343h105.159
		c6.816,0,12.343-5.525,12.343-12.343v-78.351C160.252,434.419,154.725,428.894,147.909,428.894z M133.866,458.214H56.798
		c-3.476,0-6.285-2.815-6.285-6.285c0-3.471,2.81-6.282,6.285-6.282h77.068c3.47,0,6.28,2.812,6.28,6.282
		C140.146,455.398,137.336,458.214,133.866,458.214z"/>
	<path d="M510.648,428.894h-105.16c-6.819,0-12.344,5.525-12.344,12.343v78.351c0,6.817,5.524,12.343,12.344,12.343h105.16
		c6.814,0,12.344-5.525,12.344-12.343v-78.351C522.992,434.419,517.463,428.894,510.648,428.894z M496.605,458.214h-77.068
		c-3.476,0-6.285-2.815-6.285-6.285c0-3.471,2.81-6.282,6.285-6.282h77.068c3.47,0,6.279,2.812,6.279,6.282
		C502.885,455.398,500.075,458.214,496.605,458.214z"/>
	
		<line fill="none" stroke="#000000" stroke-width="28.8864" stroke-miterlimit="10" x1="278.112" y1="207.86" x2="278.112" y2="400.15"/>
	<polyline fill="none" stroke="#000000" stroke-width="28.8864" stroke-miterlimit="10" points="90.389,402.976 90.389,305.517 
		458.771,305.517 458.771,401.562 	"/>
</g>
<g id="tech-target" display="none">
	<g display="inline">
		<path fill="none" stroke="#000000" stroke-width="38.0309" stroke-miterlimit="10" d="M464.246,261.238
			c0,102.617-83.193,185.811-185.811,185.811c-102.616,0-185.808-83.193-185.808-185.811c0-102.616,83.192-185.808,185.808-185.808
			C381.053,75.431,464.246,158.622,464.246,261.238z"/>
		<rect x="254.333" y="9.991" width="41.298" height="168.651"/>
		<rect x="254.333" y="371.359" width="41.298" height="168.649"/>
		<rect x="9.991" y="254.331" width="168.651" height="41.3"/>
		<rect x="371.359" y="254.331" width="168.649" height="41.3"/>
	</g>
</g>
<g id="tech-external-drive" display="none">
	<g display="inline">
		<path stroke="#000000" stroke-width="8.2945" d="M518.083,405.683c0,2.66-22.73,4.808-50.764,4.808H92.024
			c-28.035,0-50.758-2.147-50.758-4.808l-19.45-18.915l85.144-336.675c4.641-15.594,20.741-31.186,36.53-31.186h266.103
			c15.789,0,28.588,15.592,36.532,31.186l84.455,333.924L518.083,405.683z"/>
		<path fill="#FFFFFF" stroke="#000000" stroke-width="8.2945" d="M502.517,355.986H50.581c-15.79,0-28.59,13.963-28.59,31.187
			v116.375c0,17.224,12.8,31.183,28.59,31.183h451.936c15.789,0,28.589-13.959,28.589-31.183V387.173
			C531.105,369.949,518.306,355.986,502.517,355.986z M468.149,483.782c-15.632,0-28.3-13.825-28.3-30.872
			c0-17.049,12.668-30.872,28.3-30.872c15.629,0,28.297,13.823,28.297,30.872C496.446,469.957,483.778,483.782,468.149,483.782z"/>
	</g>
</g>
<g id="tech-search" display="none">
	
		<circle display="inline" fill="none" stroke="#000000" stroke-width="34.76" stroke-miterlimit="10" cx="392.019" cy="161.81" r="132.082"/>
	<polygon display="inline" points="202.875,300.069 215.91,313.104 282.172,246.843 302.742,267.414 236.481,333.675 
		249.517,346.71 77.889,518.304 31.248,471.663 	"/>
</g>
<g id="tech-graph" display="none">
	<polyline display="inline" fill="none" stroke="#000000" stroke-width="28.3494" stroke-miterlimit="10" points="28.147,15.687 
		28.147,516.164 538.437,516.164 	"/>
	<rect x="54.137" y="381.497" display="inline" width="63.787" height="129.939"/>
	<rect x="135.171" y="272.82" display="inline" width="63.786" height="238.616"/>
	<rect x="216.197" y="232.663" display="inline" width="63.786" height="278.773"/>
	<rect x="297.231" y="83.829" display="inline" width="63.786" height="427.607"/>
	<rect x="378.259" y="164.15" display="inline" width="63.785" height="347.287"/>
	<rect x="459.292" y="251.562" display="inline" width="63.786" height="259.875"/>
</g>
<g id="data_collection" display="none">
	<rect x="34.617" y="75.777" display="inline" width="485.097" height="113.346"/>
	<rect x="34.617" y="381.057" display="inline" width="485.097" height="113.346"/>
	<rect x="34.617" y="228.397" display="inline" width="365.665" height="113.384"/>
</g>
<g id="tech-mobile" display="none">
	<g display="inline">
		<path d="M372.777,166.046H177.233c-1.951,0-3.534,1.471-3.534,3.277v359.672c0,1.807,1.583,3.277,3.534,3.277h195.544
			c1.941,0,3.523-1.471,3.523-3.277V169.323C376.301,167.517,374.719,166.046,372.777,166.046z M269.068,516.978
			c-10.233,0-18.507-8.295-18.507-18.508s8.273-18.508,18.507-18.508c10.236,0,18.509,8.295,18.509,18.508
			S279.305,516.978,269.068,516.978z M351.484,461.142H202.152V222.93h149.332V461.142z"/>
		<path fill="none" stroke="#000000" stroke-width="21.5336" stroke-miterlimit="10" d="M245.629,139.213
			c3.58-11.735,15.374-20.336,29.342-20.336c14.026,0,25.879,8.682,29.4,20.497"/>
		<path fill="none" stroke="#000000" stroke-width="21.5336" stroke-miterlimit="10" d="M218.164,110.492
			c6.926-22.693,29.753-39.358,56.777-39.358c27.2,0,50.089,16.798,56.895,39.68"/>
		<path fill="none" stroke="#000000" stroke-width="21.5336" stroke-miterlimit="10" d="M185.946,83.404
			c10.886-35.553,46.596-61.677,88.965-61.677c42.604,0,78.492,26.337,89.143,62.186"/>
	</g>
</g>
<g id="tech-directory" display="none">
	<path display="inline" fill="#010101" d="M536.679,445.964V150.221c0-8.484-0.573-15.364-8.126-15.364h-39
		c-9.39-0.301-19.664-9.444-21.139-15.457c-0.745-8.642-8.732-15.364-19.503-15.364H310.757c-10.77,0-19.503,6.879-19.503,15.364
		c-0.314,8.995-16.807,15.786-25.876,15.457H32.826c-10.771,0-19.505,6.88-19.505,15.364v295.743H536.679z"/>
</g>
<g id="tech-mobile-player" display="none">
	<g display="inline">
		<path d="M323.11,385.438c0,26.568-21.537,48.109-48.109,48.109c-26.574,0-48.111-21.541-48.111-48.109s21.537-48.11,48.111-48.11
			C301.573,337.328,323.11,358.87,323.11,385.438z"/>
		<path d="M427.563,9.283H122.437c-17.2,0-31.143,13.943-31.143,31.143v469.152c0,17.2,13.943,31.139,31.143,31.139h305.126
			c17.199,0,31.143-13.938,31.143-31.139V40.426C458.706,23.227,444.763,9.283,427.563,9.283z M275.001,503.538
			c-65.226,0-118.101-52.875-118.101-118.1c0-65.226,52.875-118.101,118.101-118.101c65.225,0,118.1,52.875,118.1,118.101
			C393.101,450.663,340.226,503.538,275.001,503.538z M430.274,194.649c0,17.2-13.943,31.143-31.143,31.143H150.868
			c-17.2,0-31.143-13.943-31.143-31.143V66.669c0-17.2,13.943-31.143,31.143-31.143h248.264c17.199,0,31.143,13.943,31.143,31.143
			V194.649z"/>
	</g>
</g>
<g id="tech-remote-key" display="none">
	<g display="inline">
		<path d="M373.14,228.016c0,0-33.422-28.941-95.805-27.344c-62.362,1.598-95.782,27.344-95.782,27.344l54.665,144.798h15.776
			v48.543h30.495v33.805h-30.495v30.043h30.495v16.902h-30.495v31.867h50.704v-161.16h15.777L373.14,228.016z M239.481,234.723
			h84.641v42.354h-84.641V234.723z"/>
		<path fill="none" stroke="#000000" stroke-width="23.0452" stroke-miterlimit="10" d="M194.483,159.736
			c9.834-35.198,42.14-61.056,80.444-61.056c38.482,0,70.959,26.06,80.568,61.551"/>
		<path fill="none" stroke="#000000" stroke-width="23.0452" stroke-miterlimit="10" d="M148.865,117.719
			c15.405-55.16,65.984-95.692,126.017-95.692c60.314,0,111.176,40.847,126.254,96.479"/>
	</g>
</g>
<g id="health-diagnostic" display="none">
	<polyline display="inline" fill="none" stroke="#000000" stroke-width="17.7217" stroke-miterlimit="10" points="16.951,317.378 
		82.427,317.378 119.023,248.037 161.39,317.378 209.536,317.378 275.023,93.987 313.512,456.013 340.464,340.476 371.292,394.402 
		390.537,288.487 533.049,288.487 	"/>
</g>
<g id="tech-bluetooth" display="none">
	<polyline display="inline" fill="none" stroke="#000000" stroke-width="21.5473" stroke-miterlimit="10" points="145.75,155.246 
		403.308,391.733 272.201,511.142 272.201,40.495 398.622,169.274 145.75,403.432 	"/>
</g>
<g id="tech-under-construction-1" display="none">
	<g display="inline">
		<polygon points="128.083,317.75 418.678,317.75 376.875,210.213 168.579,210.213 		"/>
		<path d="M352.455,147.404l-35.516-91.362c0,0-13.242-40.761-43.236-40.761c-30.014,0-47.077,40.761-47.077,40.761l-34.394,91.362
			H352.455z"/>
		<path d="M527.642,434.797h-63.453L443.1,380.561H104.441l-20.424,54.236H22.358c-5.272,0-9.527,3.427-9.527,7.66v84.614
			c0,4.225,4.255,7.648,9.527,7.648h505.283c5.272,0,9.527-3.424,9.527-7.648v-84.614
			C537.169,438.224,532.914,434.797,527.642,434.797z"/>
	</g>
</g>
<g id="tech-under-construction-2" display="none">
	<g display="inline">
		<polygon points="159.445,290.76 225.29,290.76 164.892,184.087 99.049,184.087 		"/>
		<polygon points="278.449,184.087 212.605,184.087 273.003,290.76 338.847,290.76 		"/>
		<polygon points="385.142,184.087 326.166,184.087 386.562,290.76 445.531,290.76 		"/>
		<polygon points="51.333,184.087 18.054,184.087 18.054,290.76 111.73,290.76 		"/>
		<polygon points="493.243,290.76 530.778,290.76 530.778,184.087 432.846,184.087 		"/>
	</g>
	<g display="inline">
		<polygon points="483.979,462.813 530.778,462.813 530.778,356.144 423.581,356.144 		"/>
		<polygon points="262.31,356.144 196.465,356.144 256.864,462.813 322.705,462.813 		"/>
		<polygon points="209.15,462.813 148.749,356.144 82.918,356.144 143.306,462.813 		"/>
		<polygon points="35.192,356.144 18.054,356.144 18.054,462.813 95.58,462.813 		"/>
		<polygon points="375.866,356.144 310.022,356.144 370.421,462.813 436.266,462.813 		"/>
	</g>
	<rect x="45.576" y="480.025" display="inline" width="103.233" height="58.498"/>
	<rect x="403.458" y="480.025" display="inline" width="103.234" height="58.498"/>
	<rect x="45.576" y="312.907" display="inline" width="103.233" height="24.519"/>
	<rect x="403.458" y="312.907" display="inline" width="103.234" height="24.519"/>
	<path display="inline" d="M141.935,8.061c-47.513,0-86.015,38.517-86.015,86.025s38.501,86.025,86.015,86.025
		c47.515,0,86.015-38.517,86.015-86.025S189.45,8.061,141.935,8.061z M141.935,161.41c-37.179,0-67.324-30.144-67.324-67.324
		c0-37.181,30.145-67.324,67.324-67.324c37.183,0,67.324,30.143,67.324,67.324C209.259,131.267,179.117,161.41,141.935,161.41z"/>
	<path display="inline" d="M190.104,94.086c0,26.605-21.563,48.176-48.17,48.176c-26.604,0-48.169-21.571-48.169-48.176
		s21.565-48.175,48.169-48.175C168.541,45.911,190.104,67.481,190.104,94.086z"/>
</g>
<g id="tech-performance" display="none">
	<g display="inline">
		<path d="M418.804,173.038l-129.347,77.406c-4.731-2.154-9.985-3.361-15.524-3.361c-20.742,0-37.558,16.814-37.558,37.558
			c0,20.745,16.816,37.56,37.558,37.56c20.745,0,37.56-16.814,37.56-37.56c0-1.062-0.055-2.113-0.144-3.155L418.804,173.038z"/>
		<path d="M417.148,266.181l-38.01,8.203c0.378,3.802,0.604,7.645,0.604,11.545c0,1.09-0.063,2.163-0.094,3.244l38.601,0.715
			c0.075-1.849,0.123-3.703,0.123-5.568C418.373,278.166,417.942,272.118,417.148,266.181z M377.069,310.525l36.727,8.792
			c1.83-6.853,3.141-13.912,3.875-21.138l-38.532-0.714C378.699,301.897,377.988,306.25,377.069,310.525z M278.333,146.425
			c-67.665,0-124.121,47.256-137.189,110.081l8.257,11.128c8.774-55.311,56.666-97.601,114.446-97.601
			c31.141,0,59.39,12.305,80.213,32.29l31.204-17.476C350.101,161.068,315.964,146.425,278.333,146.425z M378.049,266.13
			l37.746-8.149c-3.431-17.402-10.174-33.637-19.568-48.044l-27.698,26.223C372.99,245.526,376.229,255.585,378.049,266.13z
			 M368.395,335.996l31.261,17.164c4.772-8.14,8.729-16.803,11.758-25.879l-36.373-8.708
			C373.282,324.598,371.067,330.426,368.395,335.996z"/>
		<path d="M275,13.167C130.395,13.167,13.167,130.394,13.167,275c0,144.605,117.228,261.833,261.833,261.833
			S536.833,419.605,536.833,275C536.833,130.394,419.605,13.167,275,13.167z M275,500.003
			C150.735,500.003,49.997,399.265,49.997,275C49.997,150.734,150.735,49.997,275,49.997c124.266,0,225.003,100.737,225.003,225.003
			C500.003,399.265,399.266,500.003,275,500.003z"/>
		<rect x="267.622" y="37.314" width="14.759" height="58.445"/>
		<rect x="269.927" y="447.61" transform="matrix(1 0.0048 -0.0048 1 2.2745 -1.3155)" width="14.761" height="58.446"/>
		<rect x="474.004" y="240.638" transform="matrix(-0.0031 -1 1 -0.0031 213.0223 752.0806)" width="14.759" height="58.445"/>
		<rect x="63.716" y="244.18" transform="matrix(-0.0018 1 -1 -0.0018 344.622 202.7854)" width="14.761" height="58.444"/>
		
			<rect x="373.109" y="65.778" transform="matrix(-0.8582 -0.5133 0.5133 -0.8582 658.2773 371.8191)" width="14.758" height="58.443"/>
		
			<rect x="164.479" y="419.081" transform="matrix(0.8557 0.5174 -0.5174 0.8557 256.7502 -24.2484)" width="14.761" height="58.445"/>
		
			<rect x="444.564" y="136.571" transform="matrix(-0.5111 -0.8595 0.8595 -0.5111 540.4186 638.9879)" width="14.761" height="58.444"/>
		<rect x="93.08" y="348.25" transform="matrix(0.507 0.862 -0.862 0.507 374.9005 99.5143)" width="14.762" height="58.445"/>
		
			<rect x="444.784" y="347.798" transform="matrix(0.5184 -0.8552 0.8552 0.5184 -104.6357 568.2549)" width="14.762" height="58.445"/>
		
			<rect x="92.774" y="136.999" transform="matrix(-0.5227 0.8525 -0.8525 -0.5227 294.2123 167.732)" width="14.761" height="58.446"/>
		<polygon points="402.079,469.517 389.348,476.984 359.789,426.567 372.519,419.101 		"/>
		
			<rect x="164.042" y="66.039" transform="matrix(-0.8651 0.5016 -0.5016 -0.8651 367.5036 91.6802)" width="14.762" height="58.444"/>
	</g>
</g>
<g id="tech-svg" display="none">
	<g display="inline">
		<path fill="none" stroke="#000000" stroke-width="20.8089" d="M33.652,509.516c0,0,1.007-228.625,240.71-227.616
			c239.701,1.006,239.701-242.724,239.701-242.724"/>
		<line fill="none" stroke="#000000" stroke-width="20.8089" x1="36.674" y1="281.697" x2="514.063" y2="281.697"/>
		<path fill="#FFFFFF" stroke="#000000" stroke-width="20.8089" d="M313.634,300.676c0,12.263-9.939,22.204-22.205,22.204h-31.918
			c-12.265,0-22.206-9.941-22.206-22.204V264.13c0-12.264,9.941-22.205,22.206-22.205h31.918c12.266,0,22.205,9.941,22.205,22.205
			V300.676z"/>
		<circle cx="36.673" cy="281.697" r="27.526"/>
		<circle cx="513.327" cy="281.697" r="27.526"/>
		<path d="M537.286,52.36c0,7.43-6.023,13.452-13.453,13.452h-19.336c-7.43,0-13.453-6.022-13.453-13.452v-22.14
			c0-7.429,6.023-13.452,13.453-13.452h19.336c7.43,0,13.453,6.023,13.453,13.452V52.36z"/>
		<path d="M56.991,519.779c0,7.43-6.022,13.452-13.452,13.452H24.202c-7.43,0-13.453-6.022-13.453-13.452v-22.14
			c0-7.429,6.023-13.453,13.453-13.453h19.337c7.43,0,13.452,6.024,13.452,13.453V519.779z"/>
	</g>
</g>
<g id="tech-clipboard" display="none">
	<g display="inline">
		<g>
			<circle fill="none" stroke="#000000" stroke-width="17.0409" cx="276.064" cy="47.365" r="29.821"/>
			<path fill="none" stroke="#000000" stroke-width="17.0409" d="M442.214,502.356c0,16.622-13.145,30.1-29.363,30.1h-275.7
				c-16.218,0-29.365-13.478-29.365-30.1V124.689c0-16.623,13.147-30.097,29.365-30.097h275.7c16.219,0,29.363,13.474,29.363,30.097
				V502.356z"/>
			<path fill="#FFFFFF" stroke="#000000" stroke-width="11.9286" d="M347.583,73.353h-10.844V63.119
				c0-3.759-3.457-6.808-7.727-6.808H225.246c-4.268,0-7.726,3.049-7.726,6.808v10.233h-10.843c-5.793,0-10.491,4.944-10.491,11.043
				v55.664c0,6.098,4.698,11.042,10.491,11.042h140.906c5.795,0,10.49-4.944,10.49-11.042V84.396
				C358.073,78.297,353.378,73.353,347.583,73.353z"/>
		</g>
		<rect x="132.22" y="163.851" fill="#FFFFFF" stroke="#000000" stroke-width="5.5269" width="285.56" height="351.191"/>
	</g>
</g>
<g id="art-illustration" display="none">
	<g display="inline">
		<polygon fill="none" stroke="#000000" stroke-width="6.4753" points="274.662,30.152 143.471,282.082 211.259,383.26 
			211.259,434.859 340.764,434.859 340.764,381.236 406.529,282.285 		"/>
		<polygon points="387.811,417.659 162.188,417.659 162.188,447.001 192.541,447.001 192.541,540.083 357.459,540.083 
			357.459,447.001 387.811,447.001 		"/>
		<polygon points="285.623,258.812 285.623,9.917 264.377,9.917 264.377,258.812 254.259,258.812 254.259,296.247 295.74,296.247 
			295.74,258.812 		"/>
	</g>
</g>
<g id="art-camera" display="none">
	<g display="inline">
		<path d="M383.89,110.538c0.021-0.665,0.151-1.303,0.151-1.98v-6.953c0-28.194-17.145-51.044-38.29-51.044H204.249
			c-21.146,0-38.291,22.85-38.291,51.044v6.953c0,0.678,0.133,1.315,0.153,1.98H9.667v388.901h530.666V110.538H383.89z
			 M141.434,399.33c0,28.195-22.856,51.045-51.052,51.045h-6.931c-28.196,0-51.053-22.85-51.053-51.045V197.934
			c0-28.194,22.856-51.044,51.053-51.044h6.931c28.195,0,51.052,22.85,51.052,51.044V399.33z M351.511,430.391
			c-68.25,0-123.58-55.325-123.58-123.581c0-68.259,55.33-123.583,123.58-123.583c68.253,0,123.583,55.324,123.583,123.583
			C475.094,375.065,419.764,430.391,351.511,430.391z"/>
		<path fill="none" stroke="#FFFFFF" stroke-width="28.3613" d="M475.094,306.81c0,68.256-55.33,123.581-123.583,123.581
			c-68.25,0-123.58-55.325-123.58-123.581c0-68.259,55.33-123.583,123.58-123.583C419.764,183.227,475.094,238.551,475.094,306.81z"
			/>
	</g>
</g>
<g id="tech-audio" display="none">
	<g display="inline">
		<g>
			<path d="M139.497,295.69c-6.881-1.355-13.98-2.102-21.258-2.102c-60.17,0-108.944,48.773-108.944,108.943
				c0,60.172,48.774,108.945,108.944,108.945c7.278,0,14.377-0.746,21.258-2.104V295.69z"/>
			<path d="M410.503,295.69c6.881-1.355,13.98-2.102,21.258-2.102c60.17,0,108.945,48.773,108.945,108.943
				c0,60.172-48.775,108.945-108.945,108.945c-7.277,0-14.377-0.746-21.258-2.104V295.69z"/>
		</g>
		<path d="M110.272,282.97V125.097c0-26.762,25.694-48.447,57.391-48.447h214.675c31.697,0,57.391,21.685,57.391,48.447V282.97
			h25.118V94.35c0-30.841-29.61-55.827-66.14-55.827H151.294c-36.53,0-66.141,24.986-66.141,55.827v188.62H110.272z"/>
	</g>
</g>
<g id="tech-chat" display="none">
	<g display="inline">
		<path d="M497.714,266.895c27.532-25.113,44.119-57.388,44.119-92.617c0-80.032-85.447-144.905-190.847-144.905
			S160.14,94.245,160.14,174.277c0,80.026,85.447,144.905,190.847,144.905c21.795,0,42.658-2.909,62.172-8.019
			c45.123,24.306,121.607,64.562,121.607,64.562L497.714,266.895z"/>
		<path fill="#FFFFFF" stroke="#000000" stroke-width="10.6026" stroke-miterlimit="10" d="M52.286,411.796
			c-27.532-25.114-44.119-57.389-44.119-92.618c0-80.032,85.447-144.906,190.847-144.906S389.86,239.146,389.86,319.178
			c0,80.028-85.447,144.906-190.847,144.906c-21.795,0-42.659-2.911-62.171-8.02C91.719,480.37,15.233,520.628,15.233,520.628
			L52.286,411.796z"/>
	</g>
</g>
<g id="tech-storage" display="none">
	<g display="inline">
		<path fill="#FFFFFF" stroke="#000000" stroke-width="23.1081" stroke-miterlimit="10" d="M467.062,78.327
			c0-31.79-85.904-57.561-191.877-57.561c-105.973,0-191.878,25.771-191.878,57.561c0,1.072,0.005,3.197,0.005,3.197v390.079
			c0,0.021-0.005,0.045-0.005,0.066c0,31.791,85.905,57.563,191.878,57.563c105.973,0,191.877-25.772,191.877-57.563V81.524
			C467.062,81.524,467.062,79.399,467.062,78.327z"/>
		
			<ellipse fill="none" stroke="#000000" stroke-width="23.1081" stroke-miterlimit="10" cx="275.184" cy="78.327" rx="191.878" ry="57.562"/>
		<path fill="none" stroke="#000000" stroke-width="23.1081" stroke-miterlimit="10" d="M466.694,219.589
			c0,31.791-85.906,57.562-191.879,57.562c-105.971,0-191.876-25.771-191.876-57.562"/>
		<path fill="none" stroke="#000000" stroke-width="23.1081" stroke-miterlimit="10" d="M466.694,345.331
			c0,31.792-85.906,57.562-191.879,57.562c-105.971,0-191.876-25.77-191.876-57.562"/>
	</g>
</g>
<g id="tech-wireless" display="none">
	<g display="inline">
		<path fill="none" stroke="#000000" stroke-width="14.0408" stroke-miterlimit="10" d="M257.214,186.867h35.574
			c0,0,0,170.452,117.093,346.835h-54.842l-38.537-80.04h-77.075l-40.019,83.005h-57.807
			C141.602,536.667,249.803,364.73,257.214,186.867z"/>
		<polyline fill="none" stroke="#000000" stroke-width="14.0408" stroke-miterlimit="10" points="294.27,244.673 252.768,280.245 
			310.574,331.381 224.772,373.004 402.476,527.306 		"/>
		
			<line fill="none" stroke="#000000" stroke-width="14.0408" stroke-miterlimit="10" x1="163.836" y1="496.646" x2="273.519" y2="415.125"/>
		
			<line fill="none" stroke="#000000" stroke-width="11.8577" stroke-miterlimit="10" x1="273.519" y1="185.385" x2="273.519" y2="121.649"/>
		<path d="M301.679,117.202c0,15.553-12.605,28.163-28.16,28.163s-28.162-12.61-28.162-28.163c0-15.551,12.607-28.162,28.162-28.162
			S301.679,101.651,301.679,117.202z"/>
		<path fill="none" stroke="#000000" stroke-width="14.0408" stroke-miterlimit="10" d="M169.877,13.333"/>
		<path fill="none" stroke="#000000" stroke-width="14.0408" stroke-miterlimit="10" d="M205.27,195.219
			c-21.721-19.021-35.506-46.879-35.506-78.017c0-27.629,10.873-52.67,28.48-71.265"/>
		<path fill="none" stroke="#000000" stroke-width="14.0408" stroke-miterlimit="10" d="M205.27,195.219"/>
		<path fill="none" stroke="#000000" stroke-width="14.0408" stroke-miterlimit="10" d="M169.877,13.333
			c-26.622,26.563-43.098,63.294-43.098,103.869c0,44.078,19.466,83.589,50.235,110.489"/>
		<path fill="none" stroke="#000000" stroke-width="14.0408" stroke-miterlimit="10" d="M198.244,45.938"/>
		<path fill="none" stroke="#000000" stroke-width="14.0408" stroke-miterlimit="10" d="M229.57,167.287
			c-13.919-12.225-22.751-30.104-22.751-50.085c0-16.466,5.998-31.514,15.89-43.151"/>
		<path fill="none" stroke="#000000" stroke-width="14.0408" stroke-miterlimit="10" d="M229.57,167.287"/>
		<path fill="none" stroke="#000000" stroke-width="14.0408" stroke-miterlimit="10" d="M205.51,194.94"/>
		<path fill="none" stroke="#000000" stroke-width="14.0408" stroke-miterlimit="10" d="M198.244,45.938
			c-17.607,18.595-28.48,43.636-28.48,71.265"/>
		<path fill="none" stroke="#000000" stroke-width="14.0408" stroke-miterlimit="10" d="M380.124,13.333"/>
		<path fill="none" stroke="#000000" stroke-width="14.0408" stroke-miterlimit="10" d="M344.729,195.219
			c21.722-19.021,35.508-46.879,35.508-78.017c0-27.629-10.874-52.67-28.48-71.265"/>
		<path fill="none" stroke="#000000" stroke-width="14.0408" stroke-miterlimit="10" d="M344.729,195.219"/>
		<path fill="none" stroke="#000000" stroke-width="14.0408" stroke-miterlimit="10" d="M380.124,13.333
			c26.622,26.563,43.097,63.294,43.097,103.869c0,44.078-19.466,83.589-50.236,110.489"/>
		<path fill="none" stroke="#000000" stroke-width="14.0408" stroke-miterlimit="10" d="M351.757,45.938"/>
		<path fill="none" stroke="#000000" stroke-width="14.0408" stroke-miterlimit="10" d="M320.431,167.287
			c13.92-12.225,22.751-30.104,22.751-50.085c0-16.466-5.998-31.514-15.889-43.151"/>
		<path fill="none" stroke="#000000" stroke-width="14.0408" stroke-miterlimit="10" d="M320.431,167.287"/>
		<path fill="none" stroke="#000000" stroke-width="14.0408" stroke-miterlimit="10" d="M344.488,194.94"/>
		<path fill="none" stroke="#000000" stroke-width="14.0408" stroke-miterlimit="10" d="M351.757,45.938
			c17.606,18.595,28.48,43.636,28.48,71.265"/>
	</g>
</g>
<g id="location-compass" display="none">
	<g display="inline">
		<path d="M485.409,115.553c27.465-0.66,49.529-23.115,49.529-50.738c0-28.039-22.73-50.77-50.77-50.77
			c-27.701,0-50.205,22.189-50.743,49.762C389.297,30.652,334.445,11,275,11C129.197,11,11,129.197,11,275
			c0,145.803,118.197,264,264,264c145.803,0,264-118.197,264-264C539,215.093,519.033,159.856,485.409,115.553z M450.865,64.815
			c0-18.394,14.91-33.305,33.304-33.305c18.395,0,33.305,14.911,33.305,33.305s-14.91,33.304-33.305,33.304
			c-6.738,0-13.006-2.008-18.249-5.449c-3.087-3.232-6.261-6.381-9.507-9.453C452.909,77.944,450.865,71.62,450.865,64.815z
			 M275,486.2c-116.643,0-211.2-94.558-211.2-211.2S158.357,63.8,275,63.8S486.2,158.357,486.2,275S391.643,486.2,275,486.2z"/>
		<g>
			<polygon fill="#FFFFFF" stroke="#000000" stroke-width="9.1385" stroke-miterlimit="10" points="232.354,240.477 
				305.462,313.585 179.554,366.385 			"/>
			<polygon stroke="#000000" stroke-width="9.1385" stroke-miterlimit="10" points="311.408,307.36 238.485,234.069 
				364.525,181.587 			"/>
		</g>
	</g>
</g>
<g id="tech-notification" display="none">
	<g display="inline">
		<path d="M205.338,470.756c0-41.253,28.799-70.831,70.053-70.831c41.251,0,68.494,29.578,69.271,70.831
			c0,40.474-27.24,70.83-69.271,70.83S205.338,511.229,205.338,470.756z M231.022,361.008L213.121,8.414h123.758l-17.122,352.594
			H231.022z"/>
	</g>
</g>
<g id="tech-architect" display="none">
	<g display="inline">
		<path d="M216.013,97.643c-44.457,0-80.498,36.039-80.498,80.495c0,44.457,36.041,80.498,80.498,80.498
			s80.495-36.041,80.495-80.498C296.508,133.682,260.47,97.643,216.013,97.643z M213.95,223.55
			c-25.082,0-45.412-20.329-45.412-45.412c0-25.082,20.33-45.412,45.412-45.412c25.083,0,45.412,20.33,45.412,45.412
			C259.362,203.222,239.033,223.55,213.95,223.55z"/>
		<path d="M243.876,33.66c0,0-9.173-24.17-28.68-24.768c-19.508-0.599-27.049,24.768-27.049,24.768v49.537h55.729V33.66z"/>
		<path d="M88.888,510.761c0,0-16.078-0.12-40.412,25.941c3.345-35.996-5.992-47.928-5.992-47.928l109.74-231.717l46.397,21.986
			L88.888,510.761z"/>
		<path d="M362.134,418.867l32.952,68.588c0,0-10.207,12.421-5.272,47.734c-25.881-25.25-41.022-25.505-41.022-25.505
			l-24.836-52.521L362.134,418.867z"/>
		<polygon points="271.98,349.939 237.77,278.578 284.063,256.356 311.694,313.872 		"/>
		<polygon points="438.298,210.788 463.988,236.453 455.341,245.112 429.648,219.447 412.495,236.616 438.187,262.286 
			429.539,270.939 403.848,245.27 386.693,262.444 412.38,288.108 403.735,296.767 378.044,271.099 360.891,288.267 
			386.582,313.932 377.938,322.595 352.242,296.925 335.086,314.095 360.78,339.759 352.131,348.411 326.439,322.749 
			309.29,339.917 334.982,365.586 326.334,374.245 300.638,348.572 283.483,365.747 309.181,391.409 300.525,400.068 
			274.833,374.404 257.686,391.573 283.371,417.244 274.724,425.902 249.032,400.232 231.878,417.4 257.574,443.065 248.926,451.72 
			223.229,426.058 206.075,443.227 231.767,468.894 223.118,477.55 197.433,451.878 180.272,469.054 205.965,494.719 
			197.316,503.375 171.624,477.712 160.812,488.531 213.451,541.118 507.517,246.785 454.877,194.198 		"/>
	</g>
</g>
<g id="profession-librarian" display="none">
	<g display="inline">
		<path d="M8.719,18.836v514.211h87.579V18.836H8.719z M89.417,115.474c0,3.979-3.227,7.205-7.207,7.205H22.807
			c-3.98,0-7.207-3.226-7.207-7.205V79.841c0-3.979,3.227-7.207,7.207-7.207h59.402c3.98,0,7.207,3.228,7.207,7.207V115.474z"/>
		<path d="M110.06,18.836v514.211h87.579V18.836H110.06z M190.757,115.474c0,3.979-3.227,7.205-7.206,7.205h-59.403
			c-3.98,0-7.207-3.226-7.207-7.205V79.841c0-3.979,3.227-7.207,7.207-7.207h59.403c3.979,0,7.206,3.228,7.206,7.207V115.474z"/>
		<path d="M211.401,18.836v514.211h87.579V18.836H211.401z M292.099,115.474c0,3.979-3.227,7.205-7.207,7.205h-59.403
			c-3.98,0-7.207-3.226-7.207-7.205V79.841c0-3.979,3.227-7.207,7.207-7.207h59.403c3.98,0,7.207,3.228,7.207,7.207V115.474z"/>
		<path d="M299.577,43.882L457.96,533.094l83.32-26.975L382.897,16.906L299.577,43.882z M406.116,110.966
			c1.227,3.786-0.848,7.849-4.637,9.074l-56.516,18.297c-3.787,1.227-7.848-0.848-9.074-4.636l-10.975-33.899
			c-1.227-3.787,0.848-7.852,4.635-9.077l56.518-18.297c3.785-1.227,7.85,0.851,9.074,4.638L406.116,110.966z"/>
	</g>
</g>
<g id="grunt" display="none">
	<g display="inline">
		<path fill="none" stroke="#000000" stroke-width="14.8449" stroke-miterlimit="10" d="M191.975,408.933
			c0,0-59.787,4.041-85.641-50.899c0,0-46.05,101.798,74.331,113.109l-4.75-31.598L191.975,408.933z"/>
		<path fill="none" stroke="#000000" stroke-width="14.8449" stroke-miterlimit="10" d="M351.974,408.933
			c0,0,59.786,4.041,85.643-50.899c0,0,46.049,101.798-74.332,113.109l4.753-31.598L351.974,408.933z"/>
		<path fill="none" stroke="#000000" stroke-width="14.8449" stroke-miterlimit="10" d="M272.771,417.01
			c0,0,87.254-3.229,94.526,18.582c6.974,20.922-12.685,103.701-101.259,102.712c-82.406-0.919-90.458-96.95-90.221-97.863
			C183.088,412.971,272.771,417.01,272.771,417.01z"/>
		<path d="M225.165,325.673l-46.174,103.431l19.393-7.388C198.383,421.716,221.471,362.611,225.165,325.673z"/>
		<path d="M320.086,325.673l46.174,103.431l-19.392-7.388C346.868,421.716,323.78,362.611,320.086,325.673z"/>
		<path fill="none" stroke="#000000" stroke-width="14.8449" stroke-miterlimit="10" d="M92.182,56.014
			c0,0,68.341-43.402,112.667,26.782c0,0-32.324,23.085-44.329,37.862l-28.627-7.389c0,0,5.542-36.938-9.235-44.326
			C107.881,61.557,92.182,56.014,92.182,56.014z"/>
		<path d="M128.199,72.638c0,0,27.702-9.235,40.632,29.551l13.853-10.158c0,0-23.086-46.173-64.644-29.551L128.199,72.638z"/>
		<path fill="none" stroke="#000000" stroke-width="14.8449" stroke-miterlimit="10" d="M457.881,56.014
			c0,0-68.34-43.402-112.666,26.782c0,0,32.323,23.085,44.329,37.862l28.626-7.389c0,0-5.54-36.938,9.237-44.326
			C442.184,61.557,457.881,56.014,457.881,56.014z"/>
		<path d="M421.864,72.638c0,0-27.701-9.235-40.633,29.551L367.379,92.03c0,0,23.087-46.173,64.645-29.551L421.864,72.638z"/>
		<path d="M133.161,465.771c0,0,34.741,59.653,75.385,54.407l-10.487-15.731c0,0-27.533-3.278-41.955-34.744L133.161,465.771z"/>
		<path d="M413.11,465.771c0,0-34.74,59.653-75.385,54.407l10.488-15.731c0,0,27.532-3.278,41.954-34.744L413.11,465.771z"/>
		<path d="M245.91,190.451c0,0,25.567,34.087,54.411-0.655C300.32,189.796,266.887,203.561,245.91,190.451z"/>
		<path d="M232.802,172.096c0,0-64.244-50.474-102.919-49.163c0,0-47.852-8.521-17.043,39.331c0,0,14.422,45.884-7.866,64.24
			c0,0-25.567,14.422,2.621,40.645c0,0,41.297,17.042,43.92,37.364c2.622,20.321-1.311,98.327-1.311,98.327l-15.077-9.176
			c0,0,9.178-72.764,0-87.842c-9.178-15.076-30.155-20.977-39.332-28.842c-9.177-7.867-22.215-29.917-16.388-47.197
			c0,0,13.358-13.622,19.666-21.633c5.806-7.373,3.933-34.743,0.655-39.332s-16.387-34.088-8.521-47.854
			c7.866-13.765,45.229-19.665,76.04-4.588C198.058,131.454,221.659,153.742,232.802,172.096z"/>
		<path d="M317.198,172.096c0,0,64.242-50.474,102.92-49.163c0,0,47.852-8.521,17.044,39.331c0,0-14.422,45.884,7.862,64.24
			c0,0,25.567,14.422-2.621,40.645c0,0-41.297,17.042-43.921,37.364c-2.62,20.321,1.312,98.327,1.312,98.327l15.076-9.176
			c0,0-9.176-72.764,0-87.842c9.18-15.076,30.157-20.977,39.334-28.842c9.176-7.867,22.215-29.917,16.388-47.197
			c0,0-13.357-13.622-19.664-21.633c-5.808-7.373-3.936-34.743-0.655-39.332c3.275-4.589,16.388-34.088,8.518-47.854
			c-7.862-13.765-45.228-19.665-76.039-4.588C351.942,131.454,328.341,153.742,317.198,172.096z"/>
		<path d="M153.132,116.041c0,0,35.092-36.016,65.567-38.786c0,0,1.848-38.787,28.629-52.639c0,0-0.925,21.238,6.462,30.475
			c0,0,5.544-25.857,42.483-43.403c0,0-10.159,17.545,2.769,39.709c0,0,21.24-18.469,34.17-17.546c0,0-16.623,32.323-9.235,41.558
			c0,0,60.951,18.468,67.415,43.402l-13.854,5.541c0,0-31.398-38.785-96.965-37.862c-65.568,0.924-98.814,23.086-111.742,36.938
			L153.132,116.041z"/>
		<path d="M235.605,236.084c-8.536-0.371-30.803-24.124-48.617-37.113c-17.814-12.989-55.669-7.794-55.669-7.794
			c6.681,0,12.248,5.938,12.248,5.938c-13.36,12.247,0,31.175,0,31.175c-1.485-7.052,3.711-17.072,3.711-17.072
			s-5.567,25.236,21.525,41.565c27.092,16.33,48.617,0,48.617,0c6.68,14.475,0.371,33.773,0.371,33.773
			c11.876-8.536,14.103-33.773,14.103-33.773c21.896,1.856,21.525-19.298,21.525-19.298S244.142,236.454,235.605,236.084z
			 M178.081,246.104c-14.844-8.907-11.875-35.999-10.391-39.339c0,0,37.854,21.896,46.02,38.226
			C213.709,244.99,192.926,255.011,178.081,246.104z"/>
		<path d="M293.501,233.485c0,0-0.371,21.154,21.525,19.298c0,0,2.227,25.237,14.103,33.773c0,0-6.309-19.299,0.371-33.773
			c0,0,21.525,16.33,48.618,0c27.092-16.329,21.524-41.565,21.524-41.565s5.196,10.021,3.711,17.072c0,0,13.361-18.928,0-31.175
			c0,0,5.568-5.938,12.248-5.938c0,0-37.854-5.195-55.669,7.794c-17.813,12.989-40.082,36.742-48.617,37.113
			C302.779,236.454,293.501,233.485,293.501,233.485z M333.212,244.99c8.165-16.329,46.02-38.226,46.02-38.226
			c1.484,3.34,4.453,30.432-10.392,39.339C353.994,255.011,333.212,244.99,333.212,244.99z"/>
	</g>
</g>
<g id="tech-touch" display="none">
	<g display="inline">
		<path d="M112.959,475.038c0,0,187.491,63.433,319.012-92.344c0,0,15.859-18.653,11.193-30.783
			c-4.664-12.125-14.926-6.528-24.254,4.665c-9.327,11.194-97.942,141.782-286.363,111.935
			C132.547,468.511,86.841,461.979,112.959,475.038z"/>
		<path d="M139.077,518.879c0,0,60.63,26.116,101.673,19.587c41.042-6.526-4.664-16.787-4.664-16.787l-89.546-9.328
			C146.54,512.351,117.623,510.484,139.077,518.879z"/>
		<path d="M331.229,516.08c0,0-2.8,12.129-7.462,19.592c0,0,74.628-5.597,110.07-30.781c0,0,23.32-15.856,0-11.193
			C410.516,498.358,344.285,517.012,331.229,516.08z"/>
		<path d="M324.701,486.233c0,0,109.134-14.924,130.587-93.278c0,0,5.598-21.453,16.793-20.521
			c11.193,0.933,12.125,25.187,7.461,34.514c-4.662,9.326-55.965,91.407-152.043,88.611
			C327.499,495.559,288.319,496.492,324.701,486.233z"/>
		<path d="M131.615,103.794c0,0,90.483-75.557,168.835-59.699c78.352,15.857,132.453,40.109,151.108,71.823
			c0,0,15.856,23.321,21.455,24.254s1.869-13.06-5.596-27.051S403.056,8.649,295.784,10.515
			c-107.269,1.867-168.832,79.288-168.832,79.288S111.094,124.314,131.615,103.794z"/>
		<path d="M120.424,442.393c0,0,143.649,8.396,211.74-39.178c68.093-47.571,66.227-93.277,66.227-93.277
			s0.933-76.488-57.832-103.539c-58.765-27.05-110.066-17.723-133.387,9.328c-23.32,27.051-69.026,83.016-83.018,85.815
			c-13.991,2.799-45.706,6.529-45.706,6.529s-29.851,0.934-1.866,10.261c27.983,9.325,56.899,0,66.227-3.731
			c9.328-3.73,57.833-57.832,84.884-71.823c27.052-13.991,91.259-22.018,115.666,10.261c28.915,38.242,37.31,79.285,9.327,101.671
			c-27.981,22.389-88.614,73.689-191.22,71.824c0,0-53.171,2.799-60.632,0.933c-7.461-1.865-25.187-4.66-10.26,3.734
			C105.5,439.595,120.424,442.393,120.424,442.393z"/>
		<path d="M89.642,358.442c0,0,53.167,6.531,69.025-1.866c15.857-8.395,12.127-17.722,12.127-17.722s-9.329-7.465-22.388-0.934
			c-13.058,6.528-41.976,8.395-55.967,8.395C78.448,346.315,65.39,346.317,89.642,358.442z"/>
		<path d="M105.5,401.351c0,0,101.672,10.26,166.034-28.917c64.36-39.178,59.701-66.229,53.171-80.219
			c-6.532-13.992-27.05-35.446-50.372-34.513c-23.32,0.933-58.767,18.654-69.959,40.109c0,0-1.864,2.798,7.463,9.328
			s13.991,7.462,20.521,2.799s20.52-25.185,35.445-19.588s29.845,39.178-12.127,62.494
			c-41.974,23.322-109.133,40.111-140.849,34.516C83.112,381.761,71.92,393.886,105.5,401.351z"/>
		<path d="M87.776,205.466c0,0,52.235-67.161,98.875-82.085C233.29,108.458,288.323,92.6,337.76,105.658
			c46.558,12.298,126.863,80.219,131.525,124.994c0,0,11.192,37.313,19.589,33.581c8.395-3.732,4.664-28.917,0-49.439
			c-4.666-20.521-55.037-117.53-138.986-131.521c-83.952-13.991-153.907,4.664-178.161,18.655
			c-24.254,13.991-71.823,53.169-97.009,95.145C49.531,239.047,71.919,224.121,87.776,205.466z"/>
		<path d="M98.969,270.761c0,0,37.31-21.456,49.437-35.446c12.127-13.992,72.76-73.691,115.666-76.488
			c42.907-2.797,100.742,6.531,118.461,33.581c17.724,27.05,57.837,123.127,74.624,133.387c16.79,10.26,34.514,16.791,30.783,4.664
			c-3.732-12.127-27.05-35.445-41.977-68.093c-14.926-32.648-32.644-94.211-80.219-112.867
			c-47.573-18.654-94.212-25.185-129.658-10.26c-35.445,14.925-91.412,51.303-102.605,70.892
			c-11.193,19.587-43.84,44.775-55.966,47.571c-12.127,2.798-29.851,18.654-16.791,20.521
			C73.784,280.088,98.969,270.761,98.969,270.761z"/>
	</g>
</g>
<g id="game-xbox" display="none">
	<g display="inline">
		<path d="M480.806,306.694c-11.781-103.06-76.562-133.495-104.042-134.472c-27.483-0.978-52.027,9.816-72.638,18.648
			c-14.433,6.187-40.383,8.518-54.663,9.363c-14.28-0.845-40.23-3.177-54.664-9.363c-20.609-8.833-45.154-19.626-72.636-18.648
			C94.682,173.2,29.901,203.635,18.121,306.694C6.34,409.755,11.248,464.725,55.418,469.632
			c44.171,4.907,82.456-25.521,94.232-50.061s38.464-65.238,51.039-72.637c16.689-9.815,82.451-11.775,97.547,0
			c11.505,8.977,39.262,48.098,51.036,72.637c11.778,24.539,50.063,54.968,94.233,50.061
			C487.679,464.725,492.585,409.755,480.806,306.694z M184.988,296.879h-32.395v32.391h-44.166v-32.391H76.033v-44.166h32.395v-32.4
			h44.166v32.4h32.395V296.879z M315.531,249.761c0-9.76,7.911-17.672,17.671-17.672c9.759,0,17.672,7.912,17.672,17.672
			c0,9.76-7.913,17.671-17.672,17.671C323.442,267.432,315.531,259.521,315.531,249.761z M360.689,316.511
			c-9.759,0-17.672-7.912-17.672-17.672s7.913-17.672,17.672-17.672s17.671,7.912,17.671,17.672S370.448,316.511,360.689,316.511z
			 M375.407,249.761c0-9.76,7.912-17.672,17.672-17.672s17.672,7.912,17.672,17.672c0,9.76-7.912,17.671-17.672,17.671
			S375.407,259.521,375.407,249.761z M420.565,316.511c-9.759,0-17.67-7.912-17.67-17.672s7.911-17.672,17.67-17.672
			c9.762,0,17.673,7.912,17.673,17.672S430.327,316.511,420.565,316.511z"/>
		<path d="M380.316,121.178v26.5c0,0,64.784,0.982,90.303,57.912l24.539-9.816C495.158,195.773,468.653,118.235,380.316,121.178z"/>
		<path d="M379.333,79.95v28.281c0,0,98.159-5.702,129.448,81.902l28.587-11.043C537.368,179.09,496.37,76.055,379.333,79.95z"/>
	</g>
</g>
<g id="game-wii" display="none">
	<g display="inline">
		<path d="M158.586,389.562l54.167,15.22c-5.167,13.893-13.475,39.251-17.53,44.488c-13.846,17.876-27.079,33.57-35.593,42.938
			c-8.514,9.377-16.003,40.212-16.003,40.212c4.913,20.206,19.934,4.426,19.934,4.426s9.501-25.576,13.859-32.578
			c9.654-15.525,23.825-30.368,36.206-45.125c6.079-7.247,15.786-34.888,20.311-48.411l53.103,14.92
			c8.789,2.471,17.893-2.561,20.33-11.229l98.396-350.24c2.438-8.673-2.716-17.706-11.505-20.175L265.807,7.917
			c-8.79-2.47-17.894,2.556-20.328,11.23l-98.4,350.241C144.641,378.061,149.796,387.094,158.586,389.562z M210.117,333.449
			c-8.433-2.367-13.346-11.12-10.979-19.552c2.372-8.432,11.125-13.345,19.556-10.978c8.433,2.369,13.348,11.123,10.977,19.553
			C227.301,330.906,218.547,335.821,210.117,333.449z M232.854,373.957c-8.429-2.369-13.344-11.123-10.975-19.554
			c2.368-8.433,11.121-13.346,19.554-10.979c8.431,2.37,13.346,11.125,10.977,19.556
			C250.043,371.412,241.287,376.323,232.854,373.957z M250.624,310.714c-8.432-2.372-13.348-11.123-10.979-19.553
			c2.37-8.436,11.125-13.35,19.556-10.98c8.433,2.369,13.345,11.126,10.977,19.554C267.808,308.169,259.055,313.082,250.624,310.714
			z M273.36,351.221c-8.432-2.37-13.345-11.123-10.979-19.559c2.372-8.429,11.125-13.345,19.557-10.974
			c8.432,2.369,13.346,11.122,10.977,19.556C290.545,348.674,281.792,353.587,273.36,351.221z M260.039,90.869
			c2.771-9.864,13.454-15.496,23.86-12.569l8.968,2.518l2.52-8.968c2.923-10.406,13.291-16.596,23.16-13.822l0.246,0.069
			c9.865,2.771,15.493,13.454,12.571,23.861l-2.521,8.97l8.968,2.517c10.404,2.925,16.594,13.292,13.821,23.158l-0.067,0.246
			c-2.774,9.871-13.458,15.5-23.86,12.575l-8.969-2.52l-2.521,8.966c-2.921,10.409-13.29,16.593-23.156,13.824l-0.248-0.07
			c-9.866-2.772-15.496-13.457-12.574-23.86l2.523-8.969l-8.97-2.518c-10.406-2.924-16.596-13.292-13.821-23.159L260.039,90.869z"/>
	</g>
</g>
<g id="tech-device-rotation" display="none">
	<g display="inline">
		<path d="M208.139,23.083L27.635,203.087c-6.824,6.808-6.84,17.858-0.033,24.682l291.099,291.909
			c6.809,6.824,17.857,6.842,24.68,0.033L523.89,339.703c6.822-6.804,6.836-17.852,0.033-24.679L232.821,23.118
			C226.013,16.292,214.966,16.275,208.139,23.083z M483.047,315.084c5.856,5.87,6.179,15.043,0.715,20.489L339.362,479.577
			c-5.459,5.443-14.635,5.098-20.491-0.772L68.473,227.71c-5.854-5.871-6.173-15.043-0.715-20.488L212.161,63.218
			c5.461-5.445,14.631-5.099,20.488,0.771L483.047,315.084z"/>
		<path d="M184.782,432.292c0,0-7.101,20.382-15.329,44.435c-21.401-10.809-41.473-25.16-59.332-43.069
			c-34.582-34.682-55.796-77.615-63.755-122.438l-39.576,8.03c9.48,52.322,34.359,102.408,74.747,142.911
			c46.271,46.397,105.161,72.543,165.657,78.418L184.782,432.292z"/>
		<path d="M365.215,117.707c0,0,7.106-20.381,15.33-44.434c21.403,10.809,41.473,25.16,59.336,43.07
			c34.583,34.678,55.793,77.614,63.756,122.435l39.573-8.029c-9.482-52.323-34.36-102.407-74.749-142.909
			c-46.27-46.396-105.157-72.544-165.656-78.419L365.215,117.707z"/>
	</g>
</g>
<g id="tech-layers" display="none">
	<g display="inline">
		<polygon fill="#FFFFFF" stroke="#000000" stroke-width="8.1982" points="278.645,285.021 23.591,386.604 276.821,472.667 
			526.409,388.014 		"/>
		<polygon stroke="#000000" stroke-width="8.1982" points="278.645,233.098 23.591,334.682 276.821,420.745 526.409,336.092 		"/>
		<polygon fill="#FFFFFF" stroke="#000000" stroke-width="8.1982" points="278.645,181.177 23.591,282.76 276.821,368.823 
			526.409,284.17 		"/>
		<polygon stroke="#000000" stroke-width="8.1982" points="278.645,129.255 23.591,230.837 276.821,316.902 526.409,232.249 		"/>
		<polygon fill="#FFFFFF" stroke="#000000" stroke-width="8.1982" points="278.645,77.333 23.591,178.917 276.821,264.98 
			526.409,180.326 		"/>
	</g>
</g>
<g id="food-wine" display="none">
	<g display="inline">
		<g id="Layer_2">
			<g>
				<path fill="#010101" d="M220.394,48.138V32.67c0-13.555-10.989-24.543-24.543-24.543c-13.554,0-24.542,10.988-24.542,24.543
					v15.468H220.394L220.394,48.138z"/>
				<path fill="#010101" d="M251.121,217.253c-15.56-28.345-28.874-36.711-30.111-79.196l-0.214-80.631L171.1,57.624v80.433
					c-1.237,42.486-15.606,50.298-30.111,79.196c-13.715,27.326-11.962,62.713-11.962,62.713v232.208
					c0,16.403,13.297,29.699,29.699,29.699h74.246c16.403,0,29.699-13.296,29.699-29.699V279.981
					C262.67,279.981,264.423,241.486,251.121,217.253z M244.524,433.805h-97.346v-148.08h97.346V433.805z"/>
			</g>
		</g>
		<g id="Layer_4">
			<path fill="#010101" d="M357.243,416.608c19.662-9.558,98.628-54.548,46.022-139.354H302.218c0,0-55.699,85.167,46.785,139.249
				v116.379h-56.591v8.99h122.453v-8.99h-57.622V416.608z M298.243,340.63c-4.216-29.752,12.704-54.811,12.704-54.811h83.898
				c13.277,21.331,16.507,39.529,14.141,54.811H298.243z"/>
		</g>
	</g>
</g>
<g id="health-stopwatch" display="none">
	<g display="inline">
		<path d="M275,100.478c-121.945,0-220.801,98.855-220.801,220.801S153.055,542.079,275,542.079
			c121.944,0,220.801-98.855,220.801-220.801S396.944,100.478,275,100.478z M275,483.901c-89.812,0-162.623-72.811-162.623-162.623
			S185.188,158.656,275,158.656s162.623,72.81,162.623,162.622S364.812,483.901,275,483.901z"/>
		<g>
			
				<line fill="none" stroke="#000000" stroke-width="12.137" stroke-miterlimit="10" x1="277.643" y1="145.429" x2="277.643" y2="196.993"/>
			
				<line fill="none" stroke="#000000" stroke-width="12.137" stroke-miterlimit="10" x1="272.357" y1="486.544" x2="272.357" y2="434.98"/>
			
				<line fill="none" stroke="#000000" stroke-width="12.137" stroke-miterlimit="10" x1="104.442" y1="313.349" x2="156.006" y2="313.349"/>
			
				<line fill="none" stroke="#000000" stroke-width="12.137" stroke-miterlimit="10" x1="445.558" y1="318.635" x2="393.993" y2="318.635"/>
			
				<line fill="none" stroke="#000000" stroke-width="12.137" stroke-miterlimit="10" x1="156.268" y1="193.515" x2="192.726" y2="229.979"/>
			
				<line fill="none" stroke="#000000" stroke-width="12.137" stroke-miterlimit="10" x1="393.732" y1="438.459" x2="357.274" y2="402.001"/>
			
				<line fill="none" stroke="#000000" stroke-width="12.137" stroke-miterlimit="10" x1="152.534" y1="434.726" x2="188.992" y2="398.267"/>
			
				<line fill="none" stroke="#000000" stroke-width="12.137" stroke-miterlimit="10" x1="397.479" y1="197.26" x2="361.014" y2="233.719"/>
		</g>
		<polygon points="319.293,7.921 230.708,7.921 230.708,67.42 250.548,67.42 250.548,87.256 299.463,87.256 299.463,67.42 
			319.293,67.42 		"/>
		<polygon points="133.131,86.343 112.863,99.701 134.992,133.267 155.253,119.909 		"/>
		<polygon points="438.228,97.312 418.185,83.617 395.505,116.815 415.548,130.505 		"/>
		<path d="M226.683,421.557l78.131-71.305c0,0,29.052-40.15-3.033-60.685c-37.929-24.274-55.375,26.55-55.375,26.55L226.683,421.557
			z"/>
	</g>
</g>
<g id="health-scale" display="none">
	<path display="inline" d="M521.818,7.289H28.181c-12.969,0-23.481,10.513-23.481,23.482v488.462
		c0,12.97,10.513,23.479,23.481,23.479h493.638c12.968,0,23.482-10.51,23.482-23.479V30.771
		C545.301,17.801,534.786,7.289,521.818,7.289z M174.824,89.494c0-12.967,10.513-23.48,23.481-23.48h153.389
		c12.967,0,23.481,10.513,23.481,23.48v49.759c0,12.969-10.515,23.482-23.481,23.482H198.305c-12.968,0-23.481-10.513-23.481-23.482
		V89.494z M445.122,428.715H104.874v-27.63h340.249V428.715z M452.897,350.994H97.102v-24.179h355.795V350.994z M461.531,276.728
		H88.466v-24.181h373.065V276.728z"/>
</g>
<g id="health-test-tube" display="none">
	<g display="inline">
		<path fill="none" stroke="#000000" stroke-width="7.3473" d="M526.93,161.313c-12.132,12.234-31.871,12.311-44.099,0.183
			l-2.821-2.79L141.378,500.208c-1.304,1.428-2.577,2.871-3.972,4.278c-1.38,1.399-2.82,2.68-4.236,4.001l-2.207,2.218l-0.086-0.076
			c-35.546,31.486-80.905,38.712-104.359,15.459c-23.451-23.257-16.606-68.671,14.588-104.48l-0.076-0.078l2.153-2.173
			c1.322-1.454,2.603-2.917,4.014-4.329c1.4-1.419,2.857-2.715,4.292-4.049l338.591-341.45l-2.828-2.806
			c-12.223-12.12-12.309-31.862-0.188-44.105c12.127-12.227,31.872-12.308,44.115-0.188l95.57,94.779
			C538.979,129.335,539.061,149.083,526.93,161.313z"/>
		<path d="M139.477,503.543c-1.39,1.399-2.826,2.683-4.241,4.007l-2.207,2.217l-0.081-0.069
			c-35.547,31.486-80.909,38.704-104.358,15.447C5.14,501.899,11.983,456.473,43.171,420.66l-0.071-0.072l2.152-2.171
			c1.329-1.452,2.612-2.918,4.007-4.333c1.405-1.416,2.866-2.713,4.298-4.045L307.234,153.5l89.727,91.431L143.448,499.264
			C142.137,500.689,140.866,502.142,139.477,503.543z"/>
	</g>
</g>
<g id="health-weight-training" display="none">
	<g display="inline">
		<path d="M96.651,386.39c0,11.621,13.049,21.042,29.14,21.042l0,0c16.095,0,29.145-9.421,29.145-21.042V163.606
			c0-11.617-13.05-21.038-29.145-21.038l0,0c-16.09,0-29.14,9.421-29.14,21.038V386.39z"/>
		<path d="M42.446,351.213c0,7.952,9.521,14.399,21.269,14.399l0,0c11.755,0,21.276-6.447,21.276-14.399v-152.43
			c0-7.947-9.521-14.395-21.276-14.395l0,0c-11.747,0-21.269,6.448-21.269,14.395V351.213z"/>
		<path d="M9.515,332.151c0,5.962,5.089,10.799,11.362,10.799l0,0c6.276,0,11.364-4.837,11.364-10.799V217.845
			c0-5.958-5.088-10.793-11.364-10.793l0,0c-6.273,0-11.362,4.836-11.362,10.793V332.151z"/>
		<path d="M453.349,386.39c0,11.621-13.049,21.042-29.14,21.042l0,0c-16.097,0-29.145-9.421-29.145-21.042V163.606
			c0-11.617,13.048-21.038,29.145-21.038l0,0c16.091,0,29.14,9.421,29.14,21.038V386.39z"/>
		<path d="M507.552,351.213c0,7.952-9.52,14.399-21.266,14.399l0,0c-11.758,0-21.278-6.447-21.278-14.399v-152.43
			c0-7.947,9.521-14.395,21.278-14.395l0,0c11.746,0,21.266,6.448,21.266,14.395V351.213z"/>
		<path d="M540.485,332.151c0,5.962-5.088,10.799-11.363,10.799l0,0c-6.276,0-11.365-4.837-11.365-10.799V217.845
			c0-5.958,5.089-10.793,11.365-10.793l0,0c6.275,0,11.363,4.836,11.363,10.793V332.151z"/>
		<rect x="164.843" y="245.293" width="220.315" height="66.836"/>
	</g>
</g>
<g id="profession-athlete" display="none">
	<g display="inline">
		<path d="M96.651,386.39c0,11.621,13.049,21.042,29.14,21.042l0,0c16.095,0,29.145-9.421,29.145-21.042V163.606
			c0-11.617-13.05-21.038-29.145-21.038l0,0c-16.09,0-29.14,9.421-29.14,21.038V386.39z"/>
		<path d="M42.446,351.213c0,7.952,9.521,14.399,21.269,14.399l0,0c11.755,0,21.276-6.447,21.276-14.399v-152.43
			c0-7.947-9.521-14.395-21.276-14.395l0,0c-11.747,0-21.269,6.448-21.269,14.395V351.213z"/>
		<path d="M9.515,332.151c0,5.962,5.089,10.799,11.362,10.799l0,0c6.276,0,11.364-4.837,11.364-10.799V217.845
			c0-5.958-5.088-10.793-11.364-10.793l0,0c-6.273,0-11.362,4.836-11.362,10.793V332.151z"/>
		<path d="M453.349,386.39c0,11.621-13.049,21.042-29.14,21.042l0,0c-16.097,0-29.145-9.421-29.145-21.042V163.606
			c0-11.617,13.048-21.038,29.145-21.038l0,0c16.091,0,29.14,9.421,29.14,21.038V386.39z"/>
		<path d="M507.552,351.213c0,7.952-9.52,14.399-21.266,14.399l0,0c-11.758,0-21.278-6.447-21.278-14.399v-152.43
			c0-7.947,9.521-14.395,21.278-14.395l0,0c11.746,0,21.266,6.448,21.266,14.395V351.213z"/>
		<path d="M540.485,332.151c0,5.962-5.088,10.799-11.363,10.799l0,0c-6.276,0-11.365-4.837-11.365-10.799V217.845
			c0-5.958,5.089-10.793,11.365-10.793l0,0c6.275,0,11.363,4.836,11.363,10.793V332.151z"/>
		<rect x="164.843" y="245.293" width="220.315" height="66.836"/>
	</g>
</g>
<g id="profession-artist" display="none">
	<g display="inline">
		<path d="M529.381,530.452c0,0-229.276-301.781-317.154-341.218c0,0-31.314,35.855-46.902,38.808c0,0-8.628,24.346,94.083,110.274
			c102.711,85.929,263.486,197.672,263.486,197.672S537.563,545.803,529.381,530.452z"/>
		<path d="M27.996,5.938c0,0-23.204,82.651-4.974,121.5c18.229,38.851,43.355,64.663,101.727,80.731c0,0,13.684,4.621,26.011-4.172
			c15.712-11.208,47.954-32.118,37.023-58.573c-10.932-26.454-23.084-46.865-63.627-65.989
			C83.611,60.312,41.608,42.003,27.996,5.938z"/>
	</g>
</g>
<g id="transportation-london-tube" display="none">
	<g display="inline">
		<path d="M278.354,61.145C160.24,61.145,64.5,156.885,64.5,275.001c0,118.102,95.74,213.854,213.855,213.854
			c118.128,0,213.856-95.753,213.856-213.854C492.211,156.885,396.482,61.145,278.354,61.145z M278.354,400.126
			c-69.104,0-125.126-55.996-125.126-125.125c0-69.13,56.022-125.128,125.126-125.128c69.105,0,125.152,55.998,125.152,125.128
			C403.507,344.13,347.46,400.126,278.354,400.126z"/>
		<rect x="6.643" y="230.394" width="536.715" height="93.145"/>
	</g>
</g>
<g id="transportation-ny-subway" display="none">
	<g display="inline">
		<path d="M273.82,141.412h-1.007c-5.033,20.134-10.066,45.805-15.604,65.435l-20.134,71.979h74.998l-21.141-71.979
			C284.894,186.714,278.854,161.546,273.82,141.412z"/>
		<path d="M275,8.648C127.907,8.648,8.648,127.893,8.648,275S127.907,541.352,275,541.352
			c147.106,0,266.352-119.244,266.352-266.352S422.106,8.648,275,8.648z M349.323,423.288l-26.174-87.079h-97.146l-24.161,87.079
			h-79.529L226.003,84.03h100.67l105.199,339.258H349.323z"/>
	</g>
</g>
<g id="weather-partly-cloudy" display="none">
	<polygon display="inline" points="379.958,119.039 399.435,75.499 407.478,122.518 437.172,85.188 433.268,132.727 
		471.313,103.957 455.712,149.034 499.719,130.628 473.392,170.404 520.594,163.523 485.202,195.506 532.629,200.576 
		490.401,222.753 535.076,239.46 488.656,250.438 527.777,277.73 480.087,276.817 511.188,312.982 465.223,300.238 486.354,342.998 
		445,319.228 454.835,365.903 420.692,332.59 418.609,380.244 393.828,339.487 379.958,385.128 366.086,339.487 341.304,380.244 
		339.222,332.59 305.081,365.903 314.913,319.228 273.562,342.998 294.692,300.238 248.726,312.982 279.827,276.817 232.138,277.73 
		271.257,250.438 224.839,239.46 269.513,222.753 227.286,200.576 274.712,195.506 239.32,163.523 286.522,170.404 260.195,130.628 
		304.202,149.034 288.601,103.957 326.646,132.727 322.743,85.188 352.437,122.518 360.476,75.499 	"/>
	<path display="inline" d="M97.22,332.716c0,0-94.986,2.212-88.358,55.224c6.628,53.013,66.265,75.103,123.697,53.013
		c0,0,50.808,59.644,136.954,19.88c0,0,75.101,26.508,130.325-6.627c0,0,128.117,22.093,141.371-66.266
		c0,0,11.048-77.312-110.444-79.521c0,0-11.044-68.478-106.028-48.596c0,0-50.808-86.15-110.447-6.628
		C214.29,253.195,88.387,233.316,97.22,332.716z"/>
</g>
<g id="tech-services" display="none">
	<g display="inline">
		<path d="M389.244,72.261c-59.938,0-108.527,48.589-108.527,108.526c0,59.937,48.589,108.525,108.527,108.525
			c59.934,0,108.525-48.589,108.525-108.525C497.77,120.85,449.178,72.261,389.244,72.261z M389.244,252.16
			c-39.418,0-71.374-31.956-71.374-71.373c0-39.417,31.956-71.373,71.374-71.373c39.416,0,71.372,31.956,71.372,71.373
			C460.616,220.204,428.66,252.16,389.244,252.16z"/>
		<g>
			<rect x="379.465" y="25.823" width="24.444" height="64.528"/>
			<rect x="329.855" y="35.183" transform="matrix(0.9161 -0.401 0.401 0.9161 1.6632 142.8423)" width="24.444" height="64.529"/>
			<polygon points="331.153,110.076 315.067,128.483 266.477,86.031 282.556,67.624 			"/>
			
				<rect x="261.001" y="109.307" transform="matrix(0.3006 -0.9537 0.9537 0.3006 56.0656 359.6004)" width="24.446" height="64.53"/>
			
				<rect x="255.109" y="156.933" transform="matrix(-0.0927 -0.9957 0.9957 -0.0927 103.7266 472.9132)" width="24.442" height="64.529"/>
			<polygon points="303.562,211.407 315.397,232.793 258.94,264.044 247.104,242.663 			"/>
			<polygon points="324.707,244.651 344.527,258.955 306.767,311.279 286.946,296.971 			"/>
			<polygon points="356.3,265.292 380.196,270.443 366.584,333.524 342.692,328.371 			"/>
			
				<rect x="394.174" y="266.723" transform="matrix(-0.9853 0.1706 -0.1706 -0.9853 857.8485 524.2437)" width="24.443" height="64.528"/>
			
				<rect x="443.498" y="247.338" transform="matrix(-0.8187 0.5742 -0.5742 -0.8187 989.3687 246.8589)" width="24.44" height="64.525"/>
			
				<rect x="478.739" y="211.188" transform="matrix(-0.5197 0.8543 -0.8543 -0.5197 954.1168 -49.4625)" width="24.444" height="64.532"/>
			
				<rect x="495.842" y="166.351" transform="matrix(-0.1477 0.989 -0.989 -0.1477 779.5461 -274.5358)" width="24.442" height="64.53"/>
			
				<rect x="493.913" y="115.902" transform="matrix(0.2613 0.9653 -0.9653 0.2613 516.9141 -379.0992)" width="24.444" height="64.53"/>
			
				<rect x="470.038" y="68.592" transform="matrix(0.6477 0.7619 -0.7619 0.6477 246.7611 -331.9115)" width="24.443" height="64.524"/>
			
				<rect x="430.774" y="36.849" transform="matrix(0.8989 0.4382 -0.4382 0.8989 75.077 -187.1228)" width="24.444" height="64.533"/>
		</g>
		<path d="M163.394,262.914c-59.937,0-108.526,48.589-108.526,108.526s48.589,108.526,108.526,108.526
			c59.938,0,108.526-48.589,108.526-108.526S223.331,262.914,163.394,262.914z M163.394,442.813
			c-39.417,0-71.374-31.955-71.374-71.373s31.956-71.374,71.374-71.374s71.374,31.956,71.374,71.374
			S202.811,442.813,163.394,442.813z"/>
		<g>
			<rect x="153.616" y="216.476" width="24.442" height="64.528"/>
			
				<rect x="104.006" y="225.837" transform="matrix(0.9161 -0.401 0.401 0.9161 -93.7411 68.2641)" width="24.444" height="64.529"/>
			<rect x="60.743" y="256.445" transform="matrix(0.658 -0.753 0.753 0.658 -192.4478 153.6825)" width="24.445" height="64.524"/>
			
				<rect x="35.151" y="299.96" transform="matrix(0.3006 -0.9537 0.9537 0.3006 -283.7259 277.5395)" width="24.446" height="64.53"/>
			
				<rect x="29.258" y="347.586" transform="matrix(-0.0927 -0.9957 0.9957 -0.0927 -332.8886 456.366)" width="24.444" height="64.529"/>
			
				<rect x="43.181" y="396.114" transform="matrix(-0.4842 -0.8749 0.8749 -0.4842 -292.5794 684.2814)" width="24.442" height="64.529"/>
			
				<rect x="77.666" y="436.355" transform="matrix(-0.8108 -0.5853 0.5853 -0.8108 -111.4948 901.2)" width="24.443" height="64.525"/>
			
				<rect x="123.37" y="457.794" transform="matrix(-0.9775 -0.2107 0.2107 -0.9775 164.8648 997.6909)" width="24.444" height="64.534"/>
			<polygon points="162.999,459.936 187.084,455.764 198.093,519.347 174.012,523.517 			"/>
			
				<rect x="217.647" y="437.992" transform="matrix(-0.8188 0.5741 -0.5741 -0.8188 688.0486 723.3333)" width="24.443" height="64.525"/>
			
				<rect x="252.89" y="401.841" transform="matrix(-0.5197 0.8544 -0.8544 -0.5197 773.77 433.2045)" width="24.445" height="64.532"/>
			
				<rect x="269.993" y="357.003" transform="matrix(-0.1477 0.989 -0.989 -0.1477 708.9036 167.6639)" width="24.44" height="64.53"/>
			
				<rect x="268.063" y="306.556" transform="matrix(0.2613 0.9653 -0.9653 0.2613 534.1112 -20.248)" width="24.443" height="64.527"/>
			
				<rect x="244.188" y="259.246" transform="matrix(0.6476 0.7619 -0.7619 0.6476 312.4628 -92.6537)" width="24.441" height="64.523"/>
			
				<rect x="204.925" y="227.503" transform="matrix(0.8989 0.4382 -0.4382 0.8989 135.7931 -68.8865)" width="24.445" height="64.533"/>
		</g>
	</g>
</g>
<g id="music-treble-clef" display="none">
	<path display="inline" fill="#010101" stroke="#010101" stroke-width="1.4278" d="M337.114,273.175
		c-10.006-10.507-27.76-10.598-45.688-4.116c-5.026-24.727-9.296-45.575-11.934-58.464c26.298-33.903,50.498-73.688,48.729-108.198
		c-3.561-69.376-26.685-103.172-37.358-96.059c-10.457,6.973-54.996,63.469-31.745,169.428
		c-15.803,16.698-28.743,28.033-28.743,28.033s-87.162,83.605-35.576,167.214c42.642,69.102,97.388,56.796,115.116,50.443
		c6.584,39.744,10.41,70.957,7.631,77.639c-5.427,13.025-12.875,26.661-26.72,31.718c3.146-5.419,5.022-12.064,5.022-19.271
		c0-18.172-11.797-32.907-26.335-32.907c-14.536,0-26.324,14.735-26.324,32.907c0,18.175,11.789,32.907,26.324,32.907
		c1.144,0,2.255-0.119,3.358-0.297c39.364,4.167,68.105-20.984,55.35-89.529c-2.033-10.918-4.546-24.019-7.344-38.379
		C341.428,404.226,413.732,353.624,337.114,273.175z M297.977,56.151c0,0,28.459-10.679,16.011,37.357
		c-6.246,24.1-27.271,51.769-46.666,73.375C262.648,141.768,255.382,77.449,297.977,56.151z M251.726,403.036
		c-69.375-30.241-46.246-97.838-33.798-119.186c5.603-9.604,29.192-33.257,53.135-62.666c2.557,12.089,6.389,30.383,10.794,51.959
		c-42.191,20.698-77.77,74.652-5.223,110.325c0,0-48.28-53.509,11.558-78.912c6.563,32.948,13.583,69.506,19.204,102.044
		C293.376,412.29,275.082,413.221,251.726,403.036z M317.9,401.035c-6.174-31.423-13.354-67.192-19.983-99.956
		c56.279-15.919,48.092,64.601,48.092,64.601S337.843,387.761,317.9,401.035z"/>
</g>
<g id="social-opposite-sex" display="none">
	<g display="inline">
		<path fill="none" stroke="#000000" stroke-width="28.7853" stroke-miterlimit="10" d="M389.242,208.546
			c0,60.41-48.968,109.377-109.381,109.377c-60.408,0-109.377-48.968-109.377-109.377S219.454,99.168,279.861,99.168
			C340.274,99.168,389.242,148.137,389.242,208.546z"/>
		<path fill="none" stroke="#000000" stroke-width="28.7853" stroke-miterlimit="10" d="M290.236,278.879
			c0,60.411-48.969,109.379-109.378,109.379c-60.41,0-109.379-48.968-109.379-109.379c0-60.409,48.969-109.378,109.379-109.378
			C241.267,169.5,290.236,218.47,290.236,278.879z"/>
		<polygon points="249.167,466.463 198.736,466.463 198.736,388.511 167.476,388.511 167.476,466.463 114.882,466.463 
			114.882,497.722 167.476,497.722 167.476,544.835 198.736,544.835 198.736,497.722 249.167,497.722 		"/>
		<polygon points="478.521,5.165 360.992,5.165 360.992,36.425 422.362,36.425 341.902,116.905 363.999,139 447.262,55.716 
			447.262,122.696 478.521,122.696 		"/>
	</g>
</g>
<g id="social-same-sex-1" display="none">
	<g display="inline">
		<path fill="none" stroke="#000000" stroke-width="34.7633" stroke-miterlimit="10" d="M428.903,393.826
			c0,72.957-59.139,132.095-132.096,132.095c-72.954,0-132.093-59.138-132.093-132.095c0-72.952,59.139-132.092,132.093-132.092
			C369.765,261.734,428.903,320.874,428.903,393.826z"/>
		<polygon points="536.723,148.211 394.786,148.211 394.786,185.961 468.902,185.961 371.732,283.157 398.417,309.84 
			498.971,209.258 498.971,290.151 536.723,290.151 		"/>
		<path fill="none" stroke="#000000" stroke-width="34.7633" stroke-miterlimit="10" d="M288.029,253.695
			c0,72.956-59.138,132.095-132.095,132.095c-72.954,0-132.092-59.139-132.092-132.095c0-72.954,59.139-132.092,132.092-132.092
			C228.892,121.604,288.029,180.741,288.029,253.695z"/>
		<polygon points="395.849,8.08 253.913,8.08 253.913,45.831 328.029,45.831 230.859,143.024 257.543,169.708 358.099,69.128 
			358.099,150.018 395.849,150.018 		"/>
	</g>
</g>
<g id="social-same-sex-2" display="none">
	<g display="inline">
		<path fill="none" stroke="#000000" stroke-width="39.5438" stroke-miterlimit="10" d="M325.851,174.902
			c0,82.989-67.271,150.258-150.256,150.258c-82.989,0-150.26-67.269-150.26-150.258c0-82.987,67.271-150.258,150.26-150.258
			C258.579,24.644,325.851,91.915,325.851,174.902z"/>
		<polygon points="269.431,432.595 200.153,432.595 200.153,325.509 157.21,325.509 157.21,432.595 84.96,432.595 84.96,475.536 
			157.21,475.536 157.21,540.258 200.153,540.258 200.153,475.536 269.431,475.536 		"/>
		<path fill="none" stroke="#000000" stroke-width="39.5438" stroke-miterlimit="10" d="M524.894,174.902
			c0,82.989-67.271,150.258-150.256,150.258c-82.989,0-150.26-67.269-150.26-150.258c0-82.987,67.271-150.258,150.26-150.258
			C457.623,24.644,524.894,91.915,524.894,174.902z"/>
		<polygon points="468.476,432.595 399.196,432.595 399.196,325.509 356.252,325.509 356.252,432.595 284.001,432.595 
			284.001,475.536 356.252,475.536 356.252,540.258 399.196,540.258 399.196,475.536 468.476,475.536 		"/>
	</g>
</g>
<g id="politics-democrat" display="none">
	<g display="inline">
		<polygon fill="none" points="192.726,213.328 181.647,192.74 172.045,214.057 149.042,218.231 166.348,233.953 163.21,257.12 
			183.509,245.518 204.573,255.661 199.812,232.772 215.966,215.873 		"/>
		<polygon fill="none" points="283.557,213.328 272.478,192.74 262.879,214.057 239.875,218.231 257.178,233.953 254.043,257.12 
			274.342,245.518 295.404,255.661 290.643,232.772 306.797,215.873 		"/>
		<polygon fill="none" points="101.895,213.328 90.816,192.74 81.213,214.057 58.21,218.231 75.516,233.953 72.378,257.12 
			92.677,245.518 113.742,255.661 108.98,232.772 125.134,215.873 		"/>
		<polygon fill="none" points="374.389,213.328 363.31,192.74 353.71,214.057 330.708,218.231 348.011,233.953 344.875,257.12 
			365.173,245.518 386.236,255.661 381.474,232.772 397.629,215.873 		"/>
		<path d="M48.429,300.785c-1.928,17.352-30.849,43.059-36.634,46.271c-5.784,3.215-7.068,11.568-7.068,26.349
			c0,14.782,5.14,17.993,7.712,19.282c2.571,1.282,5.141-8.353,5.141-14.141c0-5.782,5.785-7.069,6.427-10.282
			c0.643-3.215,3.213-20.566,3.213-20.566s12.854-13.493,20.565-23.134c7.711-9.64,10.284,1.924,10.284,1.924
			s-0.643,27.638-3.856,39.849c-3.213,12.214-9.64,32.133-12.21,43.06c-2.571,10.922,3.855,17.352,7.069,21.21
			c3.214,3.854,4.499,8.351,4.499,8.351v59.13c0,0,7.07,10.281,15.425,26.991C77.35,541.789,96.629,540.5,96.629,540.5
			s18.638,0,30.206-7.063c11.568-7.071-3.855-17.998-9.64-24.425c-5.785-6.43-16.068-14.783-16.068-14.783s1.286-10.922,0-20.562
			c-1.285-9.641-7.712-23.139-7.712-23.139s0.643-11.57,0.643-32.133c0-20.566,3.857-32.137,3.857-32.137
			s12.853-29.561,16.709-35.99c3.857-6.428,10.925-1.924,11.568,0.647c0.642,2.569-5.554,15.099-8.998,23.134
			c-3.856,8.997,3.855,23.136,3.855,23.136s24.422,21.21,28.278,25.71c3.855,4.499,7.07,7.712,7.07,7.712v32.132
			c0,0,12.211,13.497,17.353,17.996c5.141,4.5,7.711,12.853,12.854,23.779c5.142,10.929,14.781,17.353,14.781,17.353h14.14
			c0,0,14.781-1.287,24.421-5.787c9.64-4.499,0-16.71,0-16.71s-37.275-51.413-42.417-57.841c-5.141-6.422-6.427-12.852-7.07-16.71
			c-0.643-3.853-2.57-12.21-6.427-16.708c-3.857-4.5,0.642-17.994,0.642-17.994s16.068-32.132,21.209-43.06
			c5.142-10.924,23.136-7.711,30.849-5.784c7.712,1.931,34.705,5.784,44.346,6.426s30.203,1.287,30.203,1.287
			c14.14,11.57,27.638,53.983,26.351,66.838c-1.283,12.854-1.283,23.134-5.14,27.634c-3.858,4.499-3.213,13.498-4.499,17.998
			c-1.284,4.498-13.497,13.493-20.563,16.71c-7.07,3.213-0.645,10.281-0.645,10.281l36.634,35.991c0,0,3.854-2.571,5.141-6.43
			c1.283-3.853,10.923-1.929,10.923-1.929v17.357h61.699c2.571-15.425-19.28-39.85-25.064-47.559
			c-5.785-7.713-3.214-21.853-3.856-27.638c-0.642-5.784-8.999-20.564-8.999-20.564s1.289-23.78,1.929-46.277
			c0.642-22.492,10.927-55.911,20.567-96.399c0.638-2.682,1.29-5.244,1.957-7.712H48.015
			C49.019,297.811,48.429,300.785,48.429,300.785z"/>
		<path d="M545.221,221.734c-0.644-11.569-7.712-32.778-12.211-39.848c-4.5-7.07-3.215-23.134-4.497-37.273
			c-1.287-14.14-5.787-24.423-11.569-33.42c-5.787-8.999,2.571-16.709,2.571-16.709s14.78-18.639,17.351-32.135
			c2.572-13.496-5.142-37.918-12.21-44.345c-7.07-6.427-13.497,19.281-16.711,28.279c-3.214,8.996-14.781,25.707-20.565,26.35
			c-5.784,0.642-5.784-17.354-5.141-22.494c0.644-5.141-2.572-15.424-12.212-33.42c-9.642-17.995-17.352,3.213-17.352,3.213
			s-12.853,28.28-10.927,48.201c1.928,19.922-9.639,19.281-9.639,19.281s-40.488,12.211-55.271,21.851
			c-14.784,9.64-37.275,33.419-51.416,44.988c-14.138,11.567-41.772,12.853-61.053,9.64c-19.281-3.213-85.477-22.494-117.611-34.063
			c-32.135-11.569-61.054,4.5-83.548,22.495s-30.849,46.271-21.851,92.546c2.386,12.269,3.998,21.942,5.087,29.564h365.158
			c8.716-25.682,19.222-37.676,30.144-47.56c13.497-12.21,21.21,0,30.851,8.999c9.64,8.997,30.847,16.066,49.486,14.781
			C540.723,249.368,545.864,233.304,545.221,221.734z M113.742,255.661l-21.064-10.143L72.378,257.12l3.137-23.167L58.21,218.231
			l23.003-4.174l9.603-21.317l11.078,20.588l23.24,2.545l-16.154,16.899L113.742,255.661z M204.573,255.661l-21.064-10.143
			L163.21,257.12l3.138-23.167l-17.306-15.722l23.003-4.174l9.603-21.317l11.079,20.588l23.24,2.545l-16.154,16.899L204.573,255.661
			z M295.404,255.661l-21.062-10.143l-20.298,11.602l3.135-23.167l-17.304-15.722l23.004-4.174l9.599-21.317l11.079,20.588
			l23.24,2.545l-16.154,16.899L295.404,255.661z M386.236,255.661l-21.063-10.143l-20.298,11.602l3.136-23.167l-17.303-15.722
			l23.002-4.174l9.6-21.317l11.079,20.588l23.24,2.545l-16.155,16.899L386.236,255.661z"/>
	</g>
</g>
<g id="politics-republican" display="none">
	<g display="inline">
		<path d="M489.504,417.159v52.648c-0.801,1.574-3.424,3.992-12.038,3.992c-12.744,0-13.1-5.309-13.1-5.309l0.035-188.244
			l-84.94,0.256h-69.806H8.1v249.27h114.462v-97.928h142.439v97.928h114.46l-0.383-129.697
			c19.497-0.924,25.812,74.436,25.812,74.436s4.982,55.584,75.053,55.584c61.779,0,61.957-50.982,61.957-50.982v-61.953H489.504z"/>
		<path d="M464.375,180.966c0,0-0.621-37.213-50.85-73.57c-56.803-41.112-121.178-41.113-121.178-41.113h-31.244
			c0.817-3.369,1.26-6.95,1.26-10.665c0-19.723-12.435-35.712-27.775-35.712s-27.775,15.989-27.775,35.712
			c0,3.715,0.443,7.296,1.261,10.665h-29.327c0,0-51.393-3.244-116.308,40.573c-53.114,35.854-54.097,74.11-54.097,74.11v86.014
			h456.033V180.966z M122.77,201.179l-14.992,30.55l-15.132-30.483l-33.688-4.816l24.314-23.81l-5.828-33.526l30.156,15.765
			l30.086-15.904l-5.675,33.553l24.422,23.7L122.77,201.179z M251.729,201.179l-14.992,30.55l-15.132-30.483l-33.688-4.816
			l24.313-23.81l-5.828-33.526l30.157,15.765l30.086-15.904l-5.675,33.553l24.421,23.7L251.729,201.179z M384.407,201.179
			l-14.991,30.55l-15.132-30.483l-33.688-4.816l24.313-23.81l-5.828-33.526l30.157,15.765l30.085-15.904l-5.674,33.553l24.422,23.7
			L384.407,201.179z"/>
	</g>
</g>
<g id="politics-amnesty" display="none">
	<g display="inline">
		<g>
			<path d="M347.131,266.575c-1.665-1.699-1.732-4.543-0.149-6.319l79.25-88.928c1.583-1.776,4.11-1.723,5.617,0.119l35.399,43.268
				c1.507,1.841,1.23,4.578-0.614,6.081l-88.028,71.748c-1.845,1.504-4.716,1.343-6.381-0.356L347.131,266.575z"/>
		</g>
		<g>
			<path d="M367.491,115.123c1.415-1.913,3.976-2.129,5.691-0.481l43.721,42.021c1.716,1.648,1.839,4.464,0.273,6.256
				l-79.312,90.818c-1.565,1.792-4.639,2.499-6.829,1.571l-47.188-19.986c-2.19-0.928-2.826-3.252-1.411-5.166L367.491,115.123z"/>
		</g>
		<g>
			<path d="M305.938,56.791c1.363-1.95,3.896-2.21,5.628-0.58l49.505,46.628c1.732,1.631,1.953,4.502,0.491,6.379l-56.327,72.339
				c-1.462,1.877-2.539,1.47-2.393-0.905l2.064-33.543c0.146-2.375-1.46-5.219-3.568-6.321l-35.807-18.705
				c-2.109-1.102-2.719-3.599-1.356-5.548L305.938,56.791z"/>
		</g>
		<g>
			<path d="M239.631,13.875c1.43-1.901,4.153-2.283,6.051-0.848l46.307,35.013c1.897,1.435,2.37,4.229,1.051,6.208l-38.027,57.041
				c-1.319,1.98-4.192,2.841-6.383,1.914l-59.516-25.181c-2.191-0.927-2.814-3.241-1.384-5.143L239.631,13.875z"/>
		</g>
		<g>
			<path d="M211.517,206.381c-2.379,0-2.509,0.699-0.289,1.553l50.977,19.606c2.221,0.854,5.253,0.033,6.74-1.825l20.55-25.688
				c1.486-1.858,0.782-3.054-1.563-2.659l-49.22,8.295c-2.346,0.395-6.212,0.719-8.592,0.719H211.517z"/>
		</g>
		<g>
			<path d="M306.223,535.275c-0.226,2.369,1.535,4.307,3.915,4.307h66.616c2.38,0,4.286-1.946,4.236-4.325l-2.407-116.261
				c-0.05-2.379,1.464-5.499,3.362-6.933c0,0,25.749-19.453,41.322-72.008c15.572-52.565,13.39-75.511,13.39-75.511
				c-0.226-2.369-1.987-3.166-3.915-1.771l-53.985,39.051c-1.928,1.395-4.894,1.171-6.591-0.497l-31.464-30.918
				c-1.697-1.668-4.865-3.823-7.039-4.789l-50.491-22.44c-2.174-0.966-5.89-1.958-8.256-2.206l-22.542-2.35
				c-2.367-0.247-3.327,1.236-2.135,3.295l85.856,148.244c1.192,2.059,0.265,3.335-2.062,2.837l-9.708-2.08
				c-2.326-0.498-4.415,1.031-4.641,3.4L306.223,535.275z"/>
		</g>
		<g>
			<path d="M183.604,539.376c-2.379-0.004-4.057-1.936-3.728-4.292l18.932-135.594c0.329-2.356-0.496-5.895-1.832-7.863
				L82.443,222.939c-1.336-1.969-1.292-5.158,0.099-7.088l87.081-120.814c1.391-1.93,4.308-2.719,6.482-1.752l114.732,50.994
				c2.174,0.966,3.83,3.7,3.679,6.074l-2.046,32.245c-0.151,2.375-2.208,4.542-4.571,4.818l-58.241,6.783
				c-2.363,0.275-5.881-0.631-7.817-2.014l-25.612-21.952c-1.822-1.53-3.017-0.858-2.655,1.493c0,0,1.938,12.595,6.481,20.38
				c4.542,7.788-1.948,13.628-6.49,13.628s-11.941,4.785-11.941,4.785c-1.998,1.292-1.81,3.033,0.418,3.869l43.812,16.433
				c2.228,0.835,5.042,3.194,6.253,5.242l70.863,119.73c1.212,2.048,3.371,5.28,4.798,7.184c0,0,5.191,6.926-4.542,14.062
				c-9.731,7.135-18.17,11.679-14.276,13.622c3.893,1.95,12.676-0.247,12.676-0.247c2.308-0.577,4.054,0.892,3.879,3.265
				l-10.409,141.59c-0.175,2.373-2.264,4.311-4.644,4.307L183.604,539.376z"/>
		</g>
	</g>
</g>
<g id="social-hrc" display="none">
	<path display="inline" d="M14.52,14.562v519.334h519.334V14.562H14.52z M439.854,417.896H110.52V300.562h329.333V417.896z
		 M439.854,255.229H110.52V137.895h329.333V255.229z"/>
</g>
<g id="profession-singer" display="none">
	<g display="inline">
		<path d="M285.566,441.871h71.738c0,0,20.794,1.56,20.794-16.635s0-94.612,0-94.612s1.675-10.362-8.317-20.274
			c-13.57-13.461-51.465-48.346-51.465-48.346s-10.396-10.917-32.23-2.079s-58.223,25.992-58.223,25.992s-19.234,8.838-4.159,28.592
			c15.075,19.754,33.271,4.679,33.271,4.679l24.433-12.996c0,0,3.639-4.679,3.639,2.599
			C285.046,316.068,285.566,441.871,285.566,441.871z"/>
		<path d="M166.847,205.34h99.811v42.108c0,0-30.15,13.516-42.627,18.714c-12.476,5.199-17.155,14.036-17.155,14.036
			s-2.599-6.238-39.508-5.718L166.847,205.34z"/>
		<path d="M138.515,170.003c0-11.305,9.436-20.468,21.073-20.468h114.327c11.641,0,21.074,9.163,21.074,20.468v1.535
			c0,11.305-9.434,20.468-21.074,20.468H159.588c-11.637,0-21.073-9.164-21.073-20.468V170.003z"/>
		<path d="M408.238,310.35c11.305,0,20.468,7.869,20.468,17.573v95.336c0,9.706-9.163,17.573-20.468,17.573h-1.535
			c-11.305,0-20.468-7.867-20.468-17.573v-95.336c0-9.704,9.163-17.573,20.468-17.573H408.238z"/>
		<path d="M207.069,429.319c0,10.378-5.172,18.79-11.552,18.79h-62.67c-6.38,0-11.552-8.412-11.552-18.79v-1.408
			c0-10.378,5.172-18.79,11.552-18.79h62.67c6.38,0,11.552,8.412,11.552,18.79V429.319z"/>
		<path d="M207.069,390.33c0,10.379-5.172,18.791-11.552,18.791h-62.67c-6.38,0-11.552-8.412-11.552-18.791v-1.408
			c0-10.377,5.172-18.789,11.552-18.789h62.67c6.38,0,11.552,8.412,11.552,18.789V390.33z"/>
		<path d="M207.069,352.382c0,10.378-5.172,18.79-11.552,18.79h-62.67c-6.38,0-11.552-8.412-11.552-18.79v-1.408
			c0-10.378,5.172-18.79,11.552-18.79h62.67c6.38,0,11.552,8.412,11.552,18.79V352.382z"/>
		<path d="M207.069,313.393c0,10.379-5.172,18.791-11.552,18.791h-62.67c-6.38,0-11.552-8.412-11.552-18.791v-1.408
			c0-10.378,5.172-18.789,11.552-18.789h62.67c6.38,0,11.552,8.411,11.552,18.789V313.393z"/>
		<path d="M289.176,135.508c7.702-12.747,12.138-27.688,12.138-43.667c0-46.703-37.859-84.562-84.562-84.562
			S132.19,45.138,132.19,91.84c0,15.979,4.436,30.921,12.138,43.667H289.176z"/>
		<path d="M266.657,335.822c-19.234,9.877-41.587,1.56-41.587,1.56c4.678,16.636-2.08,30.151-2.08,30.151
			c7.798,21.313,0,36.909,0,36.909c3.119,10.917,6.758,26.513-6.238,43.667c-12.996,17.155-49.905,12.477-49.905,12.477v32.23h0.404
			c-0.001,0.133-0.007,0.265-0.007,0.397c0,27.343,22.166,49.508,49.508,49.508s49.509-22.165,49.509-49.508
			c0-0.133-0.006-0.265-0.007-0.397h0.403V335.822z"/>
	</g>
</g>
<g id="pop-culture-drwho-tardis" display="none">
	<g display="inline">
		<g>
			
				<line fill="none" stroke="#000000" stroke-width="3.5729" stroke-miterlimit="10" x1="242.14" y1="144.14" x2="242.14" y2="250.921"/>
			
				<line fill="none" stroke="#000000" stroke-width="3.5729" stroke-miterlimit="10" x1="207.183" y1="144.14" x2="207.183" y2="250.921"/>
			
				<line fill="none" stroke="#000000" stroke-width="3.7603" stroke-miterlimit="10" x1="173.08" y1="196.126" x2="274.815" y2="196.126"/>
		</g>
		<g>
			
				<line fill="none" stroke="#000000" stroke-width="3.5729" stroke-miterlimit="10" x1="340.217" y1="144.14" x2="340.217" y2="250.921"/>
			
				<line fill="none" stroke="#000000" stroke-width="3.5729" stroke-miterlimit="10" x1="305.261" y1="144.14" x2="305.261" y2="250.921"/>
			
				<line fill="none" stroke="#000000" stroke-width="3.7603" stroke-miterlimit="10" x1="271.157" y1="196.126" x2="372.894" y2="196.126"/>
		</g>
		<path d="M371.843,73.605v-20.9h-11.127V37.87h-73.748V19.627c0-5.401-5.312-9.781-11.868-9.781h-7.583
			c-6.556,0-11.869,4.379-11.869,9.781V37.87h-66.364v14.835h-11.126v20.9h-12.011v466.548h217.707V73.605H371.843z M183.516,93.09
			h182.968v25.55H183.516V93.09z M268.324,237.879h-85.85v-82.15h85.85V237.879z M368.74,237.879h-85.85v-82.15h85.85V237.879z"/>
	</g>
</g>
<g id="pop-culture-drwho-dalek" display="none">
	<g display="inline">
		<g>
			<circle cx="289.95" cy="454.76" r="13.881"/>
			<circle cx="289.95" cy="398.762" r="13.881"/>
			<circle cx="289.95" cy="346.113" r="13.881"/>
			<path d="M303.831,291.549c0,7.667-6.215,13.883-13.881,13.883s-13.881-6.216-13.881-13.883c0-7.664,6.215-13.879,13.881-13.879
				S303.831,283.885,303.831,291.549z"/>
			<path d="M327.075,264.596c0-3.965-3.215-7.179-7.182-7.179h-60.784c-3.965,0-7.18,3.214-7.18,7.179l-4.308,215.857
				c0,3.967,3.214,7.181,7.179,7.181h69.401c3.965,0,7.18-3.214,7.18-7.181L327.075,264.596z M289.95,476.776
				c-12.159,0-22.016-9.857-22.016-22.017c0-12.158,9.856-22.016,22.016-22.016c12.158,0,22.016,9.857,22.016,22.016
				C311.966,466.919,302.108,476.776,289.95,476.776z M289.95,420.777c-12.159,0-22.016-9.856-22.016-22.016
				s9.856-22.016,22.016-22.016c12.158,0,22.016,9.856,22.016,22.016S302.108,420.777,289.95,420.777z M289.95,368.129
				c-12.159,0-22.016-9.857-22.016-22.016s9.856-22.017,22.016-22.017c12.158,0,22.016,9.858,22.016,22.017
				S302.108,368.129,289.95,368.129z M289.95,313.566c-12.159,0-22.016-9.858-22.016-22.018c0-12.157,9.856-22.015,22.016-22.015
				c12.158,0,22.016,9.858,22.016,22.015C311.966,303.708,302.108,313.566,289.95,313.566z"/>
			<g>
				<circle cx="204.755" cy="454.76" r="13.88"/>
				<circle cx="206.67" cy="399.24" r="13.88"/>
				<circle cx="209.541" cy="345.634" r="13.88"/>
				<path d="M226.055,292.267c0,7.665-6.214,13.879-13.88,13.879c-7.666,0-13.88-6.214-13.88-13.879
					c0-7.668,6.215-13.881,13.88-13.881C219.84,278.386,226.055,284.599,226.055,292.267z"/>
				<path d="M234.699,257.417h-43.555c-3.965,0-7.18,3.214-7.18,7.179l-1.021,11.802c-7.95,1.069-14.087,7.864-14.087,16.108
					c0,7.272,4.771,13.426,11.353,15.513l-1.905,22.035c-7.788,1.212-13.755,7.93-13.755,16.06c0,7.152,4.621,13.214,11.036,15.396
					l-1.949,22.538c-8.08,0.953-14.351,7.814-14.351,16.15c0,7.364,4.895,13.579,11.606,15.587l-1.853,21.435
					c-7.938,1.082-14.061,7.87-14.061,16.105c0,7.263,4.759,13.41,11.327,15.504l-1.005,11.625c0,3.967,3.215,7.181,7.18,7.181
					h59.35c3.965,0,7.179-3.214,7.179-7.181l2.872-215.857C241.878,260.631,238.665,257.417,234.699,257.417z M204.755,476.776
					c-12.16,0-22.017-9.857-22.017-22.017c0-12.158,9.857-22.016,22.017-22.016c12.158,0,22.016,9.857,22.016,22.016
					C226.771,466.919,216.914,476.776,204.755,476.776z M206.191,420.777c-12.16,0-22.017-9.856-22.017-22.016
					s9.857-22.016,22.017-22.016c12.158,0,22.015,9.856,22.015,22.016S218.349,420.777,206.191,420.777z M209.062,368.129
					c-12.159,0-22.016-9.857-22.016-22.016s9.857-22.017,22.016-22.017s22.016,9.858,22.016,22.017S221.221,368.129,209.062,368.129
					z M211.934,313.566c-12.159,0-22.016-9.858-22.016-22.018c0-12.157,9.857-22.015,22.016-22.015s22.017,9.858,22.017,22.015
					C233.951,303.708,224.093,313.566,211.934,313.566z"/>
			</g>
			<g>
				<circle cx="374.245" cy="454.76" r="13.881"/>
				<path d="M358.45,399.24c0,7.665,6.215,13.88,13.883,13.88c7.662,0,13.877-6.215,13.877-13.88c0-7.667-6.215-13.88-13.877-13.88
					C364.665,385.36,358.45,391.573,358.45,399.24z"/>
				<circle cx="369.46" cy="345.634" r="13.881"/>
				<path d="M352.946,292.267c0,7.665,6.215,13.879,13.881,13.879c7.664,0,13.881-6.214,13.881-13.879
					c0-7.668-6.217-13.881-13.881-13.881C359.161,278.386,352.946,284.599,352.946,292.267z"/>
				<path d="M337.122,264.596l2.871,215.857c0,3.967,3.215,7.181,7.18,7.181h59.35c3.967,0,7.18-3.214,7.18-7.181l-1.006-11.625
					c6.568-2.094,11.328-8.241,11.328-15.504c0-8.235-6.125-15.023-14.061-16.105l-1.854-21.435
					c6.711-2.008,11.605-8.223,11.605-15.587c0-8.336-6.271-15.197-14.352-16.15l-1.949-22.538
					c6.414-2.182,11.035-8.243,11.035-15.396c0-8.13-5.965-14.848-13.754-16.06l-1.906-22.035
					c6.582-2.087,11.354-8.24,11.354-15.513c0-8.244-6.137-15.039-14.086-16.108l-1.021-11.802c0-3.965-3.213-7.179-7.18-7.179
					h-43.555C340.335,257.417,337.122,260.631,337.122,264.596z M352.229,454.76c0-12.158,9.857-22.016,22.016-22.016
					s22.016,9.857,22.016,22.016c0,12.159-9.857,22.017-22.016,22.017S352.229,466.919,352.229,454.76z M350.794,398.762
					c0-12.159,9.857-22.016,22.016-22.016s22.016,9.856,22.016,22.016s-9.857,22.016-22.016,22.016S350.794,410.921,350.794,398.762
					z M347.921,346.113c0-12.158,9.857-22.017,22.018-22.017c12.156,0,22.016,9.858,22.016,22.017s-9.859,22.016-22.016,22.016
					C357.778,368.129,347.921,358.271,347.921,346.113z M345.05,291.549c0-12.157,9.857-22.015,22.016-22.015
					c12.16,0,22.018,9.858,22.018,22.015c0,12.159-9.857,22.018-22.018,22.018C354.907,313.566,345.05,303.708,345.05,291.549z"/>
			</g>
		</g>
		<path d="M452.636,519.006c0,13.216-10.715,23.931-23.93,23.931h-278.41c-13.217,0-23.931-10.715-23.931-23.931l0,0
			c0-13.217,10.714-23.932,23.931-23.932h278.41C441.921,495.074,452.636,505.789,452.636,519.006L452.636,519.006z"/>
		<path d="M385.46,178.242H193.541c-3.965,0-7.18,3.214-7.18,7.179v56.188H392.64v-56.188
			C392.64,181.456,389.427,178.242,385.46,178.242z M218.425,228.34c-10.11,0-18.307-8.197-18.307-18.308
			s8.197-18.307,18.307-18.307c10.111,0,18.307,8.197,18.307,18.307S228.536,228.34,218.425,228.34z M360.575,228.34
			c-10.109,0-18.307-8.197-18.307-18.308s8.197-18.307,18.307-18.307s18.309,8.197,18.309,18.307S370.685,228.34,360.575,228.34z"/>
		<g>
			<rect x="257.665" y="116.897" width="64.042" height="46.513"/>
			<path d="M245.531,162.299H192.95v-38.222c0-3.964,3.215-7.179,7.18-7.179h45.402V162.299z"/>
			<path d="M333.47,162.299h52.582v-38.222c0-3.964-3.217-7.179-7.18-7.179H333.47V162.299z"/>
		</g>
		<path d="M421.292,186.447c4.049-2.242,5.607-7.169,3.484-11.007l0,0c-2.127-3.838-7.129-5.131-11.176-2.892l-57.293,31.713
			c-4.049,2.241-5.609,7.169-3.484,11.006l0,0c2.125,3.839,7.129,5.133,11.178,2.891L421.292,186.447z"/>
		<path d="M222.271,204.261l-57.291-31.713c-0.645-0.356-1.314-0.614-1.992-0.795c0.275-1.718,0.425-3.479,0.425-5.274
			c0-18.24-14.786-33.025-33.025-33.025c-18.239,0-33.024,14.785-33.024,33.025s14.786,33.025,33.024,33.025
			c10.849,0,20.473-5.231,26.494-13.308c0.134,0.085,0.264,0.173,0.405,0.251l57.291,31.711c4.049,2.242,9.053,0.948,11.178-2.891
			C227.881,211.43,226.321,206.502,222.271,204.261z"/>
		<path d="M289.501,36.533c-14.539,0-26.324,11.786-26.324,26.324c0,14.538,11.785,26.323,26.324,26.323
			s26.324-11.786,26.324-26.323C315.825,48.319,304.04,36.533,289.501,36.533z M289.501,78.651c-8.725,0-15.795-7.071-15.795-15.794
			s7.07-15.794,15.795-15.794c8.723,0,15.793,7.071,15.793,15.794S298.224,78.651,289.501,78.651z"/>
		<path d="M206.145,46.451L193.132,33.44c-3.888-3.889-3.461-10.622,0.957-15.038c4.414-4.416,11.147-4.843,15.036-0.954
			l13.011,13.012l4.061-4.062l-14.342-14.342c-6.657-6.658-17.453-6.658-24.111,0c-6.66,6.66-6.66,17.455,0,24.114l14.341,14.341
			L206.145,46.451z"/>
		<path d="M371.479,46.451l13.012-13.011c3.889-3.889,3.461-10.622-0.957-15.038c-4.414-4.416-11.146-4.843-15.035-0.954
			L355.487,30.46l-4.061-4.062l14.342-14.342c6.658-6.658,17.453-6.658,24.113,0c6.66,6.66,6.66,17.455,0,24.114L375.54,50.512
			L371.479,46.451z"/>
		<path d="M383.161,101.865c-2.297-12.06-6.684-23.326-12.723-33.401c1.887,0.04,3.789-0.647,5.229-2.088
			c2.803-2.804,2.803-7.35,0.002-10.153l-28.938-28.937c-2.803-2.804-7.35-2.804-10.154,0c-1.654,1.656-2.307,3.917-2.008,6.071
			c-13.482-7.583-28.895-11.901-45.279-11.901c-16.818,0-32.61,4.551-46.342,12.511c0.533-2.329-0.09-4.867-1.903-6.681
			c-2.804-2.804-7.35-2.804-10.153,0l-28.938,28.937c-2.801,2.803-2.801,7.349,0.001,10.153c1.7,1.7,4.04,2.352,6.244,1.991
			c-6.069,10.099-10.478,21.398-12.781,33.498H383.161z M289.29,29.593c18.504,0,33.504,15,33.504,33.504
			c0,18.503-15,33.503-33.504,33.503s-33.504-15-33.504-33.503C255.786,44.593,270.786,29.593,289.29,29.593z"/>
	</g>
</g>
<g id="pop-culture-clockwork-orange" display="none">
	<g display="inline">
		<path d="M507.111,247.424c0,0-37.739,47.006-51.539,3.353v-130.31c0,0-2.51-95.538-185.423-95.538
			c-168.445,0-175.341,106.852-175.341,106.852l1.156,113.336c-12.26,53.154-53.075,2.307-53.075,2.307S7.689,212.8,7.689,254.969
			c0,57.818,71.651,54.051,71.651,54.051H224.28h101.441h144.94c0,0,71.649,3.767,71.649-54.051
			C542.311,212.8,507.111,247.424,507.111,247.424z"/>
		<g>
			<path d="M266.388,442.689v-11.542h-21.833c-0.749-7.912-2.926-15.386-6.195-22.243l19.064-11.006l-5.768-10.003l-19.129,11.041
				c-4.474-6.284-9.985-11.773-16.327-16.181l11.071-19.173l-9.999-5.769l-11.104,19.233c-6.846-3.182-14.299-5.239-22.166-5.918
				v-22.18h-11.543v22.18c-7.879,0.672-15.346,2.736-22.203,5.918l-11.046-19.141l-9.995,5.769l11.013,19.08
				c-6.363,4.422-11.895,9.925-16.377,16.246l-18.949-10.942l-5.776,10.002l18.903,10.914c-3.271,6.895-5.439,14.402-6.166,22.357
				H90.261v11.544h21.56c0.642,8.003,2.702,15.59,5.923,22.548l-18.52,10.699l5.768,9.995l18.461-10.662
				c4.49,6.472,10.094,12.082,16.528,16.603l-10.605,18.372l10,5.776l10.608-18.387c6.99,3.28,14.61,5.389,22.661,6.061v21.188
				h11.547v-21.217c8.035-0.717,15.631-2.879,22.593-6.189l10.65,18.45l10-5.774l-10.688-18.509
				c6.388-4.542,11.959-10.146,16.401-16.608l18.595,10.74l5.776-10.003l-18.71-10.806c3.174-6.936,5.188-14.494,5.8-22.464H266.388
				z M178.213,486.248c-26.928,0-48.755-21.826-48.755-48.754c0-26.919,21.827-48.753,48.755-48.753
				c26.927,0,48.753,21.834,48.753,48.753C226.966,464.422,205.141,486.248,178.213,486.248z"/>
			<path d="M212.542,437.494c0,18.961-15.37,34.33-34.329,34.33c-18.959,0-34.326-15.369-34.326-34.33
				c0-18.951,15.367-34.32,34.326-34.32C197.172,403.174,212.542,418.543,212.542,437.494z"/>
		</g>
	</g>
</g>
<g id="pop-culture-scream" display="none">
	<path display="inline" d="M320.094,289.262c0,24.903-20.189,249.094-45.093,249.094c-24.905,0-45.096-224.19-45.096-249.094
		c0-24.905,20.191-45.096,45.096-45.096C299.904,244.166,320.094,264.356,320.094,289.262z"/>
	<g display="inline">
		<path d="M230.979,26.208c0,0-33.284,68.716-63.347,85.895c-26.667,15.237-23.622,33.284-11.811,48.316
			c11.811,15.031,45.095-1.075,63.348-22.549c18.252-21.472,41.873-55.831,40.8-94.483C258.895,4.735,247.083,2.586,230.979,26.208z
			"/>
		<path d="M319.021,26.208c0,0,33.283,68.716,63.348,85.895c26.667,15.237,23.622,33.284,11.811,48.316
			c-11.811,15.031-45.096-1.075-63.347-22.549c-18.254-21.472-41.874-55.831-40.8-94.483
			C291.105,4.735,302.915,2.586,319.021,26.208z"/>
	</g>
	<path display="inline" d="M300.946,195.851c0,17.195-8.741-3.221-25.936-3.221c-17.2,0-25.957,20.417-25.957,3.221
		c0-17.196,8.757-31.137,25.957-31.137C292.205,164.713,300.946,178.655,300.946,195.851z"/>
</g>
<g id="atom" display="none">
	<g display="inline">
		<path d="M274.999,9.562c-45.216,0-81.872,118.841-81.872,265.438c0,146.6,36.656,265.438,81.872,265.438
			c45.217,0,81.872-118.838,81.872-265.438C356.871,128.403,320.216,9.562,274.999,9.562z M274.999,512.063
			c-41.409,0-74.977-106.138-74.977-237.063S233.59,37.938,274.999,37.938c41.41,0,74.978,106.137,74.978,237.062
			S316.409,512.063,274.999,512.063z"/>
		<path d="M47.163,138.813c-23.2,38.812,60,131.246,185.832,206.462c125.831,75.214,246.645,104.724,269.843,65.914
			c23.2-38.812-60-131.248-185.831-206.463C191.173,129.511,70.36,100.003,47.163,138.813z M478.482,396.631
			c-21.246,35.543-129.57,9.902-241.951-57.273C124.152,272.185,50.271,188.914,71.516,153.371
			c21.247-35.543,129.572-9.901,241.952,57.271C425.848,277.817,499.729,361.087,478.482,396.631z"/>
		<path d="M232.994,204.727C107.162,279.941,23.963,372.377,47.163,411.189c23.199,38.81,144.011,9.3,269.843-65.914
			c125.831-75.216,209.031-167.65,185.831-206.462C479.639,100.003,358.825,129.511,232.994,204.727z M236.531,210.643
			c112.381-67.173,220.705-92.814,241.951-57.271c21.247,35.543-52.635,118.813-165.015,185.986
			c-112.38,67.176-220.705,92.816-241.952,57.273C50.271,361.087,124.15,277.817,236.531,210.643z"/>
		<circle cx="206.974" cy="155.035" r="18.097"/>
		<circle cx="206.83" cy="398.268" r="18.097"/>
		<circle cx="409.441" cy="275" r="18.096"/>
		<circle cx="274.425" cy="275" r="69.511"/>
	</g>
</g>
</svg>
