<?xml version="1.0" encoding="utf-8"?>
<!-- Generator: Adobe Illustrator 16.0.0, SVG Export Plug-In . SVG Version: 6.00 Build 0)  -->
<!DOCTYPE svg PUBLIC "-//W3C//DTD SVG 1.1 Tiny//EN" "http://www.w3.org/Graphics/SVG/1.1/DTD/svg11-tiny.dtd">
<svg version="1.1" baseProfile="tiny" xmlns="http://www.w3.org/2000/svg" xmlns:xlink="http://www.w3.org/1999/xlink" x="0px"
	 y="0px" width="550px" height="550px" viewBox="0 0 550 550" xml:space="preserve">
<g id="Layer_5">
	<path d="M528.858,487.306c0,26.894-21.801,48.694-48.693,48.694H69.835c-26.893,0-48.694-21.801-48.694-48.694V62.694
		C21.142,35.801,42.942,14,69.835,14h410.33c26.893,0,48.693,21.801,48.693,48.694V487.306z"/>
</g>
<g id="pop-culture_-_tardis" display="none">
	<path display="inline" fill="#FFFFFF" d="M364.602,88.665V69.327h-10.296V55.601h-68.232V38.723c0-4.998-4.916-9.049-10.98-9.049
		h-7.016c-6.065,0-10.981,4.052-10.981,9.049v16.878h-61.402v13.726h-10.294v19.338h-11.113v431.661h201.427V88.665H364.602z
		 M361.73,200.114h-24.235v-35.466h24.235V200.114z M305.112,203.352h28.942v37.303h-28.942V203.352z M301.672,200.114h-19.371
		v-35.466h19.371V200.114z M305.112,200.114v-35.466h28.942v35.466H305.112z M190.356,106.692h169.286v23.64H190.356V106.692z
		 M268.824,200.114h-22.463v-35.466h22.463V200.114z M242.92,240.655h-28.942v-37.303h28.942V240.655z M213.978,200.114v-35.466
		h28.942v35.466H213.978z M210.537,164.647v35.466h-21.144v-35.466H210.537z M189.393,203.352h21.144v37.303h-21.144V203.352z
		 M246.361,240.655v-37.303h22.463v37.303H246.361z M282.301,203.352h19.371v37.303h-19.371V203.352z M337.495,240.655v-37.303
		h24.235v37.303H337.495z"/>
</g>
<g id="pop-culture_-_dalek" display="none">
	<g display="inline">
		<g>
			<circle fill="#FFFFFF" cx="288.466" cy="436.909" r="12.503"/>
			<circle fill="#FFFFFF" cx="288.466" cy="386.473" r="12.503"/>
			<circle fill="#FFFFFF" cx="288.466" cy="339.052" r="12.503"/>
			<circle fill="#FFFFFF" cx="288.466" cy="289.906" r="12.503"/>
			<path fill="#FFFFFF" d="M321.904,265.629c0-3.571-2.896-6.466-6.469-6.466h-54.749c-3.571,0-6.466,2.896-6.466,6.466
				l-3.88,194.423c0,3.572,2.895,6.468,6.466,6.468h62.51c3.571,0,6.467-2.896,6.467-6.468L321.904,265.629z M288.466,456.74
				c-10.951,0-19.83-8.878-19.83-19.831c0-10.951,8.878-19.829,19.83-19.829c10.95,0,19.829,8.878,19.829,19.829
				C308.295,447.862,299.416,456.74,288.466,456.74z M288.466,406.302c-10.951,0-19.83-8.877-19.83-19.829
				c0-10.953,8.878-19.83,19.83-19.83c10.95,0,19.829,8.877,19.829,19.83C308.295,397.425,299.416,406.302,288.466,406.302z
				 M288.466,358.881c-10.951,0-19.83-8.878-19.83-19.829s8.878-19.83,19.83-19.83c10.95,0,19.829,8.879,19.829,19.83
				S299.416,358.881,288.466,358.881z M288.466,309.737c-10.951,0-19.83-8.88-19.83-19.831s8.878-19.83,19.83-19.83
				c10.95,0,19.829,8.879,19.829,19.83S299.416,309.737,288.466,309.737z"/>
			<g>
				<circle fill="#FFFFFF" cx="211.73" cy="436.909" r="12.502"/>
				<circle fill="#FFFFFF" cx="213.455" cy="386.903" r="12.502"/>
				<circle fill="#FFFFFF" cx="216.041" cy="338.62" r="12.502"/>
				<circle fill="#FFFFFF" cx="218.413" cy="290.552" r="12.502"/>
				<path fill="#FFFFFF" d="M238.701,259.163h-39.229c-3.571,0-6.467,2.896-6.467,6.466l-0.92,10.629
					c-7.16,0.964-12.688,7.085-12.688,14.51c0,6.551,4.298,12.093,10.226,13.973l-1.716,19.847
					c-7.015,1.091-12.389,7.143-12.389,14.465c0,6.441,4.162,11.901,9.939,13.867l-1.755,20.3
					c-7.277,0.858-12.926,7.037-12.926,14.547c0,6.633,4.409,12.23,10.454,14.038l-1.669,19.307
					c-7.149,0.975-12.665,7.089-12.665,14.507c0,6.541,4.287,12.078,10.203,13.964l-0.906,10.471c0,3.572,2.896,6.468,6.467,6.468
					h53.457c3.571,0,6.467-2.896,6.467-6.468l2.586-194.423C245.167,262.058,242.273,259.163,238.701,259.163z M211.73,456.74
					c-10.952,0-19.831-8.878-19.831-19.831c0-10.951,8.879-19.829,19.831-19.829c10.951,0,19.83,8.878,19.83,19.829
					C231.56,447.862,222.682,456.74,211.73,456.74z M213.024,406.302c-10.952,0-19.831-8.877-19.831-19.829
					c0-10.953,8.878-19.83,19.831-19.83c10.951,0,19.829,8.877,19.829,19.83C232.853,397.425,223.975,406.302,213.024,406.302z
					 M215.61,358.881c-10.951,0-19.83-8.878-19.83-19.829s8.878-19.83,19.83-19.83c10.952,0,19.83,8.879,19.83,19.83
					S226.562,358.881,215.61,358.881z M218.197,309.737c-10.952,0-19.83-8.88-19.83-19.831s8.878-19.83,19.83-19.83
					s19.83,8.879,19.83,19.83S229.148,309.737,218.197,309.737z"/>
			</g>
			<g>
				<path fill="#FFFFFF" d="M351.887,436.909c0,6.906,5.601,12.503,12.503,12.503c6.904,0,12.503-5.597,12.503-12.503
					c0-6.904-5.599-12.501-12.503-12.501C357.487,424.408,351.887,430.005,351.887,436.909z"/>
				<path fill="#FFFFFF" d="M350.164,386.903c0,6.903,5.598,12.501,12.504,12.501c6.901,0,12.499-5.598,12.499-12.501
					c0-6.906-5.598-12.502-12.499-12.502C355.762,374.401,350.164,379.997,350.164,386.903z"/>
				<circle fill="#FFFFFF" cx="360.08" cy="338.62" r="12.502"/>
				<circle fill="#FFFFFF" cx="357.709" cy="290.552" r="12.502"/>
				<path fill="#FFFFFF" d="M330.953,265.629l2.586,194.423c0,3.572,2.896,6.468,6.467,6.468h53.457
					c3.571,0,6.466-2.896,6.466-6.468l-0.905-10.471c5.915-1.886,10.203-7.423,10.203-13.964c0-7.418-5.517-13.532-12.665-14.507
					l-1.669-19.307c6.044-1.808,10.452-7.405,10.452-14.038c0-7.51-5.648-13.688-12.926-14.547l-1.756-20.3
					c5.777-1.966,9.939-7.426,9.939-13.867c0-7.322-5.372-13.374-12.387-14.465l-1.719-19.847
					c5.929-1.88,10.227-7.422,10.227-13.973c0-7.425-5.527-13.546-12.688-14.51l-0.919-10.629c0-3.571-2.895-6.466-6.468-6.466
					H337.42C333.848,259.163,330.953,262.058,330.953,265.629z M344.562,436.909c0-10.951,8.878-19.829,19.828-19.829
					c10.951,0,19.83,8.878,19.83,19.829c0,10.953-8.879,19.831-19.83,19.831C353.439,456.74,344.562,447.862,344.562,436.909z
					 M343.268,386.473c0-10.953,8.878-19.83,19.83-19.83c10.95,0,19.829,8.877,19.829,19.83c0,10.952-8.879,19.829-19.829,19.829
					C352.146,406.302,343.268,397.425,343.268,386.473z M340.68,339.052c0-10.951,8.878-19.83,19.831-19.83
					c10.949,0,19.83,8.879,19.83,19.83s-8.881,19.829-19.83,19.829C349.558,358.881,340.68,350.003,340.68,339.052z
					 M338.094,289.906c0-10.951,8.879-19.83,19.829-19.83c10.953,0,19.832,8.879,19.832,19.83s-8.879,19.831-19.832,19.831
					C346.973,309.737,338.094,300.857,338.094,289.906z"/>
			</g>
		</g>
		<path fill="#FFFFFF" d="M434.997,494.775c0,11.904-9.651,21.555-21.554,21.555H162.679c-11.904,0-21.555-9.65-21.555-21.555l0,0
			c0-11.904,9.65-21.555,21.555-21.555h250.765C425.346,473.221,434.997,482.871,434.997,494.775L434.997,494.775z"/>
		<path fill="#FFFFFF" d="M374.492,187.85H201.629c-3.572,0-6.467,2.895-6.467,6.466v50.608h185.795v-50.608
			C380.958,190.745,378.063,187.85,374.492,187.85z M224.043,232.973c-9.106,0-16.489-7.383-16.489-16.489
			s7.383-16.489,16.489-16.489c9.107,0,16.489,7.383,16.489,16.489S233.15,232.973,224.043,232.973z M352.077,232.973
			c-9.105,0-16.488-7.383-16.488-16.489s7.383-16.489,16.488-16.489c9.106,0,16.49,7.383,16.49,16.489
			S361.184,232.973,352.077,232.973z"/>
		<g>
			<rect x="259.386" y="132.597" fill="#FFFFFF" width="57.682" height="41.895"/>
			<path fill="#FFFFFF" d="M248.458,173.49h-47.361v-34.427c0-3.571,2.896-6.466,6.467-6.466h40.894V173.49z"/>
			<path fill="#FFFFFF" d="M327.664,173.49h47.36v-34.427c0-3.571-2.897-6.466-6.467-6.466h-40.894V173.49z"/>
		</g>
		<path fill="#FFFFFF" d="M406.765,195.241c3.647-2.019,5.052-6.458,3.14-9.915l0,0c-1.916-3.457-6.422-4.621-10.066-2.604
			l-51.604,28.563c-3.647,2.019-5.054,6.457-3.139,9.914l0,0c1.913,3.457,6.422,4.624,10.067,2.604L406.765,195.241z"/>
		<path fill="#FFFFFF" d="M227.507,211.286l-51.602-28.563c-0.58-0.321-1.184-0.553-1.794-0.716c0.249-1.547,0.383-3.134,0.383-4.75
			c0-16.429-13.318-29.746-29.746-29.746c-16.428,0-29.745,13.317-29.745,29.746c0,16.428,13.317,29.745,29.745,29.745
			c9.771,0,18.44-4.711,23.864-11.986c0.121,0.077,0.238,0.156,0.365,0.227l51.602,28.562c3.646,2.02,8.154,0.854,10.067-2.604
			C232.56,217.743,231.155,213.304,227.507,211.286z"/>
		<path fill="#FFFFFF" d="M288.061,60.213c-13.096,0-23.709,10.615-23.709,23.71c0,13.094,10.614,23.71,23.709,23.71
			c13.097,0,23.71-10.616,23.71-23.71C311.771,70.828,301.157,60.213,288.061,60.213z M288.061,98.149
			c-7.858,0-14.227-6.369-14.227-14.226c0-7.856,6.368-14.225,14.227-14.225c7.857,0,14.226,6.369,14.226,14.225
			C302.286,91.78,295.918,98.149,288.061,98.149z"/>
		<path fill="#FFFFFF" d="M212.982,69.146l-11.721-11.719c-3.502-3.503-3.117-9.567,0.861-13.544
			c3.976-3.978,10.041-4.362,13.543-0.859l11.719,11.719l3.657-3.658l-12.918-12.918c-5.996-5.997-15.72-5.997-21.717,0
			c-5.998,5.999-5.998,15.722,0,21.72l12.917,12.917L212.982,69.146z"/>
		<path fill="#FFFFFF" d="M361.898,69.146l11.721-11.719c3.502-3.503,3.117-9.567-0.863-13.544
			c-3.975-3.978-10.038-4.362-13.542-0.859l-11.72,11.719l-3.657-3.658l12.919-12.918c5.996-5.997,15.719-5.997,21.718,0
			c6,5.999,6,15.722,0,21.72l-12.917,12.917L361.898,69.146z"/>
		<path fill="#FFFFFF" d="M372.421,119.058c-2.069-10.863-6.021-21.011-11.46-30.084c1.7,0.036,3.413-0.583,4.71-1.881
			c2.525-2.525,2.525-6.62,0.002-9.144l-26.063-26.064c-2.525-2.525-6.621-2.525-9.147,0c-1.489,1.492-2.077,3.528-1.808,5.469
			c-12.144-6.83-26.025-10.719-40.783-10.719c-15.148,0-29.372,4.099-41.74,11.269c0.479-2.098-0.081-4.384-1.714-6.018
			c-2.525-2.525-6.62-2.525-9.145,0l-26.064,26.064c-2.523,2.524-2.523,6.619,0.001,9.144c1.531,1.532,3.638,2.119,5.624,1.794
			c-5.467,9.096-9.438,19.273-11.512,30.171H372.421z M287.871,53.962c16.666,0,30.178,13.51,30.178,30.177
			c0,16.666-13.512,30.177-30.178,30.177c-16.667,0-30.177-13.511-30.177-30.177C257.694,67.472,271.204,53.962,287.871,53.962z"/>
	</g>
</g>
<g id="movie_-_clockwork-orange" display="none">
	<g display="inline">
		<path fill="#FFFFFF" d="M475.553,251.173c0,0-32.607,40.615-44.531,2.897V141.477c0,0-2.169-82.548-160.212-82.548
			c-145.543,0-151.502,92.324-151.502,92.324l0.999,97.927c-10.593,45.927-45.858,1.993-45.858,1.993s-30.415-29.916-30.415,6.52
			c0,49.957,61.909,46.702,61.909,46.702h125.233h87.648h125.234c0,0,61.908,3.255,61.908-46.702
			C505.967,221.257,475.553,251.173,475.553,251.173z"/>
		<g>
			<path fill="#FFFFFF" d="M267.559,419.89v-9.973h-18.865c-0.647-6.836-2.529-13.294-5.353-19.219l16.472-9.51l-4.984-8.643
				l-16.528,9.54c-3.866-5.43-8.628-10.173-14.107-13.98l9.566-16.566l-8.64-4.984l-9.594,16.618
				c-5.916-2.749-12.355-4.526-19.152-5.113v-19.164h-9.974v19.164c-6.808,0.581-13.259,2.364-19.184,5.113l-9.544-16.538
				l-8.636,4.984l9.516,16.486c-5.498,3.82-10.278,8.575-14.15,14.037l-16.373-9.455l-4.99,8.643l16.333,9.43
				c-2.826,5.957-4.699,12.444-5.328,19.317h-18.666v9.975h18.628c0.555,6.915,2.334,13.471,5.118,19.482l-16.001,9.244l4.984,8.637
				l15.951-9.213c3.879,5.592,8.721,10.439,14.281,14.346l-9.164,15.874l8.641,4.991l9.166-15.887
				c6.04,2.834,12.624,4.655,19.58,5.236v18.307h9.977v-18.332c6.943-0.619,13.506-2.487,19.521-5.348l9.203,15.941l8.641-4.989
				l-9.234-15.992c5.519-3.925,10.333-8.767,14.171-14.351l16.066,9.28l4.991-8.644l-16.166-9.336
				c2.743-5.993,4.482-12.523,5.012-19.41H267.559z M191.373,457.526c-23.267,0-42.126-18.858-42.126-42.125
				c0-23.26,18.859-42.125,42.126-42.125c23.266,0,42.125,18.865,42.125,42.125C233.497,438.668,214.639,457.526,191.373,457.526z"
				/>
			<path fill="#FFFFFF" d="M221.034,415.401c0,16.383-13.28,29.662-29.662,29.662c-16.382,0-29.659-13.279-29.659-29.662
				c0-16.375,13.277-29.654,29.659-29.654C207.754,385.747,221.034,399.026,221.034,415.401z"/>
		</g>
	</g>
</g>
<g id="movie-scream" display="none">
	<path display="inline" fill="#FFFFFF" d="M315.99,287.929c0,22.638-18.353,226.427-40.989,226.427
		c-22.639,0-40.992-203.789-40.992-226.427c0-22.639,18.354-40.992,40.992-40.992C297.638,246.937,315.99,265.29,315.99,287.929z"/>
	<g display="inline">
		<path fill="#FFFFFF" d="M234.984,48.813c0,0-30.255,62.463-57.583,78.079c-24.24,13.85-21.472,30.255-10.736,43.919
			c10.736,13.664,40.991-0.977,57.583-20.497c16.591-19.518,38.062-50.75,37.087-85.885
			C260.36,29.294,249.624,27.341,234.984,48.813z"/>
		<path fill="#FFFFFF" d="M315.015,48.813c0,0,30.255,62.463,57.583,78.079c24.24,13.85,21.473,30.255,10.736,43.919
			c-10.736,13.664-40.992-0.977-57.583-20.497c-16.593-19.518-38.063-50.75-37.087-85.885
			C289.64,29.294,300.375,27.341,315.015,48.813z"/>
	</g>
	<path display="inline" fill="#FFFFFF" d="M298.585,203.018c0,15.631-7.945-2.928-23.575-2.928
		c-15.635,0-23.595,18.559-23.595,2.928s7.96-28.304,23.595-28.304C290.64,174.714,298.585,187.387,298.585,203.018z"/>
</g>
<g id="movie-paranorman" display="none">
	<circle display="inline" fill="#FFFFFF" cx="274.999" cy="274.464" r="237.361"/>
	<path display="inline" d="M418.038,362.626c-6.027,0-11.706,1.479-16.73,4.052c4.615-14.565,15.368-143.458,15.368-143.458
		c-4.538,9.081-13.623,24.52-13.623,24.52c4.54-8.173,0-39.958,0-39.958c-5.449,13.624-18.16,32.693-19.072,34.51
		c5.45-13.623,1.814-52.675,1.814-52.675c-4.543,10.898-20.885,28.154-20.885,28.154c6.357-14.533,6.357-57.216,6.357-57.216
		c-3.628,9.081-23.614,47.227-23.614,47.227c3.629-16.347,3.634-70.837,3.634-70.837c-1.813,15.439-19.071,35.419-19.071,35.419
		c4.54-10.898-4.537-42.686-4.537-42.686c-7.268,19.979-24.525,46.316-24.525,46.316l5.45-60.847l-22.705,53.581l-12.713-58.123
		l-13.623,56.308l-9.083-43.592l-13.622,55.397l-14.532-51.765l-6.354,46.317l-11.809-34.512
		c-3.634,16.348,1.815,69.931,1.815,69.931l-19.072-43.593l-2.725,49.949c-4.544-8.174-21.793-29.97-21.793-29.97
		c1.816,13.624,0,49.951,0,49.951l-12.716-22.706c2.725,13.622,4.542,57.215,4.542,57.215c-4.54-8.173-22.706-30.877-22.706-30.877
		c5.448,23.612,14.359,126.707,14.359,126.707c-4.292-1.757-8.982-2.74-13.905-2.74c-20.315,0-36.782,16.465-36.782,36.782
		c0,20.312,16.467,36.779,36.782,36.779c12.429,0,23.393-6.181,30.05-15.616c18.332,32.889,50.462,56.846,88.467,63.869v52.121
		h49.042v-52.614c37.686-7.825,69.325-32.382,86.999-65.651c6.433,10.705,18.117,17.892,31.518,17.892
		c20.317,0,36.781-16.468,36.781-36.779C454.819,379.091,438.355,362.626,418.038,362.626z"/>
</g>
<g id="movie-megamind" display="none">
	<g display="inline">
		<ellipse fill="#FFFFFF" cx="394.849" cy="462.647" rx="16.947" ry="15.062"/>
		<ellipse fill="#FFFFFF" cx="180.219" cy="462.647" rx="16.945" ry="15.062"/>
		<path fill="#FFFFFF" d="M515.131,370.981c-2.995-25.961-24.954-40.93-54.905-45.92c-29.95-4.99-63.896,37.936-88.857,62.896
			s-49.916,28.95-49.916,28.95c-8.984,1-13.975,0-13.975,0s6.283,14.273,32.32,11.582c-11.401,9.623-18.375,22.212-18.375,36.04
			c0,30.149,32.876,54.596,73.426,54.596c40.551,0,73.426-24.446,73.426-54.596s-32.875-54.595-73.426-54.595
			c-5.34,0-10.535,0.45-15.554,1.252c21.685-14.602,45.499-34.654,70.945-44.195C490.177,352.017,515.131,370.981,515.131,370.981z
			 M436.271,464.53c0,18.714-19.386,33.888-43.305,33.888c-23.92,0-43.306-15.174-43.306-33.888
			c0-18.713,19.386-33.887,43.306-33.887C416.885,430.644,436.271,445.817,436.271,464.53z"/>
		<path fill="#FFFFFF" d="M248.688,443.975c-0.216,0.018-0.445,0.07-0.661,0.088c0.175-0.064,0.375-0.129,0.544-0.199
			c0,0-17.97,1.995-61.899-9.985c-43.925-11.98-81.867-21.966-101.832-29.95c-19.965-7.985-64.426,9.722-37.935,39.936
			c0,0,15.148,10.945,59.901,7.985c0.688-0.047,1.434-0.082,2.17-0.123c-1.348,4.112-2.182,8.383-2.182,12.805
			c0,30.149,32.875,54.596,73.426,54.596c40.553,0,73.429-24.446,73.429-54.596C253.648,458.488,251.127,449.409,248.688,443.975z
			 M178.336,498.418c-23.919,0-43.305-15.174-43.305-33.888c0-4.773,1.316-9.295,3.595-13.413
			c24.551-0.129,54.841,0.006,78.357-1.784c2.948,4.574,4.656,9.723,4.656,15.197C221.639,483.244,202.253,498.418,178.336,498.418z
			"/>
	</g>
</g>
<g id="amnesty" display="none">
	<g display="inline">
		<path fill="#FFFFFF" d="M341.796,267.198c-1.542-1.574-1.604-4.207-0.139-5.852l73.387-82.349c1.466-1.645,3.807-1.596,5.202,0.11
			l32.78,40.066c1.396,1.706,1.14,4.239-0.568,5.631l-81.517,66.44c-1.708,1.393-4.367,1.243-5.909-0.33L341.796,267.198z"/>
		<path fill="#FFFFFF" d="M360.649,126.95c1.311-1.772,3.682-1.972,5.27-0.445l40.487,38.913c1.588,1.527,1.702,4.134,0.253,5.793
			l-73.444,84.101c-1.449,1.659-4.295,2.314-6.323,1.455l-43.698-18.507c-2.028-0.859-2.617-3.012-1.307-4.784L360.649,126.95z"/>
		<path fill="#FFFFFF" d="M303.65,72.933c1.262-1.806,3.607-2.047,5.211-0.537l45.843,43.179c1.604,1.511,1.809,4.169,0.455,5.907
			l-52.161,66.987c-1.354,1.738-2.351,1.361-2.215-0.838l1.912-31.062c0.136-2.199-1.352-4.833-3.305-5.854l-33.159-17.321
			c-1.953-1.021-2.518-3.333-1.256-5.138L303.65,72.933z"/>
		<path fill="#FFFFFF" d="M242.248,33.191c1.324-1.761,3.846-2.114,5.603-0.785l42.881,32.422c1.758,1.329,2.195,3.916,0.974,5.749
			L256.492,123.4c-1.222,1.833-3.882,2.63-5.912,1.772l-55.113-23.317c-2.029-0.858-2.606-3.001-1.282-4.763L242.248,33.191z"/>
		<path fill="#FFFFFF" d="M216.212,211.457c-2.203,0-2.323,0.647-0.267,1.438l47.206,18.156c2.056,0.791,4.865,0.03,6.241-1.69
			l19.029-23.788c1.376-1.72,0.725-2.828-1.448-2.462l-45.578,7.682c-2.173,0.366-5.753,0.666-7.956,0.666H216.212z"/>
		<path fill="#FFFFFF" d="M303.913,516.022c-0.209,2.192,1.422,3.987,3.625,3.987h61.688c2.203,0,3.969-1.803,3.923-4.005
			l-2.229-107.661c-0.046-2.202,1.355-5.092,3.113-6.42c0,0,23.845-18.014,38.267-66.681c14.42-48.678,12.398-69.925,12.398-69.925
			c-0.209-2.193-1.841-2.931-3.626-1.64l-49.99,36.163c-1.785,1.291-4.532,1.084-6.104-0.46l-29.137-28.631
			c-1.571-1.544-4.505-3.54-6.519-4.435l-46.756-20.781c-2.013-0.895-5.453-1.814-7.645-2.042l-20.875-2.176
			c-2.191-0.229-3.081,1.145-1.977,3.051l79.505,137.277c1.104,1.907,0.245,3.089-1.909,2.628l-8.989-1.927
			c-2.154-0.461-4.089,0.956-4.298,3.148L303.913,516.022z"/>
		<path fill="#FFFFFF" d="M190.365,519.819c-2.203-0.005-3.756-1.793-3.452-3.976l17.532-125.562
			c0.304-2.183-0.459-5.459-1.696-7.282L96.687,226.79c-1.237-1.823-1.196-4.776,0.092-6.563l80.639-111.877
			c1.288-1.788,3.99-2.518,6.003-1.623l106.246,47.222c2.013,0.895,3.546,3.426,3.406,5.625l-1.896,29.86
			c-0.14,2.199-2.045,4.207-4.233,4.461l-53.932,6.281c-2.188,0.255-5.446-0.584-7.239-1.865l-23.718-20.328
			c-1.688-1.417-2.794-0.794-2.458,1.383c0,0,1.794,11.663,6.001,18.872c4.206,7.212-1.804,12.62-6.01,12.62
			s-11.058,4.432-11.058,4.432c-1.85,1.196-1.676,2.808,0.387,3.582l40.57,15.217c2.063,0.774,4.669,2.958,5.792,4.854
			l65.622,110.874c1.122,1.896,3.121,4.89,4.442,6.653c0,0,4.807,6.413-4.206,13.02c-9.012,6.607-16.826,10.815-13.221,12.615
			c3.605,1.806,11.738-0.229,11.738-0.229c2.137-0.535,3.754,0.825,3.592,3.022l-9.64,131.116c-0.162,2.197-2.097,3.992-4.3,3.987
			L190.365,519.819z"/>
	</g>
</g>
<g id="comic-dc-batman" display="none">
	<path display="inline" fill="#FFFFFF" d="M381.196,396.992l-28.46-362.594l-17.918,84.204H203.061l-10.54-84.204l-25.298,362.594
		L40.736,422.768l0.054,81.914h463.73v-81.914L381.196,396.992z M339.034,403.293c0,0-53.23,22.34-70.095,33.796
		c0,0-51.122-30.359-65.878-33.796l1.054-110.554c0,0,45.851,3.438,64.824,19.476c0,0,48.248-21.274,70.095-19.476V403.293z"/>
</g>
<g id="tv_-_bart-simpson" display="none">
	<g display="inline">
		<path fill="#FFFFFF" d="M508.234,117.81c-7.555-10.798-59.884,33.474-59.884,33.474s0.709-50.03,1.339-61.549
			c-9.128-4.319-40.604,43.553-40.604,43.553s-6.609-43.553-18.886-59.749c-2.832,8.638-33.049,50.75-33.049,50.75
			s-5.666-47.511-3.777-58.31c-10.387-7.559-51.935,41.033-51.935,41.033S285.071,53.381,275,53.562
			c-4.092,5.219-33.994,57.77-33.994,57.77s-17.699-30.229-22.663-39.953c-7.798-0.759-26.439,47.511-26.439,47.511
			s-32.105-58.309-28.328-43.192c3.777,15.117-23.606,57.229-23.606,57.229s-27.424-31.769-30.689-41.572
			c-12.748-0.54-25.023,62.088-25.023,62.088s-10.859-22.136-42.492-17.277C64.9,172.339,82.369,435.271,82.369,435.271
			s-15.445,32.313-4.94,53.449c5.539-45.176,44.038-80.161,90.71-80.161c48.863,0,88.769,38.345,91.272,86.585
			c11.249,0.008,22.568,0.02,33.809,0.033c2.485-48.256,42.399-86.618,91.274-86.618c44.462,0,81.502,31.75,89.7,73.813
			c8.949-29.811-2.788-61.139-2.788-61.139S492.496,140.846,508.234,117.81z"/>
		<circle fill="#FFFFFF" cx="168.631" cy="486.188" r="9.336"/>
		<circle fill="#FFFFFF" cx="384.986" cy="486.188" r="9.336"/>
	</g>
</g>
<g id="tv-simpsons-lisa" display="none">
	<circle display="inline" fill="#FFFFFF" cx="190.687" cy="478.154" r="11.246"/>
	<circle display="inline" fill="#FFFFFF" cx="358.132" cy="478.154" r="11.246"/>
	<path display="inline" fill="#FFFFFF" d="M509.331,290.838c-7.498-18.743-99.343-21.243-99.343-21.243
		s-33.112-64.978-53.106-72.475c-19.993-7.498-82.473,50.607-82.473,50.607s-53.731-53.106-76.225-53.106
		s-58.105,73.101-58.105,73.101s-87.471,9.996-98.092,19.993c-10.622,9.996,8.122,86.845,8.122,86.845s-6.102,3.733-14.599,9.425
		l-0.03,111.011l87.037,0.002c-1.146-4.213-1.904-8.584-2.229-13.077c-0.137,0.219-0.223,0.348-0.223,0.348
		s-25.059-0.439-30.334-5.142c-5.276-4.704,1.512-6.346,4.114-4.618c2.468,1.641,20.716,3.498,26.277,2.937
		c0.258-12.3,3.734-23.806,9.641-33.704c-3.539-1.857-21.967-11.762-24.372-17.677c-2.663-6.549,4.155-5.029,5.729-2.331
		c1.51,2.588,17.388,12.479,22.458,14.278c8.438-11.378,20.309-20.049,34.079-24.501c-1.599-3.537-10.104-22.811-8.354-28.978
		c1.929-6.8,6.369-1.407,5.95,1.689c-0.415,3.064,6.452,21.688,9.187,25.471c4.638-0.985,9.443-1.517,14.374-1.517
		c11.122,0,21.618,2.658,30.912,7.349c0.702-6.941,2.698-22.841,6.575-26.718c4.998-4.997,6.248,1.876,4.374,4.375
		c-1.781,2.374-4.688,20.533-4.438,26.09c18.837,12.257,31.304,33.481,31.304,57.632c0,6.266-0.854,12.329-2.425,18.097h38.587
		c-1.571-5.768-2.426-11.831-2.426-18.097c0-24.15,12.467-45.375,31.305-57.632c0.25-5.557-2.657-23.716-4.438-26.09
		c-1.875-2.499-0.625-9.372,4.374-4.375c3.877,3.877,5.872,19.776,6.573,26.718c9.296-4.69,19.792-7.349,30.913-7.349
		c4.933,0,9.737,0.531,14.374,1.517c2.734-3.783,9.603-22.406,9.187-25.471c-0.419-3.097,4.021-8.489,5.95-1.689
		c1.751,6.167-6.756,25.44-8.354,28.978c13.771,4.452,25.642,13.123,34.08,24.501c5.069-1.799,20.948-11.69,22.458-14.278
		c1.572-2.698,8.392-4.218,5.728,2.331c-2.404,5.915-20.832,15.819-24.371,17.677c5.905,9.898,9.382,21.404,9.64,33.704
		c5.562,0.562,23.809-1.296,26.278-2.937c2.603-1.728,9.391-0.086,4.113,4.618c-5.275,4.702-30.334,5.142-30.334,5.142
		s-0.084-0.129-0.223-0.348c-0.324,4.496-1.084,8.869-2.231,13.083l88.063,0.002l0.157-112.276
		c-8.791-5.747-15.185-9.417-15.185-9.417S516.829,309.582,509.331,290.838z"/>
</g>
<g id="comic-thewasp" display="none">
	<g display="inline">
		<path fill="#FFFFFF" d="M445.188,320.741c-11.275,44.43-18.066,65.906-36.021,62.822c-7.86,23.414-21.49,47.301-44.811,65.662
			c-67.595,53.232-87.623,55.496-87.623,55.496s-20.028-2.264-87.622-55.496c-23.932-18.846-37.656-43.51-45.413-67.512
			c0.332,1.213,0.528,1.826,0.528,1.826c-18.121,3.307-24.915-18.18-36.24-62.799c-1.223-4.818-2.012-8.994-2.449-12.617
			c-0.916,5.334-0.456,13.168,2.449,24.613c11.325,44.617,18.119,66.105,36.24,62.799c0,0-0.196-0.615-0.528-1.826
			c7.757,24,21.481,48.666,45.413,67.512c67.594,53.232,87.622,55.496,87.622,55.496s20.028-2.264,87.623-55.496
			c23.32-18.361,36.95-42.248,44.811-65.662c17.954,3.084,24.745-18.393,36.021-62.822c2.712-10.684,3.18-18.527,2.326-24.285
			C447.104,312.063,446.357,316.134,445.188,320.741z"/>
		<path fill="#FFFFFF" d="M181.042,229.014c0,0,30.145,96.215,155.478,101.548c-38.933-4.034-68.231-76.169-71.68-88.978
			c20.69,17.735,100.372,54.964,145.265,28.714c3.05,5.639,6.873,14.105,19.448,22.725c1.332-61.26-10.126-206.986-143.302-206.986
			c-133.175,0-168.823,100.657-163.497,212.523C122.754,298.56,179.711,264.971,181.042,229.014z"/>
		<path fill="#FFFFFF" d="M123.153,260.543c0,0-3.479,0.672-8.028,2.132L60.472,34.205l-6.459-0.922l44.66,237.88
			c-3.088,2.802-5.064,6.208-4.645,10.295c0.062,0.605,0.148,1.355,0.254,2.215c-13.58,4.229-18.909,30.941-11.869,60.537
			c6.188,26.018,19.91,45.74,32.669,48.543c1.28,3.848,2.479,6.496,3.541,7.51c7.848,7.467,28.588,2.578,28.588,2.578
			L123.153,260.543z"/>
		<path fill="#FFFFFF" d="M426.848,260.543c0,0,3.478,0.672,8.027,2.132l54.654-228.47l6.458-0.922l-44.66,237.88
			c3.089,2.802,5.065,6.208,4.646,10.295c-0.063,0.605-0.149,1.355-0.254,2.215c13.58,4.229,18.907,30.941,11.869,60.537
			c-6.188,26.018-19.911,45.74-32.671,48.543c-1.279,3.848-2.478,6.496-3.54,7.51c-7.847,7.467-28.588,2.578-28.588,2.578
			L426.848,260.543z"/>
	</g>
</g>
<g id="movie-transformers" display="none">
	<g display="inline">
		<polygon fill="#FFFFFF" points="48.749,219.187 108.239,261.829 108.239,289.242 147.835,318.178 147.835,501.438 48.749,501.438 
					"/>
		<polygon fill="#FFFFFF" points="501.251,219.187 440.238,261.829 440.238,289.242 400.643,318.178 400.643,501.438 
			501.251,501.438 		"/>
		<polygon fill="#FFFFFF" points="319.927,461.334 234.643,461.334 220.936,501.438 333.633,501.438 		"/>
		<polygon fill="#FFFFFF" points="326.019,290.765 326.019,417.169 284.899,417.169 263.578,417.169 222.459,417.169 
			222.459,290.765 164.587,322.746 164.587,501.438 201.138,501.438 223.982,449.15 324.496,449.15 347.34,501.438 383.89,501.438 
			383.89,322.746 		"/>
		<path fill="#FFFFFF" d="M275.762,209.439l-47.211-28.326c0,0,15.229,92.899,15.229,127.927s0,89.854,0,89.854h63.963
			c0,0,0-54.826,0-89.854s15.229-127.927,15.229-127.927L275.762,209.439z"/>
		<path fill="#FFFFFF" d="M117.376,48.562V80.6l158.385,110.032L434.146,80.6V48.562H117.376z M274.238,130.856l-74.624-56.349
			h155.339L274.238,130.856z"/>
		<path fill="#FFFFFF" d="M209.26,166.393L105.7,95.323l0.064-46.762H48.749v150.321l73.196,53.809l99.498,17.261L209.26,166.393z
			 M60.266,98.875l15.991,2.284l98.991,70.816l0.761,15.229l-12.184-3.807L62.551,113.343L60.266,98.875z M169.156,230.609
			L67.881,160.554l-2.284-14.468l15.991,2.284l98.991,70.817l0.762,15.229L169.156,230.609z"/>
		<path fill="#FFFFFF" d="M330.082,269.952l99.496-17.261l71.673-53.809V48.562h-55.427v46.762l-103.559,71.069L330.082,269.952z
			 M488.973,113.343l-101.275,70.055l-12.184,3.807l0.762-15.229l98.991-70.816l15.99-2.284L488.973,113.343z M370.184,234.416
			l0.762-15.229l98.99-70.817l15.991-2.284l-2.284,14.468l-101.275,70.055L370.184,234.416z"/>
	</g>
</g>
<g id="movie-james-bond" display="none">
	<path display="inline" fill="#FFFFFF" d="M406.104,230.624c-10.8-28.012-30.294-51.685-55.187-67.732
		c36.785,10.974,117.768,58.324,177.94,261.506v-14.09c-68.13-220.516-160.728-249.17-186.948-252.804
		c-19.949-10.847-42.812-17.008-67.117-17.008c-15.561,0-30.511,2.563-44.504,7.226c35.527-23.646,119.833-52.157,298.57,2.355
		v-4.282c-202.343-61.766-283.726-17.159-310.351,6.441c-23.688,10.353-43.958,27.037-58.705,47.918
		C172.813,160.063,227.763,73.701,458.678,14h-15.736C196.607,80.694,159.591,177.89,154.116,208.822
		c-12.718,21.153-20.043,45.914-20.043,72.395c0,7.674,0.638,15.199,1.818,22.544C117.705,265.392,101.856,179.332,177.66,14h-4.5
		c-85.041,185.703-54.375,271.286-34.842,301.585c7.298,29.07,23.643,54.539,45.865,73.266
		c-40.706-18.538-109.904-76.117-163.041-254.626v14.034c59.3,190.984,136.937,237.275,173.278,248.441
		c22.792,15.889,50.483,25.236,80.374,25.236c13.009,0,25.591-1.801,37.549-5.105c-39.105,22.836-123.438,45.447-291.2-3.477v4.244
		c189.656,55.363,272.788,19.363,304.471-5.162c23.856-9.246,44.556-24.8,60.063-44.627
		C367.411,409.257,308.289,481.803,117.519,536h14.598c205.704-61.03,251.379-143.394,261.458-179.371
		c13.871-21.801,21.939-47.657,21.939-75.412c0-13.007-1.802-25.588-5.103-37.542c21.484,37.697,43.556,122.411-15.932,292.325
		h4.325C466.51,342.618,428.586,259.584,406.104,230.624z"/>
	<path display="inline" d="M272.505,231.846c-28.208,0-51.075,22.867-51.075,51.076c0,28.209,22.867,51.076,51.075,51.076
		c28.209,0,51.077-22.867,51.077-51.076C323.582,254.713,300.714,231.846,272.505,231.846z M272.505,316.973
		c-18.805,0-34.05-15.245-34.05-34.051s15.245-34.05,34.05-34.05c18.808,0,34.053,15.245,34.053,34.05
		S291.312,316.973,272.505,316.973z"/>
	<polygon display="inline" points="281.965,209.523 277.045,209.523 277.045,198.173 267.966,198.173 267.966,209.523 
		263.048,209.523 263.048,229.954 281.965,229.954 	"/>
	<path display="inline" d="M345.786,377.13c0-9.961,7.13-18.254,16.565-20.061c-4.013-21.23-15.388-39.853-31.366-53.126
		c-0.323,4.954-4.434,8.877-9.471,8.877c-1.687,0-3.269-0.444-4.642-1.217c-9.572,14.913-26.297,24.797-45.335,24.797
		c-18.727,0-35.209-9.567-44.854-24.076c-0.947,0.318-1.958,0.496-3.011,0.496c-4.946,0-9.005-3.779-9.458-8.606
		c-15.843,13.289-27.106,31.861-31.065,53.012c9.071,2.084,15.838,10.2,15.838,19.904c0,7.185-3.717,13.486-9.324,17.128
		c2.694,2.026,5.464,3.958,8.303,5.791c2.773-8.472,10.729-14.596,20.128-14.596c11.701,0,21.187,9.486,21.187,21.188
		c0,3.909-1.077,7.559-2.924,10.702c7.453,2.086,15.155,3.574,23.051,4.414c3.673-3.059,8.393-4.9,13.546-4.9
		c5.297,0,10.127,1.956,13.841,5.169c7.822-0.674,15.465-1.976,22.871-3.871c-2.154-3.316-3.417-7.265-3.417-11.514
		c0-11.701,9.484-21.188,21.187-21.188c10.08,0,18.499,7.046,20.644,16.477c3.24-1.979,6.39-4.09,9.451-6.315
		C350.594,392.349,345.786,385.305,345.786,377.13z M218.096,364.645c-11.702,0-21.188-9.486-21.188-21.188
		c0-11.7,9.485-21.187,21.188-21.187c11.701,0,21.187,9.486,21.187,21.187C239.282,355.158,229.797,364.645,218.096,364.645z
		 M272.767,384.697c-5.852,0-10.594-4.742-10.594-10.594c0-5.851,4.743-10.594,10.594-10.594c5.851,0,10.593,4.743,10.593,10.594
		C283.359,379.955,278.617,384.697,272.767,384.697z M327.437,364.645c-11.702,0-21.187-9.486-21.187-21.188
		c0-11.7,9.484-21.187,21.187-21.187s21.188,9.486,21.188,21.187C348.624,355.158,339.139,364.645,327.437,364.645z"/>
</g>
<g id="movie-jaws" display="none">
	<path display="inline" fill="#FFFFFF" d="M270.72,40.105c-118.628,0-225.025,459.641-225.025,459.641l458.611,0.149
		C498.188,452.181,389.349,40.105,270.72,40.105z M273.097,222.635c0,0,2.997-0.038,8.096,0.681l6.307,58.731l15.861-52.975
		c4.209,1.575,8.709,3.544,13.396,5.982l-1.879,53.147l19.849-41.765c4.065,3.065,8.17,6.512,12.262,10.42l-7.369,42.738
		l19.883-29.213c3.635,4.428,7.21,9.271,10.691,14.557L353.3,322.57l26.616-21.093c2.484,4.728,4.898,9.711,7.204,15.025
		l-19.437,26.683l25.547-11.161c2.193,6.124,4.272,12.572,6.193,19.4l-20.716,20.898l24.62-5.674
		c1.523,6.6,2.903,13.539,4.156,20.757l-17.399,12.851l19.303-0.878c1.297,8.97,2.373,18.402,3.213,28.303l-13.74,6.797l1.108,0.17
		l-8.443,5.299c-4.641-6.231-9.975-12.772-15.973-19.287l8.269-20.927l-15.313,13.604c-5.688-5.617-11.907-11.073-18.605-16.156
		l5.159-21.971l-12.94,16.397c-6.382-4.288-13.165-8.171-20.35-11.482l-0.182-29.292l-10.492,24.945
		c-6.81-2.438-13.913-4.371-21.359-5.591l-3.479-35.672l-10.645,34.28c-0.845-0.037-1.666-0.125-2.518-0.146
		c-0.862-0.019-1.694,0.039-2.55,0.039l-10.612-34.174l-3.413,35c-7.668,0.976-14.958,2.754-21.904,5.119l-10.014-23.802
		l-0.171,27.817c-7.52,3.367-14.56,7.429-21.137,11.973l-12.164-15.413l4.876,20.769c-6.796,5.317-13.03,11.083-18.699,17.023
		l-14.937-13.269l8.183,20.702c-5.812,6.728-10.915,13.478-15.316,19.869l-9.014-5.656l1.105-0.17l-11.109-5.494
		c0.719-9.049,1.747-18.995,3.194-29.486l16.694,0.759l-15.139-11.184c1.148-7.154,2.504-14.491,4.095-21.916l22.419,5.166
		l-19.115-19.285c1.737-6.829,3.697-13.667,5.896-20.445l24.246,10.593l-18.827-25.845c2.079-5.338,4.337-10.588,6.771-15.723
		l26.438,20.952l-17.192-38.301c3.15-5.243,6.544-10.278,10.192-15.06l20.683,30.386l-7.767-45.029
		c3.692-3.625,7.581-7.021,11.708-10.128l20.799,43.764l-1.949-55.151c4.186-1.975,8.558-3.691,13.119-5.142l16.208,54.138
		l6.313-58.794C267.655,222.973,270.34,222.749,273.097,222.635z M135.695,436.245l9.354-1.419l6.306,11.273
		c-11.1,17.127-16.676,30.301-16.676,30.301S134.114,460.307,135.695,436.245z M395.343,445.198l5.801-10.372l12.146,1.844
		c0.874,12.812,1.381,26.349,1.425,40.737C414.714,477.407,408.119,463.266,395.343,445.198z"/>
</g>
<g id="movie-borat" display="none">
	<g display="inline">
		<path fill="#FFFFFF" d="M131.596,368.52c0,0-52.873-26.442-77.324-77.327c0,0,3.308-27.099-4.625-40.317
			c-7.932-13.217-23.907-15.955-18.622-45.031c0,0,1.917-8.257,11.189-15.389c9.273-7.132,9.986-15.692,13.551-27.817
			c3.567-12.125,2.141-27.104,13.553-31.383c11.412-4.28,25.677,2.853,34.235-4.993c8.56-7.846,4.28-18.545,12.126-23.538
			c7.845-4.992,20.684-4.279,25.677-4.279c4.993,0,4.28-9.986,11.412-19.258c7.132-9.273,18.544-5.706,25.677-7.846
			c7.133-2.14,4.28-6.418,14.265-15.691c9.985-9.272,24.964-7.845,34.236-2.853s12.125,9.272,24.25,2.853
			c12.126-6.418,19.971-19.258,33.523-18.544c13.551,0.713,22.824,3.566,37.802,12.838c14.979,9.272,6.419,12.125,29.956,12.125
			c23.539,0,41.369-2.853,49.928,8.559c8.561,11.413-2.14,19.971,16.405,24.251s28.53,7.132,29.243,17.118
			c0.714,9.985,0,17.118,16.404,19.258c16.405,2.139,28.53,9.272,29.244,25.677c0.713,16.405,4.278,9.272,14.265,17.832
			c9.987,8.56,17.831,39.229,6.42,63.479c-11.413,24.25-7.847,37.803-2.853,49.216c4.992,11.411-11.413,37.087-26.39,49.927
			c-14.979,12.839-54.921,29.956-54.921,29.956s11.411-86.303,0-124.819c-11.413-38.516-36.377-73.465-59.202-72.752
			c-22.822,0.713-47.072,16.405-59.198,22.111c-12.127,5.706-69.186,8.558-85.59,1.427c-16.405-7.133-23.538-19.972-38.516-17.119
			s-59.913,39.943-60.626,85.59C126.377,307.43,131.596,368.52,131.596,368.52z"/>
		<path fill="#FFFFFF" d="M378.155,448.73c-8.448-10.029-34.948-14.979-54.206-12.839c-19.259,2.141-34.95,13.554-51.355,12.839
			c-16.405-0.713-21.398-12.839-42.795-14.265c-21.397-1.427-34.949,0-52.781,14.265c-17.831,14.267-16.405,62.054-16.405,62.054
			h8.559v-13.553h7.609v13.553h11.067v-13.553h7.608v13.553h11.064v-13.553h7.609v13.553h11.067v-13.553h7.609v13.553h11.064
			v-13.553h7.608v13.553h11.067v-13.553h7.609v13.553h11.064v-13.553h7.608v13.553h11.066v-13.553h7.609v13.553h11.062v-13.553h7.61
			v13.553h11.065v-13.553h7.609v13.553h11.064v-13.553h7.609v13.553h11.065v-13.553h7.609v13.553l8.796,2.139
			C391.707,500.084,389.568,462.281,378.155,448.73z"/>
	</g>
</g>
<g id="comic-dc-nightwing" display="none">
	<path display="inline" fill="#FFFFFF" d="M454.837,497.761c-34.992-24.094-76.295-51.629-76.295-51.629s-8.643-1.084-13.871-49.902
		c7.869,4.158,19.412,16.298,19.412,16.298s-8.982-32.364-10.131-38.675c-1.146-6.309,10.326-40.154,10.9-43.596
		c0.574-3.443,2.867-3.443,4.016-1.723c1.146,1.723,20.078,15.488,20.078,15.488s-5.164-8.029-10.326-21.797
		s6.883-46.465,13.193-65.396c6.311-18.93-0.574-46.465-0.574-46.465c16.062,9.18,26.389-6.311,26.389-6.311
		c-28.682,0-33.846-41.302-37.287-50.48s-5.162-37.861-5.162-37.861c-21.225-57.938-40.73-57.938-40.73-57.938
		c2.869-3.442,14.916-10.326,14.916-10.326c-8.605-1.721-29.83,5.737-29.83,5.737c0.479-5.991-3.446-13.242-8.18-19.47
		c-1.168-0.064-7.918,0.058-8.893,0c0.561,4.063,0.438,6.85,0.438,6.85c-2.213-2.452-4.756-4.648-7.536-6.85
		c-3.177,0.227-105.677-0.088-108.636,0c-0.867,0.382-1.54,0.884-1.999,1.114c-5.736,2.868-32.698,25.813-45.892,35.566
		c-13.194,9.752-77.442,44.17-77.442,44.17c13.193,1.147,62.527-7.458,62.527-7.458c-51.628,46.465-56.217,132.512-56.217,132.512
		c23.52-45.318,36.14-55.069,36.14-55.069s-28.682,63.674,22.373,145.706l-2.869-14.342l10.899,13.193c0,0-1.147,37.859-4.589,50.48
		c0,0,13.193-25.24,17.783-25.814c0,0-1.147,30.977,7.457,57.365c0,0,1.148-16.635,4.016-17.209l-2.084,35.428l-0.21,0.137
		c0,0-5.736,13.195-30.977,32.125c-14.422,10.817-37.085,24.564-59.322,42.605c2.115-0.167,373.865-0.161,378.227,0
		C461.458,501.599,458.22,500.09,454.837,497.761z M362.481,197.745c9.363,18.176-0.309,43.741-1.094,45.75
		c-2.422-1.516-4.773-2.534-6.715-3.208C360.981,219.265,362.481,197.745,362.481,197.745z M353.575,270.004
		c0,0-4.76,13.489-18.408,20.469c-13.646,6.982-33.959-2.221-33.959-2.221s0.793-5.238,6.664-8.729
		c4.109-2.443,14.902-8.064,27.971-9.865c-2.51,5.201-4.912,7.822-4.912,7.822c3.695-1.887,6.969-4.76,9.869-8.304
		C344.938,268.951,349.237,269.157,353.575,270.004z M252.914,202.908c4.589-8.031,13.768-18.356,28.109-18.93
		c14.342-0.573,18.357,6.311,18.357,6.311c21.223-12.047,28.107,4.015,28.107,4.015c10.535,19.831,13.928,36.165,13.959,48.949
		c-55.691,28.076-60.074,35.479-60.074,35.479c-2.074-2.223-5.117-7.907-5.51-8.645l-0.004-0.062c0,0-4.167-8.589-5.912-13.667
		c0,0-7.202,18.871-7.775,21.74c0,0-4.334-3.305-25.841-14.739C234.563,221.566,249.452,208.967,252.914,202.908z M240.272,288.253
		c0,0-0.444,0.199-1.227,0.514c-0.275-1.689-0.523-3.334-0.755-4.955C239.961,286.202,240.272,288.253,240.272,288.253z
		 M217.922,235.033c0.116,6.238,1.256,13.175,3.002,20.275c-3.439-1.77-7.156-3.669-11.171-5.702
		C214.711,243.055,217.922,235.033,217.922,235.033z M227.466,276.298c1.872,5.092,3.848,9.984,5.765,14.467
		c-7.146,2.094-18.346,4.096-26.918-0.291c-13.647-6.98-18.408-20.469-18.408-20.469
		C203.503,266.958,218.625,272.144,227.466,276.298z M197.845,212.66c0.808,9.698-1.229,22.801-2.504,29.706
		c-2.159-1.076-4.378-2.18-6.675-3.318c0,0-1.083,0.14-2.805,0.614C187.459,223.918,197.845,212.66,197.845,212.66z
		 M321.179,443.837c0,0-12.621,14.342-49.334,14.342c-12.155,0-20.534-0.943-26.748-2.393c-12.593-7.35-57.817-36.23-59.298-72.756
		v-6.883c0,0-8.605-0.574-17.784-44.744l-6.883-1.721c0,0-14.341-21.227-14.915-29.256c-0.574-8.031-2.295-17.783-6.311-24.094
		c-4.015-6.31-9.178-22.372-3.441-27.535c5.736-5.163,9.752-4.015,16.636,14.915c0,0,5.544,10.296,10.052,17.069
		c0.082,0.611,0.172,1.232,0.272,1.863c0,0-1.721,27.535,41.302,86.619l-8.031-44.744c0,0,25.511-8.736,43.909-17.643
		c2.238,4.58,3.704,7.316,3.704,7.316c-0.692-2.805-1.328-5.529-1.92-8.191c2.884-1.436,5.558-2.867,7.88-4.262
		c0,0,8.38-6.477,11.822-2.461c3.442,4.016,7.696,7.697,7.696,7.697l7.618-8.41l-0.006-0.084c3.699-2.086,10.797,3.416,10.797,3.416
		c17.209,10.326,53.633,22.621,53.633,22.621l-8.031,44.744c43.023-59.084,41.303-86.619,41.303-86.619
		c2.512-15.762-0.98-25.88-6.092-32.355c2.936-7.872,7.238-23.29,7.238-23.29c2.295,13.194,1.148,36.14,1.148,36.14
		c4.309-4.668,9.518-17.88,12.811-27.108l7.84,6.457c0.574,6.31-1.721,13.768-2.867,21.225c-1.148,7.458-3.441,28.108-3.441,28.108
		s-6.312,25.24-9.754,27.535s-9.752,2.295-9.752,2.295c-5.162,34.992-14.914,49.906-14.914,49.906l0.531,19.148
		C354.778,397.388,340.444,427.106,321.179,443.837z"/>
</g>
<g id="Layer_16" display="none">
	
		<image display="inline" width="1024" height="1447" xlink:href="../../../../batman_beyond____103___colouronly85_by_colouronly85-d5vqxvl.jpg"  transform="matrix(0.4565 0 0 0.4565 47.3184 -49.1064)">
	</image>
</g>
<g id="comic-dc-batman-beyond" display="none">
	<path display="inline" fill="#FFFFFF" d="M197.729,354.757c0,0,45.726,18.876,61.41,35.889c0,0-30.041-7.71-37.484-8.508
		C221.655,382.138,201.185,357.413,197.729,354.757z"/>
	<path display="inline" fill="#FFFFFF" d="M374.858,354.757c0,0-45.725,18.876-61.408,35.889c0,0,30.039-7.71,37.481-8.508
		C350.932,382.138,371.402,357.413,374.858,354.757z"/>
	<path display="inline" fill="#FFFFFF" d="M190.286,391.175c0,0,57.155,30.04,63.004,33.496l31.103-14.354l9.57,25.783
		l-10.634,23.399l-12.495-17.018c0,0,19.14,68.32,21.001,77.891c0,0-42.268-23.924-45.458-24.191l-4.786-28.976l-19.938-27.647
		c0,0-9.571-27.38-11.697-29.241C209.958,410.316,192.147,391.706,190.286,391.175z"/>
	<g display="inline">
		<path fill="#FFFFFF" d="M194.046,26.76l0.254-1.657C194.213,25.409,194.128,25.979,194.046,26.76z"/>
		<path fill="#FFFFFF" d="M366.726,218.705l-31.762-31.259c0,0-45.88-5.544-52.938-5.544c-7.06,0-49.915,7.562-49.915,7.562
			l-31.257,28.738l-9.076-46.888c0,0,0.461-127.326,2.268-144.553l-18.905,123.377l13.612,167.385l75.122,62.517h43.862
			l65.542-55.459L366.726,218.705z"/>
	</g>
</g>
<g id="comic-dc-batman-beyond-2">
	<path fill="#FFFFFF" d="M346.517,220.871c-25.508,7.293-50.109,15.038-50.109,15.038v-41.454l-12.749,11.388
		c-2.098-0.523-5.85-0.594-8.658-0.561c-2.812-0.033-6.561,0.038-8.658,0.561l-12.752-11.388v41.454c0,0-24.599-7.745-50.107-15.038
		c0,0-112.059-136.198-156.703-184.939c0,0,61.953,148.045,66.051,161.256c0,0,13.668,56.94,14.577,64.685
		c0,0,4.557,51.475,5.014,60.133c0,0,32.796,4.095,38.263,6.827c5.464,2.733,39.632,17.768,66.051,46.013
		c0,0,24.647,80.78,34.619,117.885v5.559l3.646,15.78l3.643-15.78v-5.559c9.972-37.104,34.625-117.885,34.625-117.885
		c26.418-28.245,60.581-43.279,66.044-46.013c5.47-2.732,38.268-6.827,38.268-6.827c0.455-8.658,5.015-60.133,5.015-60.133
		c0.906-7.745,14.576-64.685,14.576-64.685c4.094-13.21,66.051-161.256,66.051-161.256
		C458.576,84.673,346.517,220.871,346.517,220.871z"/>
	<g>
	</g>
	<g>
	</g>
	<g>
	</g>
	<g>
	</g>
	<g>
	</g>
	<g>
	</g>
</g>
</svg>
