<?xml version="1.0" encoding="utf-8"?>
<!-- Generator: Adobe Illustrator 16.0.0, SVG Export Plug-In . SVG Version: 6.00 Build 0)  -->
<!DOCTYPE svg PUBLIC "-//W3C//DTD SVG 1.1 Tiny//EN" "http://www.w3.org/Graphics/SVG/1.1/DTD/svg11-tiny.dtd">
<svg version="1.1" baseProfile="tiny" xmlns="http://www.w3.org/2000/svg" xmlns:xlink="http://www.w3.org/1999/xlink" x="0px"
	 y="0px" width="550px" height="550px" viewBox="0 0 550 550" xml:space="preserve">
<g id="Layer_5">
	<path d="M528.858,487.306c0,26.894-21.801,48.694-48.693,48.694H69.835c-26.893,0-48.694-21.801-48.694-48.694V62.694
		C21.142,35.801,42.942,14,69.835,14h410.33c26.893,0,48.693,21.801,48.693,48.694V487.306z"/>
</g>
<g id="pop-culture_-_tardis" display="none">
	<path display="inline" fill="#FFFFFF" d="M364.602,88.665V69.327h-10.296V55.601h-68.232V38.723c0-4.998-4.916-9.049-10.98-9.049
		h-7.016c-6.065,0-10.981,4.052-10.981,9.049v16.878h-61.402v13.726h-10.294v19.338h-11.113v431.661h201.427V88.665H364.602z
		 M361.73,200.114h-24.235v-35.466h24.235V200.114z M305.112,203.352h28.942v37.303h-28.942V203.352z M301.672,200.114h-19.371
		v-35.466h19.371V200.114z M305.112,200.114v-35.466h28.942v35.466H305.112z M190.356,106.692h169.286v23.64H190.356V106.692z
		 M268.824,200.114h-22.463v-35.466h22.463V200.114z M242.92,240.655h-28.942v-37.303h28.942V240.655z M213.978,200.114v-35.466
		h28.942v35.466H213.978z M210.537,164.647v35.466h-21.144v-35.466H210.537z M189.393,203.352h21.144v37.303h-21.144V203.352z
		 M246.361,240.655v-37.303h22.463v37.303H246.361z M282.301,203.352h19.371v37.303h-19.371V203.352z M337.495,240.655v-37.303
		h24.235v37.303H337.495z"/>
</g>
<g id="pop-culture_-_dalek" display="none">
	<g display="inline">
		<g>
			<circle fill="#FFFFFF" cx="288.466" cy="436.909" r="12.503"/>
			<circle fill="#FFFFFF" cx="288.466" cy="386.473" r="12.503"/>
			<circle fill="#FFFFFF" cx="288.466" cy="339.052" r="12.503"/>
			<circle fill="#FFFFFF" cx="288.466" cy="289.906" r="12.503"/>
			<path fill="#FFFFFF" d="M321.904,265.629c0-3.571-2.896-6.466-6.469-6.466h-54.749c-3.571,0-6.466,2.896-6.466,6.466
				l-3.88,194.423c0,3.572,2.895,6.468,6.466,6.468h62.51c3.571,0,6.467-2.896,6.467-6.468L321.904,265.629z M288.466,456.74
				c-10.951,0-19.83-8.878-19.83-19.831c0-10.951,8.878-19.829,19.83-19.829c10.95,0,19.829,8.878,19.829,19.829
				C308.295,447.862,299.416,456.74,288.466,456.74z M288.466,406.302c-10.951,0-19.83-8.877-19.83-19.829
				c0-10.953,8.878-19.83,19.83-19.83c10.95,0,19.829,8.877,19.829,19.83C308.295,397.425,299.416,406.302,288.466,406.302z
				 M288.466,358.881c-10.951,0-19.83-8.878-19.83-19.829s8.878-19.83,19.83-19.83c10.95,0,19.829,8.879,19.829,19.83
				S299.416,358.881,288.466,358.881z M288.466,309.737c-10.951,0-19.83-8.88-19.83-19.831s8.878-19.83,19.83-19.83
				c10.95,0,19.829,8.879,19.829,19.83S299.416,309.737,288.466,309.737z"/>
			<g>
				<circle fill="#FFFFFF" cx="211.73" cy="436.909" r="12.502"/>
				<circle fill="#FFFFFF" cx="213.455" cy="386.903" r="12.502"/>
				<circle fill="#FFFFFF" cx="216.041" cy="338.62" r="12.502"/>
				<circle fill="#FFFFFF" cx="218.413" cy="290.552" r="12.502"/>
				<path fill="#FFFFFF" d="M238.701,259.163h-39.229c-3.571,0-6.467,2.896-6.467,6.466l-0.92,10.629
					c-7.16,0.964-12.688,7.085-12.688,14.51c0,6.551,4.298,12.093,10.226,13.973l-1.716,19.847
					c-7.015,1.091-12.389,7.143-12.389,14.465c0,6.441,4.162,11.901,9.939,13.867l-1.755,20.3
					c-7.277,0.858-12.926,7.037-12.926,14.547c0,6.633,4.409,12.23,10.454,14.038l-1.669,19.307
					c-7.149,0.975-12.665,7.089-12.665,14.507c0,6.541,4.287,12.078,10.203,13.964l-0.906,10.471c0,3.572,2.896,6.468,6.467,6.468
					h53.457c3.571,0,6.467-2.896,6.467-6.468l2.586-194.423C245.167,262.058,242.273,259.163,238.701,259.163z M211.73,456.74
					c-10.952,0-19.831-8.878-19.831-19.831c0-10.951,8.879-19.829,19.831-19.829c10.951,0,19.83,8.878,19.83,19.829
					C231.56,447.862,222.682,456.74,211.73,456.74z M213.024,406.302c-10.952,0-19.831-8.877-19.831-19.829
					c0-10.953,8.878-19.83,19.831-19.83c10.951,0,19.829,8.877,19.829,19.83C232.853,397.425,223.975,406.302,213.024,406.302z
					 M215.61,358.881c-10.951,0-19.83-8.878-19.83-19.829s8.878-19.83,19.83-19.83c10.952,0,19.83,8.879,19.83,19.83
					S226.562,358.881,215.61,358.881z M218.197,309.737c-10.952,0-19.83-8.88-19.83-19.831s8.878-19.83,19.83-19.83
					s19.83,8.879,19.83,19.83S229.148,309.737,218.197,309.737z"/>
			</g>
			<g>
				<path fill="#FFFFFF" d="M351.887,436.909c0,6.906,5.601,12.503,12.503,12.503c6.904,0,12.503-5.597,12.503-12.503
					c0-6.904-5.599-12.501-12.503-12.501C357.487,424.408,351.887,430.005,351.887,436.909z"/>
				<path fill="#FFFFFF" d="M350.164,386.903c0,6.903,5.598,12.501,12.504,12.501c6.901,0,12.499-5.598,12.499-12.501
					c0-6.906-5.598-12.502-12.499-12.502C355.762,374.401,350.164,379.997,350.164,386.903z"/>
				<circle fill="#FFFFFF" cx="360.08" cy="338.62" r="12.502"/>
				<circle fill="#FFFFFF" cx="357.709" cy="290.552" r="12.502"/>
				<path fill="#FFFFFF" d="M330.953,265.629l2.586,194.423c0,3.572,2.896,6.468,6.467,6.468h53.457
					c3.571,0,6.466-2.896,6.466-6.468l-0.905-10.471c5.915-1.886,10.203-7.423,10.203-13.964c0-7.418-5.517-13.532-12.665-14.507
					l-1.669-19.307c6.044-1.808,10.452-7.405,10.452-14.038c0-7.51-5.648-13.688-12.926-14.547l-1.756-20.3
					c5.777-1.966,9.939-7.426,9.939-13.867c0-7.322-5.372-13.374-12.387-14.465l-1.719-19.847
					c5.929-1.88,10.227-7.422,10.227-13.973c0-7.425-5.527-13.546-12.688-14.51l-0.919-10.629c0-3.571-2.895-6.466-6.468-6.466
					H337.42C333.848,259.163,330.953,262.058,330.953,265.629z M344.562,436.909c0-10.951,8.878-19.829,19.828-19.829
					c10.951,0,19.83,8.878,19.83,19.829c0,10.953-8.879,19.831-19.83,19.831C353.439,456.74,344.562,447.862,344.562,436.909z
					 M343.268,386.473c0-10.953,8.878-19.83,19.83-19.83c10.95,0,19.829,8.877,19.829,19.83c0,10.952-8.879,19.829-19.829,19.829
					C352.146,406.302,343.268,397.425,343.268,386.473z M340.68,339.052c0-10.951,8.878-19.83,19.831-19.83
					c10.949,0,19.83,8.879,19.83,19.83s-8.881,19.829-19.83,19.829C349.558,358.881,340.68,350.003,340.68,339.052z
					 M338.094,289.906c0-10.951,8.879-19.83,19.829-19.83c10.953,0,19.832,8.879,19.832,19.83s-8.879,19.831-19.832,19.831
					C346.973,309.737,338.094,300.857,338.094,289.906z"/>
			</g>
		</g>
		<path fill="#FFFFFF" d="M434.997,494.775c0,11.904-9.651,21.555-21.554,21.555H162.679c-11.904,0-21.555-9.65-21.555-21.555l0,0
			c0-11.904,9.65-21.555,21.555-21.555h250.765C425.346,473.221,434.997,482.871,434.997,494.775L434.997,494.775z"/>
		<path fill="#FFFFFF" d="M374.492,187.85H201.629c-3.572,0-6.467,2.895-6.467,6.466v50.608h185.795v-50.608
			C380.958,190.745,378.063,187.85,374.492,187.85z M224.043,232.973c-9.106,0-16.489-7.383-16.489-16.489
			s7.383-16.489,16.489-16.489c9.107,0,16.489,7.383,16.489,16.489S233.15,232.973,224.043,232.973z M352.077,232.973
			c-9.105,0-16.488-7.383-16.488-16.489s7.383-16.489,16.488-16.489c9.106,0,16.49,7.383,16.49,16.489
			S361.184,232.973,352.077,232.973z"/>
		<g>
			<rect x="259.386" y="132.597" fill="#FFFFFF" width="57.682" height="41.895"/>
			<path fill="#FFFFFF" d="M248.458,173.49h-47.361v-34.427c0-3.571,2.896-6.466,6.467-6.466h40.894V173.49z"/>
			<path fill="#FFFFFF" d="M327.664,173.49h47.36v-34.427c0-3.571-2.897-6.466-6.467-6.466h-40.894V173.49z"/>
		</g>
		<path fill="#FFFFFF" d="M406.765,195.241c3.647-2.019,5.052-6.458,3.14-9.915l0,0c-1.916-3.457-6.422-4.621-10.066-2.604
			l-51.604,28.563c-3.647,2.019-5.054,6.457-3.139,9.914l0,0c1.913,3.457,6.422,4.624,10.067,2.604L406.765,195.241z"/>
		<path fill="#FFFFFF" d="M227.507,211.286l-51.602-28.563c-0.58-0.321-1.184-0.553-1.794-0.716c0.249-1.547,0.383-3.134,0.383-4.75
			c0-16.429-13.318-29.746-29.746-29.746c-16.428,0-29.745,13.317-29.745,29.746c0,16.428,13.317,29.745,29.745,29.745
			c9.771,0,18.44-4.711,23.864-11.986c0.121,0.077,0.238,0.156,0.365,0.227l51.602,28.562c3.646,2.02,8.154,0.854,10.067-2.604
			C232.56,217.743,231.155,213.304,227.507,211.286z"/>
		<path fill="#FFFFFF" d="M288.061,60.213c-13.096,0-23.709,10.615-23.709,23.71c0,13.094,10.614,23.71,23.709,23.71
			c13.097,0,23.71-10.616,23.71-23.71C311.771,70.828,301.157,60.213,288.061,60.213z M288.061,98.149
			c-7.858,0-14.227-6.369-14.227-14.226c0-7.856,6.368-14.225,14.227-14.225c7.857,0,14.226,6.369,14.226,14.225
			C302.286,91.78,295.918,98.149,288.061,98.149z"/>
		<path fill="#FFFFFF" d="M212.982,69.146l-11.721-11.719c-3.502-3.503-3.117-9.567,0.861-13.544
			c3.976-3.978,10.041-4.362,13.543-0.859l11.719,11.719l3.657-3.658l-12.918-12.918c-5.996-5.997-15.72-5.997-21.717,0
			c-5.998,5.999-5.998,15.722,0,21.72l12.917,12.917L212.982,69.146z"/>
		<path fill="#FFFFFF" d="M361.898,69.146l11.721-11.719c3.502-3.503,3.117-9.567-0.863-13.544
			c-3.975-3.978-10.038-4.362-13.542-0.859l-11.72,11.719l-3.657-3.658l12.919-12.918c5.996-5.997,15.719-5.997,21.718,0
			c6,5.999,6,15.722,0,21.72l-12.917,12.917L361.898,69.146z"/>
		<path fill="#FFFFFF" d="M372.421,119.058c-2.069-10.863-6.021-21.011-11.46-30.084c1.7,0.036,3.413-0.583,4.71-1.881
			c2.525-2.525,2.525-6.62,0.002-9.144l-26.063-26.064c-2.525-2.525-6.621-2.525-9.147,0c-1.489,1.492-2.077,3.528-1.808,5.469
			c-12.144-6.83-26.025-10.719-40.783-10.719c-15.148,0-29.372,4.099-41.74,11.269c0.479-2.098-0.081-4.384-1.714-6.018
			c-2.525-2.525-6.62-2.525-9.145,0l-26.064,26.064c-2.523,2.524-2.523,6.619,0.001,9.144c1.531,1.532,3.638,2.119,5.624,1.794
			c-5.467,9.096-9.438,19.273-11.512,30.171H372.421z M287.871,53.962c16.666,0,30.178,13.51,30.178,30.177
			c0,16.666-13.512,30.177-30.178,30.177c-16.667,0-30.177-13.511-30.177-30.177C257.694,67.472,271.204,53.962,287.871,53.962z"/>
	</g>
</g>
<g id="movie_-_clockwork-orange" display="none">
	<g display="inline">
		<path fill="#FFFFFF" d="M475.553,251.173c0,0-32.607,40.615-44.531,2.897V141.477c0,0-2.169-82.548-160.212-82.548
			c-145.543,0-151.502,92.324-151.502,92.324l0.999,97.927c-10.593,45.927-45.858,1.993-45.858,1.993s-30.415-29.916-30.415,6.52
			c0,49.957,61.909,46.702,61.909,46.702h125.233h87.648h125.234c0,0,61.908,3.255,61.908-46.702
			C505.967,221.257,475.553,251.173,475.553,251.173z"/>
		<g>
			<path fill="#FFFFFF" d="M267.559,419.89v-9.973h-18.865c-0.647-6.836-2.529-13.294-5.353-19.219l16.472-9.51l-4.984-8.643
				l-16.528,9.54c-3.866-5.43-8.628-10.173-14.107-13.98l9.566-16.566l-8.64-4.984l-9.594,16.618
				c-5.916-2.749-12.355-4.526-19.152-5.113v-19.164h-9.974v19.164c-6.808,0.581-13.259,2.364-19.184,5.113l-9.544-16.538
				l-8.636,4.984l9.516,16.486c-5.498,3.82-10.278,8.575-14.15,14.037l-16.373-9.455l-4.99,8.643l16.333,9.43
				c-2.826,5.957-4.699,12.444-5.328,19.317h-18.666v9.975h18.628c0.555,6.915,2.334,13.471,5.118,19.482l-16.001,9.244l4.984,8.637
				l15.951-9.213c3.879,5.592,8.721,10.439,14.281,14.346l-9.164,15.874l8.641,4.991l9.166-15.887
				c6.04,2.834,12.624,4.655,19.58,5.236v18.307h9.977v-18.332c6.943-0.619,13.506-2.487,19.521-5.348l9.203,15.941l8.641-4.989
				l-9.234-15.992c5.519-3.925,10.333-8.767,14.171-14.351l16.066,9.28l4.991-8.644l-16.166-9.336
				c2.743-5.993,4.482-12.523,5.012-19.41H267.559z M191.373,457.526c-23.267,0-42.126-18.858-42.126-42.125
				c0-23.26,18.859-42.125,42.126-42.125c23.266,0,42.125,18.865,42.125,42.125C233.497,438.668,214.639,457.526,191.373,457.526z"
				/>
			<path fill="#FFFFFF" d="M221.034,415.401c0,16.383-13.28,29.662-29.662,29.662c-16.382,0-29.659-13.279-29.659-29.662
				c0-16.375,13.277-29.654,29.659-29.654C207.754,385.747,221.034,399.026,221.034,415.401z"/>
		</g>
	</g>
</g>
<g id="movie-scream" display="none">
	<path display="inline" fill="#FFFFFF" d="M315.99,287.929c0,22.638-18.353,226.427-40.989,226.427
		c-22.639,0-40.992-203.789-40.992-226.427c0-22.639,18.354-40.992,40.992-40.992C297.638,246.937,315.99,265.29,315.99,287.929z"/>
	<g display="inline">
		<path fill="#FFFFFF" d="M234.984,48.813c0,0-30.255,62.463-57.583,78.079c-24.24,13.85-21.472,30.255-10.736,43.919
			c10.736,13.664,40.991-0.977,57.583-20.497c16.591-19.518,38.062-50.75,37.087-85.885
			C260.36,29.294,249.624,27.341,234.984,48.813z"/>
		<path fill="#FFFFFF" d="M315.015,48.813c0,0,30.255,62.463,57.583,78.079c24.24,13.85,21.473,30.255,10.736,43.919
			c-10.736,13.664-40.992-0.977-57.583-20.497c-16.593-19.518-38.063-50.75-37.087-85.885
			C289.64,29.294,300.375,27.341,315.015,48.813z"/>
	</g>
	<path display="inline" fill="#FFFFFF" d="M298.585,203.018c0,15.631-7.945-2.928-23.575-2.928
		c-15.635,0-23.595,18.559-23.595,2.928s7.96-28.304,23.595-28.304C290.64,174.714,298.585,187.387,298.585,203.018z"/>
</g>
<g id="movie-paranorman" display="none">
	<circle display="inline" fill="#FFFFFF" cx="274.999" cy="274.464" r="237.361"/>
	<path display="inline" d="M418.038,362.626c-6.027,0-11.706,1.479-16.73,4.052c4.615-14.565,15.368-143.458,15.368-143.458
		c-4.538,9.081-13.623,24.52-13.623,24.52c4.54-8.173,0-39.958,0-39.958c-5.449,13.624-18.16,32.693-19.072,34.51
		c5.45-13.623,1.814-52.675,1.814-52.675c-4.543,10.898-20.885,28.154-20.885,28.154c6.357-14.533,6.357-57.216,6.357-57.216
		c-3.628,9.081-23.614,47.227-23.614,47.227c3.629-16.347,3.634-70.837,3.634-70.837c-1.813,15.439-19.071,35.419-19.071,35.419
		c4.54-10.898-4.537-42.686-4.537-42.686c-7.268,19.979-24.525,46.316-24.525,46.316l5.45-60.847l-22.705,53.581l-12.713-58.123
		l-13.623,56.308l-9.083-43.592l-13.622,55.397l-14.532-51.765l-6.354,46.317l-11.809-34.512
		c-3.634,16.348,1.815,69.931,1.815,69.931l-19.072-43.593l-2.725,49.949c-4.544-8.174-21.793-29.97-21.793-29.97
		c1.816,13.624,0,49.951,0,49.951l-12.716-22.706c2.725,13.622,4.542,57.215,4.542,57.215c-4.54-8.173-22.706-30.877-22.706-30.877
		c5.448,23.612,14.359,126.707,14.359,126.707c-4.292-1.757-8.982-2.74-13.905-2.74c-20.315,0-36.782,16.465-36.782,36.782
		c0,20.312,16.467,36.779,36.782,36.779c12.429,0,23.393-6.181,30.05-15.616c18.332,32.889,50.462,56.846,88.467,63.869v52.121
		h49.042v-52.614c37.686-7.825,69.325-32.382,86.999-65.651c6.433,10.705,18.117,17.892,31.518,17.892
		c20.317,0,36.781-16.468,36.781-36.779C454.819,379.091,438.355,362.626,418.038,362.626z"/>
</g>
<g id="movie-megamind">
	<g>
		<ellipse fill="#FFFFFF" cx="394.849" cy="462.647" rx="16.947" ry="15.062"/>
		<ellipse fill="#FFFFFF" cx="180.219" cy="462.647" rx="16.945" ry="15.062"/>
		<path fill="#FFFFFF" d="M515.131,370.981c-2.995-25.961-24.954-40.93-54.905-45.92c-29.95-4.99-63.896,37.936-88.857,62.896
			s-49.916,28.95-49.916,28.95c-8.984,1-13.975,0-13.975,0s6.283,14.273,32.32,11.582c-11.401,9.623-18.375,22.212-18.375,36.04
			c0,30.149,32.876,54.596,73.426,54.596c40.551,0,73.426-24.446,73.426-54.596s-32.875-54.595-73.426-54.595
			c-5.34,0-10.535,0.45-15.554,1.252c21.685-14.602,45.499-34.654,70.945-44.195C490.177,352.017,515.131,370.981,515.131,370.981z
			 M436.271,464.53c0,18.714-19.386,33.888-43.305,33.888c-23.92,0-43.306-15.174-43.306-33.888
			c0-18.713,19.386-33.887,43.306-33.887C416.885,430.644,436.271,445.817,436.271,464.53z"/>
		<path fill="#FFFFFF" d="M248.688,443.975c-0.216,0.018-0.445,0.07-0.661,0.088c0.175-0.064,0.375-0.129,0.544-0.199
			c0,0-17.97,1.995-61.899-9.985c-43.925-11.98-81.867-21.966-101.832-29.95c-19.965-7.985-64.426,9.722-37.935,39.936
			c0,0,15.148,10.945,59.901,7.985c0.688-0.047,1.434-0.082,2.17-0.123c-1.348,4.112-2.182,8.383-2.182,12.805
			c0,30.149,32.875,54.596,73.426,54.596c40.553,0,73.429-24.446,73.429-54.596C253.648,458.488,251.127,449.409,248.688,443.975z
			 M178.336,498.418c-23.919,0-43.305-15.174-43.305-33.888c0-4.773,1.316-9.295,3.595-13.413
			c24.551-0.129,54.841,0.006,78.357-1.784c2.948,4.574,4.656,9.723,4.656,15.197C221.639,483.244,202.253,498.418,178.336,498.418z
			"/>
	</g>
</g>
<g id="amnesty" display="none">
	<g display="inline">
		<path fill="#FFFFFF" d="M341.796,267.198c-1.542-1.574-1.604-4.207-0.139-5.852l73.387-82.349c1.466-1.645,3.807-1.596,5.202,0.11
			l32.78,40.066c1.396,1.706,1.14,4.239-0.568,5.631l-81.517,66.44c-1.708,1.393-4.367,1.243-5.909-0.33L341.796,267.198z"/>
		<path fill="#FFFFFF" d="M360.649,126.95c1.311-1.772,3.682-1.972,5.27-0.445l40.487,38.913c1.588,1.527,1.702,4.134,0.253,5.793
			l-73.444,84.101c-1.449,1.659-4.295,2.314-6.323,1.455l-43.698-18.507c-2.028-0.859-2.617-3.012-1.307-4.784L360.649,126.95z"/>
		<path fill="#FFFFFF" d="M303.65,72.933c1.262-1.806,3.607-2.047,5.211-0.537l45.843,43.179c1.604,1.511,1.809,4.169,0.455,5.907
			l-52.161,66.987c-1.354,1.738-2.351,1.361-2.215-0.838l1.912-31.062c0.136-2.199-1.352-4.833-3.305-5.854l-33.159-17.321
			c-1.953-1.021-2.518-3.333-1.256-5.138L303.65,72.933z"/>
		<path fill="#FFFFFF" d="M242.248,33.191c1.324-1.761,3.846-2.114,5.603-0.785l42.881,32.422c1.758,1.329,2.195,3.916,0.974,5.749
			L256.492,123.4c-1.222,1.833-3.882,2.63-5.912,1.772l-55.113-23.317c-2.029-0.858-2.606-3.001-1.282-4.763L242.248,33.191z"/>
		<path fill="#FFFFFF" d="M216.212,211.457c-2.203,0-2.323,0.647-0.267,1.438l47.206,18.156c2.056,0.791,4.865,0.03,6.241-1.69
			l19.029-23.788c1.376-1.72,0.725-2.828-1.448-2.462l-45.578,7.682c-2.173,0.366-5.753,0.666-7.956,0.666H216.212z"/>
		<path fill="#FFFFFF" d="M303.913,516.022c-0.209,2.192,1.422,3.987,3.625,3.987h61.688c2.203,0,3.969-1.803,3.923-4.005
			l-2.229-107.661c-0.046-2.202,1.355-5.092,3.113-6.42c0,0,23.845-18.014,38.267-66.681c14.42-48.678,12.398-69.925,12.398-69.925
			c-0.209-2.193-1.841-2.931-3.626-1.64l-49.99,36.163c-1.785,1.291-4.532,1.084-6.104-0.46l-29.137-28.631
			c-1.571-1.544-4.505-3.54-6.519-4.435l-46.756-20.781c-2.013-0.895-5.453-1.814-7.645-2.042l-20.875-2.176
			c-2.191-0.229-3.081,1.145-1.977,3.051l79.505,137.277c1.104,1.907,0.245,3.089-1.909,2.628l-8.989-1.927
			c-2.154-0.461-4.089,0.956-4.298,3.148L303.913,516.022z"/>
		<path fill="#FFFFFF" d="M190.365,519.819c-2.203-0.005-3.756-1.793-3.452-3.976l17.532-125.562
			c0.304-2.183-0.459-5.459-1.696-7.282L96.687,226.79c-1.237-1.823-1.196-4.776,0.092-6.563l80.639-111.877
			c1.288-1.788,3.99-2.518,6.003-1.623l106.246,47.222c2.013,0.895,3.546,3.426,3.406,5.625l-1.896,29.86
			c-0.14,2.199-2.045,4.207-4.233,4.461l-53.932,6.281c-2.188,0.255-5.446-0.584-7.239-1.865l-23.718-20.328
			c-1.688-1.417-2.794-0.794-2.458,1.383c0,0,1.794,11.663,6.001,18.872c4.206,7.212-1.804,12.62-6.01,12.62
			s-11.058,4.432-11.058,4.432c-1.85,1.196-1.676,2.808,0.387,3.582l40.57,15.217c2.063,0.774,4.669,2.958,5.792,4.854
			l65.622,110.874c1.122,1.896,3.121,4.89,4.442,6.653c0,0,4.807,6.413-4.206,13.02c-9.012,6.607-16.826,10.815-13.221,12.615
			c3.605,1.806,11.738-0.229,11.738-0.229c2.137-0.535,3.754,0.825,3.592,3.022l-9.64,131.116c-0.162,2.197-2.097,3.992-4.3,3.987
			L190.365,519.819z"/>
	</g>
</g>
<g id="comic-batman" display="none">
	<path display="inline" fill="#FFFFFF" d="M381.196,396.992l-28.46-362.594l-17.918,84.204H203.061l-10.54-84.204l-25.298,362.594
		L40.736,422.768l0.054,81.914h463.73v-81.914L381.196,396.992z M339.034,403.293c0,0-53.23,22.34-70.095,33.796
		c0,0-51.122-30.359-65.878-33.796l1.054-110.554c0,0,45.851,3.438,64.824,19.476c0,0,48.248-21.274,70.095-19.476V403.293z"/>
</g>
<g id="tv_-_bart-simpson" display="none">
	<g display="inline">
		<path fill="#FFFFFF" d="M508.234,117.81c-7.555-10.798-59.884,33.474-59.884,33.474s0.709-50.03,1.339-61.549
			c-9.128-4.319-40.604,43.553-40.604,43.553s-6.609-43.553-18.886-59.749c-2.832,8.638-33.049,50.75-33.049,50.75
			s-5.666-47.511-3.777-58.31c-10.387-7.559-51.935,41.033-51.935,41.033S285.071,53.381,275,53.562
			c-4.092,5.219-33.994,57.77-33.994,57.77s-17.699-30.229-22.663-39.953c-7.798-0.759-26.439,47.511-26.439,47.511
			s-32.105-58.309-28.328-43.192c3.777,15.117-23.606,57.229-23.606,57.229s-27.424-31.769-30.689-41.572
			c-12.748-0.54-25.023,62.088-25.023,62.088s-10.859-22.136-42.492-17.277C64.9,172.339,82.369,435.271,82.369,435.271
			s-15.445,32.313-4.94,53.449c5.539-45.176,44.038-80.161,90.71-80.161c48.863,0,88.769,38.345,91.272,86.585
			c11.249,0.008,22.568,0.02,33.809,0.033c2.485-48.256,42.399-86.618,91.274-86.618c44.462,0,81.502,31.75,89.7,73.813
			c8.949-29.811-2.788-61.139-2.788-61.139S492.496,140.846,508.234,117.81z"/>
		<circle fill="#FFFFFF" cx="168.631" cy="486.188" r="9.336"/>
		<circle fill="#FFFFFF" cx="384.986" cy="486.188" r="9.336"/>
	</g>
</g>
<g id="tv-simpsons-lisa" display="none">
	<g display="inline">
		<circle fill="#FFFFFF" cx="190.687" cy="478.154" r="11.246"/>
		<circle fill="#FFFFFF" cx="358.132" cy="478.154" r="11.246"/>
		<path fill="#FFFFFF" d="M509.331,290.838c-7.498-18.743-99.343-21.243-99.343-21.243s-33.112-64.978-53.106-72.475
			c-19.993-7.498-82.473,50.607-82.473,50.607s-53.731-53.106-76.225-53.106s-58.105,73.101-58.105,73.101
			s-87.471,9.996-98.092,19.993c-10.622,9.996,8.122,86.845,8.122,86.845s-6.102,3.733-14.599,9.425l-0.03,111.011l87.037,0.002
			c-1.146-4.213-1.904-8.584-2.229-13.077c-0.137,0.219-0.223,0.348-0.223,0.348s-25.059-0.439-30.334-5.142
			c-5.276-4.704,1.512-6.346,4.114-4.618c2.468,1.641,20.716,3.498,26.277,2.937c0.258-12.3,3.734-23.806,9.641-33.704
			c-3.539-1.857-21.967-11.762-24.372-17.677c-2.663-6.549,4.155-5.029,5.729-2.331c1.51,2.588,17.388,12.479,22.458,14.278
			c8.438-11.378,20.309-20.049,34.079-24.501c-1.599-3.537-10.104-22.811-8.354-28.978c1.929-6.8,6.369-1.407,5.95,1.689
			c-0.415,3.064,6.452,21.688,9.187,25.471c4.638-0.985,9.443-1.517,14.374-1.517c11.122,0,21.618,2.658,30.912,7.349
			c0.702-6.941,2.698-22.841,6.575-26.718c4.998-4.997,6.248,1.876,4.374,4.375c-1.781,2.374-4.688,20.533-4.438,26.09
			c18.837,12.257,31.304,33.481,31.304,57.632c0,6.266-0.854,12.329-2.425,18.097h38.587c-1.571-5.768-2.426-11.831-2.426-18.097
			c0-24.15,12.467-45.375,31.305-57.632c0.25-5.557-2.657-23.716-4.438-26.09c-1.875-2.499-0.625-9.372,4.374-4.375
			c3.877,3.877,5.872,19.776,6.573,26.718c9.296-4.69,19.792-7.349,30.913-7.349c4.933,0,9.737,0.531,14.374,1.517
			c2.734-3.783,9.603-22.406,9.187-25.471c-0.419-3.097,4.021-8.489,5.95-1.689c1.751,6.167-6.756,25.44-8.354,28.978
			c13.771,4.452,25.642,13.123,34.08,24.501c5.069-1.799,20.948-11.69,22.458-14.278c1.572-2.698,8.392-4.218,5.728,2.331
			c-2.404,5.915-20.832,15.819-24.371,17.677c5.905,9.898,9.382,21.404,9.64,33.704c5.562,0.562,23.809-1.296,26.278-2.937
			c2.603-1.728,9.391-0.086,4.113,4.618c-5.275,4.702-30.334,5.142-30.334,5.142s-0.084-0.129-0.223-0.348
			c-0.324,4.496-1.084,8.869-2.231,13.083l88.063,0.002l0.157-112.276c-8.791-5.747-15.185-9.417-15.185-9.417
			S516.829,309.582,509.331,290.838z"/>
		<path d="M226.237,419.271c-0.251-5.557,2.656-23.716,4.438-26.09c1.874-2.499,0.624-9.372-4.374-4.375
			c-3.877,3.877-5.873,19.776-6.575,26.718c-9.294-4.69-19.79-7.349-30.912-7.349c-4.931,0-9.736,0.531-14.374,1.517
			c-2.734-3.783-9.602-22.406-9.187-25.471c0.419-3.097-4.021-8.489-5.95-1.689c-1.75,6.167,6.756,25.44,8.354,28.978
			c-13.771,4.452-25.642,13.123-34.079,24.501c-5.07-1.799-20.948-11.69-22.458-14.278c-1.573-2.698-8.392-4.218-5.729,2.331
			c2.405,5.915,20.833,15.819,24.372,17.677c-5.906,9.898-9.383,21.404-9.641,33.704c-5.562,0.562-23.81-1.296-26.277-2.937
			c-2.603-1.728-9.391-0.086-4.114,4.618c5.275,4.702,30.334,5.142,30.334,5.142s0.086-0.129,0.223-0.348
			c0.325,4.493,1.084,8.864,2.229,13.077L255.116,495c1.57-5.768,2.425-11.831,2.425-18.097
			C257.541,452.753,245.074,431.528,226.237,419.271z M190.687,489.4c-6.211,0-11.245-5.035-11.245-11.246
			c0-6.21,5.034-11.246,11.245-11.246s11.246,5.036,11.246,11.246C201.933,484.365,196.897,489.4,190.687,489.4z"/>
		<path d="M428.753,482.268c0,0,25.059-0.439,30.334-5.142c5.277-4.704-1.511-6.346-4.113-4.618
			c-2.47,1.641-20.716,3.498-26.278,2.937c-0.258-12.3-3.734-23.806-9.64-33.704c3.539-1.857,21.967-11.762,24.371-17.677
			c2.664-6.549-4.155-5.029-5.728-2.331c-1.51,2.588-17.389,12.479-22.458,14.278c-8.438-11.378-20.31-20.049-34.08-24.501
			c1.599-3.537,10.105-22.811,8.354-28.978c-1.929-6.8-6.369-1.407-5.95,1.689c0.416,3.064-6.452,21.688-9.187,25.471
			c-4.637-0.985-9.441-1.517-14.374-1.517c-11.121,0-21.617,2.658-30.913,7.349c-0.701-6.941-2.696-22.841-6.573-26.718
			c-4.999-4.997-6.249,1.876-4.374,4.375c1.78,2.374,4.688,20.533,4.438,26.09c-18.838,12.257-31.305,33.481-31.305,57.632
			c0,6.266,0.854,12.329,2.426,18.097l132.596,0.003c1.147-4.214,1.907-8.587,2.231-13.083
			C428.669,482.139,428.753,482.268,428.753,482.268z M358.132,489.4c-6.211,0-11.246-5.035-11.246-11.246
			c0-6.21,5.035-11.246,11.246-11.246s11.246,5.036,11.246,11.246C369.378,484.365,364.343,489.4,358.132,489.4z"/>
	</g>
</g>
<g id="comic-thewasp" display="none">
	<g display="inline">
		<path fill="#FFFFFF" d="M445.188,320.741c-11.275,44.43-18.066,65.906-36.021,62.822c-7.86,23.414-21.49,47.301-44.811,65.662
			c-67.595,53.232-87.623,55.496-87.623,55.496s-20.028-2.264-87.622-55.496c-23.932-18.846-37.656-43.51-45.413-67.512
			c0.332,1.213,0.528,1.826,0.528,1.826c-18.121,3.307-24.915-18.18-36.24-62.799c-1.223-4.818-2.012-8.994-2.449-12.617
			c-0.916,5.334-0.456,13.168,2.449,24.613c11.325,44.617,18.119,66.105,36.24,62.799c0,0-0.196-0.615-0.528-1.826
			c7.757,24,21.481,48.666,45.413,67.512c67.594,53.232,87.622,55.496,87.622,55.496s20.028-2.264,87.623-55.496
			c23.32-18.361,36.95-42.248,44.811-65.662c17.954,3.084,24.745-18.393,36.021-62.822c2.712-10.684,3.18-18.527,2.326-24.285
			C447.104,312.063,446.357,316.134,445.188,320.741z"/>
		<path fill="#FFFFFF" d="M181.042,229.014c0,0,30.145,96.215,155.478,101.548c-38.933-4.034-68.231-76.169-71.68-88.978
			c20.69,17.735,100.372,54.964,145.265,28.714c3.05,5.639,6.873,14.105,19.448,22.725c1.332-61.26-10.126-206.986-143.302-206.986
			c-133.175,0-168.823,100.657-163.497,212.523C122.754,298.56,179.711,264.971,181.042,229.014z"/>
		<path fill="#FFFFFF" d="M123.153,260.543c0,0-3.479,0.672-8.028,2.132L60.472,34.205l-6.459-0.922l44.66,237.88
			c-3.088,2.802-5.064,6.208-4.645,10.295c0.062,0.605,0.148,1.355,0.254,2.215c-13.58,4.229-18.909,30.941-11.869,60.537
			c6.188,26.018,19.91,45.74,32.669,48.543c1.28,3.848,2.479,6.496,3.541,7.51c7.848,7.467,28.588,2.578,28.588,2.578
			L123.153,260.543z"/>
		<path fill="#FFFFFF" d="M426.848,260.543c0,0,3.478,0.672,8.027,2.132l54.654-228.47l6.458-0.922l-44.66,237.88
			c3.089,2.802,5.065,6.208,4.646,10.295c-0.063,0.605-0.149,1.355-0.254,2.215c13.58,4.229,18.907,30.941,11.869,60.537
			c-6.188,26.018-19.911,45.74-32.671,48.543c-1.279,3.848-2.478,6.496-3.54,7.51c-7.847,7.467-28.588,2.578-28.588,2.578
			L426.848,260.543z"/>
	</g>
</g>
<g id="Layer_15">
	<g>
	</g>
	<g>
	</g>
	<g>
	</g>
	<g>
	</g>
	<g>
	</g>
	<g>
	</g>
</g>
</svg>
