<?xml version="1.0" encoding="utf-8"?>
<!-- Generator: Adobe Illustrator 16.0.0, SVG Export Plug-In . SVG Version: 6.00 Build 0)  -->
<!DOCTYPE svg PUBLIC "-//W3C//DTD SVG 1.1//EN" "http://www.w3.org/Graphics/SVG/1.1/DTD/svg11.dtd">
<svg version="1.1" xmlns="http://www.w3.org/2000/svg" xmlns:xlink="http://www.w3.org/1999/xlink" x="0px" y="0px" width="550px"
	 height="550px" viewBox="0 0 550 550" enable-background="new 0 0 550 550" xml:space="preserve">
<g id="Layer_5">
	<path d="M528.858,487.306c0,26.894-21.801,48.694-48.693,48.694H69.835c-26.893,0-48.694-21.801-48.694-48.694V62.694
		C21.142,35.801,42.942,14,69.835,14h410.33c26.893,0,48.693,21.801,48.693,48.694V487.306z"/>
</g>
<g id="pop-culture_-_tardis" display="none">
	<path display="inline" fill="#FFFFFF" d="M364.602,88.665V69.327h-10.296V55.601h-68.232V38.723c0-4.998-4.916-9.049-10.98-9.049
		h-7.016c-6.065,0-10.981,4.052-10.981,9.049v16.878h-61.402v13.726h-10.294v19.338h-11.113v431.661h201.427V88.665H364.602z
		 M361.73,200.114h-24.235v-35.466h24.235V200.114z M305.112,203.352h28.942v37.303h-28.942V203.352z M301.672,200.114h-19.371
		v-35.466h19.371V200.114z M305.112,200.114v-35.466h28.942v35.466H305.112z M190.356,106.692h169.286v23.64H190.356V106.692z
		 M268.824,200.114h-22.463v-35.466h22.463V200.114z M242.92,240.655h-28.942v-37.303h28.942V240.655z M213.978,200.114v-35.466
		h28.942v35.466H213.978z M210.537,164.647v35.466h-21.144v-35.466H210.537z M189.393,203.352h21.144v37.303h-21.144V203.352z
		 M246.361,240.655v-37.303h22.463v37.303H246.361z M282.301,203.352h19.371v37.303h-19.371V203.352z M337.495,240.655v-37.303
		h24.235v37.303H337.495z"/>
</g>
<g id="pop-culture_-_dalek">
	<g>
		<g>
			<circle fill="#FFFFFF" cx="288.466" cy="436.909" r="12.503"/>
			<circle fill="#FFFFFF" cx="288.466" cy="386.473" r="12.503"/>
			<circle fill="#FFFFFF" cx="288.466" cy="339.052" r="12.503"/>
			<circle fill="#FFFFFF" cx="288.466" cy="289.906" r="12.503"/>
			<path fill="#FFFFFF" d="M321.904,265.629c0-3.571-2.896-6.466-6.469-6.466h-54.749c-3.571,0-6.466,2.896-6.466,6.466
				l-3.88,194.423c0,3.572,2.895,6.468,6.466,6.468h62.51c3.571,0,6.467-2.896,6.467-6.468L321.904,265.629z M288.466,456.74
				c-10.951,0-19.83-8.878-19.83-19.831c0-10.951,8.878-19.829,19.83-19.829c10.95,0,19.829,8.878,19.829,19.829
				C308.295,447.862,299.416,456.74,288.466,456.74z M288.466,406.302c-10.951,0-19.83-8.877-19.83-19.829
				c0-10.953,8.878-19.83,19.83-19.83c10.95,0,19.829,8.877,19.829,19.83C308.295,397.425,299.416,406.302,288.466,406.302z
				 M288.466,358.881c-10.951,0-19.83-8.878-19.83-19.829s8.878-19.83,19.83-19.83c10.95,0,19.829,8.879,19.829,19.83
				S299.416,358.881,288.466,358.881z M288.466,309.737c-10.951,0-19.83-8.88-19.83-19.831s8.878-19.83,19.83-19.83
				c10.95,0,19.829,8.879,19.829,19.83S299.416,309.737,288.466,309.737z"/>
			<g>
				<circle fill="#FFFFFF" cx="211.73" cy="436.909" r="12.502"/>
				<circle fill="#FFFFFF" cx="213.455" cy="386.903" r="12.502"/>
				<circle fill="#FFFFFF" cx="216.041" cy="338.62" r="12.502"/>
				<circle fill="#FFFFFF" cx="218.413" cy="290.552" r="12.502"/>
				<path fill="#FFFFFF" d="M238.701,259.163h-39.229c-3.571,0-6.467,2.896-6.467,6.466l-0.92,10.629
					c-7.16,0.964-12.688,7.085-12.688,14.51c0,6.551,4.298,12.093,10.226,13.973l-1.716,19.847
					c-7.015,1.091-12.389,7.143-12.389,14.465c0,6.441,4.162,11.901,9.939,13.867l-1.755,20.3
					c-7.277,0.858-12.926,7.037-12.926,14.547c0,6.633,4.409,12.23,10.454,14.038l-1.669,19.307
					c-7.149,0.975-12.665,7.089-12.665,14.507c0,6.541,4.287,12.078,10.203,13.964l-0.906,10.471c0,3.572,2.896,6.468,6.467,6.468
					h53.457c3.571,0,6.467-2.896,6.467-6.468l2.586-194.423C245.167,262.058,242.273,259.163,238.701,259.163z M211.73,456.74
					c-10.952,0-19.831-8.878-19.831-19.831c0-10.951,8.879-19.829,19.831-19.829c10.951,0,19.83,8.878,19.83,19.829
					C231.56,447.862,222.682,456.74,211.73,456.74z M213.024,406.302c-10.952,0-19.831-8.877-19.831-19.829
					c0-10.953,8.878-19.83,19.831-19.83c10.951,0,19.829,8.877,19.829,19.83C232.853,397.425,223.975,406.302,213.024,406.302z
					 M215.61,358.881c-10.951,0-19.83-8.878-19.83-19.829s8.878-19.83,19.83-19.83c10.952,0,19.83,8.879,19.83,19.83
					S226.562,358.881,215.61,358.881z M218.197,309.737c-10.952,0-19.83-8.88-19.83-19.831s8.878-19.83,19.83-19.83
					s19.83,8.879,19.83,19.83S229.148,309.737,218.197,309.737z"/>
			</g>
			<g>
				<path fill="#FFFFFF" d="M351.887,436.909c0,6.906,5.601,12.503,12.503,12.503c6.904,0,12.503-5.597,12.503-12.503
					c0-6.904-5.599-12.501-12.503-12.501C357.487,424.408,351.887,430.005,351.887,436.909z"/>
				<path fill="#FFFFFF" d="M350.164,386.903c0,6.903,5.598,12.501,12.504,12.501c6.901,0,12.499-5.598,12.499-12.501
					c0-6.906-5.598-12.502-12.499-12.502C355.762,374.401,350.164,379.997,350.164,386.903z"/>
				<circle fill="#FFFFFF" cx="360.08" cy="338.62" r="12.502"/>
				<circle fill="#FFFFFF" cx="357.709" cy="290.552" r="12.502"/>
				<path fill="#FFFFFF" d="M330.953,265.629l2.586,194.423c0,3.572,2.896,6.468,6.467,6.468h53.457
					c3.571,0,6.466-2.896,6.466-6.468l-0.905-10.471c5.915-1.886,10.203-7.423,10.203-13.964c0-7.418-5.517-13.532-12.665-14.507
					l-1.669-19.307c6.044-1.808,10.452-7.405,10.452-14.038c0-7.51-5.648-13.688-12.926-14.547l-1.756-20.3
					c5.777-1.966,9.939-7.426,9.939-13.867c0-7.322-5.372-13.374-12.387-14.465l-1.719-19.847
					c5.929-1.88,10.227-7.422,10.227-13.973c0-7.425-5.527-13.546-12.688-14.51l-0.919-10.629c0-3.571-2.895-6.466-6.468-6.466
					H337.42C333.848,259.163,330.953,262.058,330.953,265.629z M344.562,436.909c0-10.951,8.878-19.829,19.828-19.829
					c10.951,0,19.83,8.878,19.83,19.829c0,10.953-8.879,19.831-19.83,19.831C353.439,456.74,344.562,447.862,344.562,436.909z
					 M343.268,386.473c0-10.953,8.878-19.83,19.83-19.83c10.95,0,19.829,8.877,19.829,19.83c0,10.952-8.879,19.829-19.829,19.829
					C352.146,406.302,343.268,397.425,343.268,386.473z M340.68,339.052c0-10.951,8.878-19.83,19.831-19.83
					c10.949,0,19.83,8.879,19.83,19.83s-8.881,19.829-19.83,19.829C349.558,358.881,340.68,350.003,340.68,339.052z
					 M338.094,289.906c0-10.951,8.879-19.83,19.829-19.83c10.953,0,19.832,8.879,19.832,19.83s-8.879,19.831-19.832,19.831
					C346.973,309.737,338.094,300.857,338.094,289.906z"/>
			</g>
		</g>
		<path fill="#FFFFFF" d="M434.997,494.775c0,11.904-9.651,21.555-21.554,21.555H162.679c-11.904,0-21.555-9.65-21.555-21.555l0,0
			c0-11.904,9.65-21.555,21.555-21.555h250.765C425.346,473.221,434.997,482.871,434.997,494.775L434.997,494.775z"/>
		<path fill="#FFFFFF" d="M374.492,187.85H201.629c-3.572,0-6.467,2.895-6.467,6.466v50.608h185.795v-50.608
			C380.958,190.745,378.063,187.85,374.492,187.85z M224.043,232.973c-9.106,0-16.489-7.383-16.489-16.489
			s7.383-16.489,16.489-16.489c9.107,0,16.489,7.383,16.489,16.489S233.15,232.973,224.043,232.973z M352.077,232.973
			c-9.105,0-16.488-7.383-16.488-16.489s7.383-16.489,16.488-16.489c9.106,0,16.49,7.383,16.49,16.489
			S361.184,232.973,352.077,232.973z"/>
		<g>
			<rect x="259.386" y="132.597" fill="#FFFFFF" width="57.682" height="41.895"/>
			<path fill="#FFFFFF" d="M248.458,173.49h-47.361v-34.427c0-3.571,2.896-6.466,6.467-6.466h40.894V173.49z"/>
			<path fill="#FFFFFF" d="M327.664,173.49h47.36v-34.427c0-3.571-2.897-6.466-6.467-6.466h-40.894V173.49z"/>
		</g>
		<path fill="#FFFFFF" d="M406.765,195.241c3.647-2.019,5.052-6.458,3.14-9.915l0,0c-1.916-3.457-6.422-4.621-10.066-2.604
			l-51.604,28.563c-3.647,2.019-5.054,6.457-3.139,9.914l0,0c1.913,3.457,6.422,4.624,10.067,2.604L406.765,195.241z"/>
		<path fill="#FFFFFF" d="M227.507,211.286l-51.602-28.563c-0.58-0.321-1.184-0.553-1.794-0.716c0.249-1.547,0.383-3.134,0.383-4.75
			c0-16.429-13.318-29.746-29.746-29.746c-16.428,0-29.745,13.317-29.745,29.746c0,16.428,13.317,29.745,29.745,29.745
			c9.771,0,18.44-4.711,23.864-11.986c0.121,0.077,0.238,0.156,0.365,0.227l51.602,28.562c3.646,2.02,8.154,0.854,10.067-2.604
			C232.56,217.743,231.155,213.304,227.507,211.286z"/>
		<path fill="#FFFFFF" d="M288.061,60.213c-13.096,0-23.709,10.615-23.709,23.71c0,13.094,10.614,23.71,23.709,23.71
			c13.097,0,23.71-10.616,23.71-23.71C311.771,70.828,301.157,60.213,288.061,60.213z M288.061,98.149
			c-7.858,0-14.227-6.369-14.227-14.226c0-7.856,6.368-14.225,14.227-14.225c7.857,0,14.226,6.369,14.226,14.225
			C302.286,91.78,295.918,98.149,288.061,98.149z"/>
		<path fill="#FFFFFF" d="M212.982,69.146l-11.721-11.719c-3.502-3.503-3.117-9.567,0.861-13.544
			c3.976-3.978,10.041-4.362,13.543-0.859l11.719,11.719l3.657-3.658l-12.918-12.918c-5.996-5.997-15.72-5.997-21.717,0
			c-5.998,5.999-5.998,15.722,0,21.72l12.917,12.917L212.982,69.146z"/>
		<path fill="#FFFFFF" d="M361.898,69.146l11.721-11.719c3.502-3.503,3.117-9.567-0.863-13.544
			c-3.975-3.978-10.038-4.362-13.542-0.859l-11.72,11.719l-3.657-3.658l12.919-12.918c5.996-5.997,15.719-5.997,21.718,0
			c6,5.999,6,15.722,0,21.72l-12.917,12.917L361.898,69.146z"/>
		<path fill="#FFFFFF" d="M372.421,119.058c-2.069-10.863-6.021-21.011-11.46-30.084c1.7,0.036,3.413-0.583,4.71-1.881
			c2.525-2.525,2.525-6.62,0.002-9.144l-26.063-26.064c-2.525-2.525-6.621-2.525-9.147,0c-1.489,1.492-2.077,3.528-1.808,5.469
			c-12.144-6.83-26.025-10.719-40.783-10.719c-15.148,0-29.372,4.099-41.74,11.269c0.479-2.098-0.081-4.384-1.714-6.018
			c-2.525-2.525-6.62-2.525-9.145,0l-26.064,26.064c-2.523,2.524-2.523,6.619,0.001,9.144c1.531,1.532,3.638,2.119,5.624,1.794
			c-5.467,9.096-9.438,19.273-11.512,30.171H372.421z M287.871,53.962c16.666,0,30.178,13.51,30.178,30.177
			c0,16.666-13.512,30.177-30.178,30.177c-16.667,0-30.177-13.511-30.177-30.177C257.694,67.472,271.204,53.962,287.871,53.962z"/>
	</g>
</g>
<g id="movie_-_clockwork-orange" display="none">
	<g display="inline">
		<path fill="#FFFFFF" d="M475.553,251.173c0,0-32.607,40.615-44.531,2.897V141.477c0,0-2.169-82.548-160.212-82.548
			c-145.543,0-151.502,92.324-151.502,92.324l0.999,97.927c-10.593,45.927-45.858,1.993-45.858,1.993s-30.415-29.916-30.415,6.52
			c0,49.957,61.909,46.702,61.909,46.702h125.233h87.648h125.234c0,0,61.908,3.255,61.908-46.702
			C505.967,221.257,475.553,251.173,475.553,251.173z"/>
		<g>
			<path fill="#FFFFFF" d="M267.559,419.89v-9.973h-18.865c-0.647-6.836-2.529-13.294-5.353-19.219l16.472-9.51l-4.984-8.643
				l-16.528,9.54c-3.866-5.43-8.628-10.173-14.107-13.98l9.566-16.566l-8.64-4.984l-9.594,16.618
				c-5.916-2.749-12.355-4.526-19.152-5.113v-19.164h-9.974v19.164c-6.808,0.581-13.259,2.364-19.184,5.113l-9.544-16.538
				l-8.636,4.984l9.516,16.486c-5.498,3.82-10.278,8.575-14.15,14.037l-16.373-9.455l-4.99,8.643l16.333,9.43
				c-2.826,5.957-4.699,12.444-5.328,19.317h-18.666v9.975h18.628c0.555,6.915,2.334,13.471,5.118,19.482l-16.001,9.244l4.984,8.637
				l15.951-9.213c3.879,5.592,8.721,10.439,14.281,14.346l-9.164,15.874l8.641,4.991l9.166-15.887
				c6.04,2.834,12.624,4.655,19.58,5.236v18.307h9.977v-18.332c6.943-0.619,13.506-2.487,19.521-5.348l9.203,15.941l8.641-4.989
				l-9.234-15.992c5.519-3.925,10.333-8.767,14.171-14.351l16.066,9.28l4.991-8.644l-16.166-9.336
				c2.743-5.993,4.482-12.523,5.012-19.41H267.559z M191.373,457.526c-23.267,0-42.126-18.858-42.126-42.125
				c0-23.26,18.859-42.125,42.126-42.125c23.266,0,42.125,18.865,42.125,42.125C233.497,438.668,214.639,457.526,191.373,457.526z"
				/>
			<path fill="#FFFFFF" d="M221.034,415.401c0,16.383-13.28,29.662-29.662,29.662c-16.382,0-29.659-13.279-29.659-29.662
				c0-16.375,13.277-29.654,29.659-29.654C207.754,385.747,221.034,399.026,221.034,415.401z"/>
		</g>
	</g>
</g>
<g id="movie-scream" display="none">
	<path display="inline" fill="#FFFFFF" d="M315.99,287.929c0,22.638-18.353,226.427-40.989,226.427
		c-22.639,0-40.992-203.789-40.992-226.427c0-22.639,18.354-40.992,40.992-40.992C297.638,246.937,315.99,265.29,315.99,287.929z"/>
	<g display="inline">
		<path fill="#FFFFFF" d="M234.984,48.813c0,0-30.255,62.463-57.583,78.079c-24.24,13.85-21.472,30.255-10.736,43.919
			c10.736,13.664,40.991-0.977,57.583-20.497c16.591-19.518,38.062-50.75,37.087-85.885
			C260.36,29.294,249.624,27.341,234.984,48.813z"/>
		<path fill="#FFFFFF" d="M315.015,48.813c0,0,30.255,62.463,57.583,78.079c24.24,13.85,21.473,30.255,10.736,43.919
			c-10.736,13.664-40.992-0.977-57.583-20.497c-16.593-19.518-38.063-50.75-37.087-85.885
			C289.64,29.294,300.375,27.341,315.015,48.813z"/>
	</g>
	<path display="inline" fill="#FFFFFF" d="M298.585,203.018c0,15.631-7.945-2.928-23.575-2.928
		c-15.635,0-23.595,18.559-23.595,2.928s7.96-28.304,23.595-28.304C290.64,174.714,298.585,187.387,298.585,203.018z"/>
</g>
<g id="Layer_6" display="none">
</g>
<g id="movie-paranorman" display="none">
	<circle display="inline" fill="#939598" cx="275" cy="249.355" r="213.751"/>
	<path display="inline" fill="#FFFFFF" d="M417.05,384.188c-5.986,0-11.625,1.47-16.614,4.025
		c4.582-14.465,15.263-142.468,15.263-142.468c-4.508,9.019-13.529,24.351-13.529,24.351c4.508-8.117,0-39.682,0-39.682
		c-5.412,13.529-18.036,32.468-18.941,34.271c5.413-13.528,1.803-52.311,1.803-52.311c-4.512,10.823-20.741,27.959-20.741,27.959
		c6.314-14.433,6.314-56.82,6.314-56.82c-3.604,9.019-23.452,46.901-23.452,46.901c3.604-16.234,3.608-70.348,3.608-70.348
		c-1.801,15.333-18.939,35.174-18.939,35.174c4.509-10.823-4.507-42.391-4.507-42.391c-7.215,19.841-24.354,45.997-24.354,45.997
		l5.412-60.426l-22.549,53.21l-12.625-57.721l-13.528,55.919l-9.021-43.291l-13.528,55.015l-14.432-51.408l-6.31,45.997
		l-11.727-34.273c-3.609,16.235,1.803,69.448,1.803,69.448l-18.94-43.292l-2.706,49.604c-4.513-8.118-21.643-29.763-21.643-29.763
		c1.805,13.529,0,49.606,0,49.606l-12.628-22.549c2.706,13.528,4.511,56.819,4.511,56.819c-4.508-8.117-22.549-30.663-22.549-30.663
		c5.411,23.449,14.26,125.832,14.26,125.832c-4.262-1.744-8.92-2.723-13.809-2.723c-20.174,0-36.528,16.353-36.528,36.528
		c0,20.173,16.354,36.525,36.528,36.525c12.343,0,23.231-6.138,29.842-15.507c18.205,32.661,50.113,56.453,87.856,63.428v31.898
		h48.704v-32.39c37.424-7.769,68.847-32.157,86.396-65.196c6.39,10.631,17.994,17.767,31.301,17.767
		c20.177,0,36.527-16.353,36.527-36.525C453.577,400.541,437.227,384.188,417.05,384.188z"/>
</g>
<g id="amnesty" display="none">
	<g display="inline">
		<g>
			<path fill="#FFFFFF" d="M341.796,267.198c-1.542-1.574-1.604-4.207-0.139-5.852l73.387-82.349
				c1.466-1.645,3.807-1.596,5.202,0.11l32.78,40.066c1.396,1.706,1.14,4.239-0.568,5.631l-81.517,66.44
				c-1.708,1.393-4.367,1.243-5.909-0.33L341.796,267.198z"/>
		</g>
		<g>
			<path fill="#FFFFFF" d="M360.649,126.95c1.311-1.772,3.682-1.972,5.27-0.445l40.486,38.913c1.589,1.527,1.703,4.134,0.254,5.793
				l-73.444,84.1c-1.449,1.66-4.295,2.314-6.323,1.455l-43.698-18.507c-2.028-0.859-2.617-3.012-1.307-4.784L360.649,126.95z"/>
		</g>
		<g>
			<path fill="#FFFFFF" d="M303.65,72.933c1.262-1.806,3.607-2.047,5.211-0.537l45.843,43.179c1.604,1.511,1.809,4.169,0.455,5.907
				l-52.161,66.987c-1.354,1.738-2.351,1.361-2.215-0.838l1.912-31.062c0.136-2.199-1.352-4.833-3.305-5.854l-33.159-17.321
				c-1.953-1.021-2.518-3.333-1.255-5.138L303.65,72.933z"/>
		</g>
		<g>
			<path fill="#FFFFFF" d="M242.248,33.192c1.324-1.761,3.846-2.114,5.603-0.786l42.881,32.422c1.758,1.329,2.195,3.916,0.974,5.749
				L256.492,123.4c-1.222,1.833-3.882,2.63-5.912,1.772l-55.113-23.317c-2.029-0.858-2.606-3.002-1.282-4.763L242.248,33.192z"/>
		</g>
		<g>
			<path fill="#FFFFFF" d="M216.212,211.457c-2.203,0-2.323,0.647-0.267,1.438l47.206,18.156c2.056,0.791,4.865,0.03,6.241-1.69
				l19.029-23.788c1.376-1.721,0.725-2.829-1.448-2.463l-45.578,7.682c-2.172,0.366-5.753,0.666-7.956,0.666H216.212z"/>
		</g>
		<g>
			<path fill="#FFFFFF" d="M303.913,516.021c-0.209,2.193,1.422,3.988,3.625,3.988h61.688c2.203,0,3.969-1.803,3.923-4.005
				l-2.229-107.661c-0.046-2.202,1.355-5.092,3.113-6.42c0,0,23.845-18.014,38.267-66.681c14.42-48.678,12.398-69.925,12.398-69.925
				c-0.209-2.193-1.841-2.931-3.626-1.64l-49.99,36.162c-1.785,1.291-4.532,1.084-6.104-0.46l-29.137-28.631
				c-1.571-1.544-4.505-3.54-6.519-4.435l-46.755-20.781c-2.014-0.895-5.454-1.814-7.646-2.042l-20.875-2.176
				c-2.191-0.229-3.081,1.145-1.977,3.051l79.505,137.277c1.104,1.907,0.245,3.089-1.909,2.628l-8.989-1.927
				c-2.154-0.461-4.089,0.956-4.298,3.149L303.913,516.021z"/>
		</g>
		<g>
			<path fill="#FFFFFF" d="M190.365,519.819c-2.203-0.005-3.756-1.793-3.452-3.976l17.532-125.562
				c0.305-2.183-0.459-5.459-1.696-7.282L96.688,226.79c-1.238-1.823-1.196-4.776,0.092-6.563l80.639-111.877
				c1.288-1.788,3.99-2.518,6.003-1.623l106.245,47.222c2.014,0.895,3.547,3.426,3.407,5.625l-1.896,29.86
				c-0.14,2.199-2.045,4.207-4.233,4.461l-53.932,6.281c-2.188,0.255-5.446-0.584-7.239-1.865l-23.718-20.328
				c-1.688-1.417-2.794-0.794-2.458,1.383c0,0,1.794,11.663,6.001,18.872c4.206,7.212-1.804,12.62-6.01,12.62
				s-11.058,4.432-11.058,4.432c-1.85,1.196-1.676,2.809,0.387,3.582l40.57,15.217c2.063,0.773,4.669,2.958,5.792,4.854
				l65.622,110.874c1.122,1.896,3.121,4.89,4.442,6.653c0,0,4.807,6.413-4.206,13.02c-9.012,6.607-16.826,10.815-13.221,12.615
				c3.605,1.806,11.738-0.229,11.738-0.229c2.137-0.535,3.754,0.825,3.592,3.022l-9.64,131.116c-0.162,2.197-2.097,3.992-4.3,3.987
				L190.365,519.819z"/>
		</g>
	</g>
</g>
<g id="Layer_9" display="none">
</g>
<g id="comic-batman" display="none">
	<path display="inline" fill="#FFFFFF" d="M381.196,386.804l-28.46-333.608l-17.918,77.473H203.061l-10.54-77.473l-25.298,333.608
		L40.736,410.519l0.054,75.366h463.73v-75.366L381.196,386.804z M339.034,392.601c0,0-53.23,20.555-70.095,31.095
		c0,0-51.122-27.933-65.878-31.095l1.054-101.716c0,0,45.851,3.163,64.824,17.919c0,0,48.248-19.574,70.095-17.919V392.601z"/>
</g>
</svg>
